<svg width="152" height="152" viewBox="0 0 152 152" fill="none" xmlns="http://www.w3.org/2000/svg">
<path d="M152 0H0V152H152V0Z" fill="#222222"/>
<path d="M126.667 0H25.3333V101.333H126.667V0Z" fill="#222222"/>
<path d="M122.708 13.4583H29.2917V87.875H122.708V13.4583Z" fill="#222222"/>
<g filter="url(#filter0_d)">
<path d="M29.2917 12.2708H122.708" stroke="#EEEEEE" stroke-width="3"/>
</g>
<g filter="url(#filter1_d)">
<path d="M29.2917 49.4792H122.708" stroke="#EEEEEE" stroke-width="3"/>
</g>
<g filter="url(#filter2_d)">
<path d="M29.2917 86.6875H122.708" stroke="#EEEEEE" stroke-width="3"/>
</g>
<g style="mix-blend-mode:lighten">
<g style="mix-blend-mode:lighten">
<g style="mix-blend-mode:lighten">
<path d="M76 96.5833C80.8094 96.5833 84.7084 92.6844 84.7084 87.875C84.7084 83.0656 80.8094 79.1667 76 79.1667C71.1906 79.1667 67.2917 83.0656 67.2917 87.875C67.2917 92.6844 71.1906 96.5833 76 96.5833Z" fill="#222222"/>
</g>
</g>
<g style="mix-blend-mode:lighten">
<g style="mix-blend-mode:lighten">
<path d="M76 96.5833C80.8094 96.5833 84.7084 92.6844 84.7084 87.875C84.7084 83.0656 80.8094 79.1667 76 79.1667C71.1906 79.1667 67.2917 83.0656 67.2917 87.875C67.2917 92.6844 71.1906 96.5833 76 96.5833Z" stroke="#EEEEEE" stroke-width="8"/>
</g>
</g>
</g>
<g style="mix-blend-mode:lighten">
<g style="mix-blend-mode:lighten">
<g style="mix-blend-mode:lighten">
<path d="M113.208 59.375C118.017 59.375 121.917 55.4761 121.917 50.6667C121.917 45.8572 118.017 41.9583 113.208 41.9583C108.399 41.9583 104.5 45.8572 104.5 50.6667C104.5 55.4761 108.399 59.375 113.208 59.375Z" fill="#222222"/>
</g>
</g>
<g style="mix-blend-mode:lighten">
<g style="mix-blend-mode:lighten">
<path d="M113.208 59.375C118.017 59.375 121.917 55.4761 121.917 50.6667C121.917 45.8572 118.017 41.9583 113.208 41.9583C108.399 41.9583 104.5 45.8572 104.5 50.6667C104.5 55.4761 108.399 59.375 113.208 59.375Z" stroke="#EEEEEE" stroke-width="8"/>
</g>
</g>
</g>
<g style="mix-blend-mode:lighten">
<g style="mix-blend-mode:lighten">
<g style="mix-blend-mode:lighten">
<path d="M49.875 22.1667C54.6844 22.1667 58.5834 18.2678 58.5834 13.4583C58.5834 8.64885 54.6844 4.75 49.875 4.75C45.0656 4.75 41.1667 8.64885 41.1667 13.4583C41.1667 18.2678 45.0656 22.1667 49.875 22.1667Z" fill="#222222"/>
</g>
</g>
<g style="mix-blend-mode:lighten">
<g style="mix-blend-mode:lighten">
<path d="M49.875 22.1667C54.6844 22.1667 58.5834 18.2678 58.5834 13.4583C58.5834 8.64885 54.6844 4.75 49.875 4.75C45.0656 4.75 41.1667 8.64885 41.1667 13.4583C41.1667 18.2678 45.0656 22.1667 49.875 22.1667Z" stroke="#EEEEEE" stroke-width="8"/>
</g>
</g>
</g>
<g style="mix-blend-mode:difference">
<g style="mix-blend-mode:difference" filter="url(#filter3_di)">
<g style="mix-blend-mode:difference">
<g style="mix-blend-mode:difference">
<path d="M113.208 19H38.7917C36.6055 19 34.8333 20.7722 34.8333 22.9583V80.9084C34.8333 83.0945 36.6055 84.8668 38.7917 84.8668H113.208C115.394 84.8668 117.167 83.0945 117.167 80.9084V22.9583C117.167 20.7722 115.394 19 113.208 19Z" fill="#EEEEEE"/>
</g>
</g>
<g style="mix-blend-mode:difference">
<g style="mix-blend-mode:difference">
<path d="M113.208 19.7917H38.7917C37.0427 19.7917 35.625 21.2094 35.625 22.9583V80.9084C35.625 82.6573 37.0427 84.0751 38.7917 84.0751H113.208C114.957 84.0751 116.375 82.6573 116.375 80.9084V22.9583C116.375 21.2094 114.957 19.7917 113.208 19.7917Z" stroke="black" stroke-width="2"/>
</g>
</g>
</g>
<path d="M57.4478 25.9826H42.6076C42.1704 25.9826 41.8159 26.3371 41.8159 26.7743V33.0068C41.8159 33.444 42.1704 33.7985 42.6076 33.7985H57.4478C57.885 33.7985 58.2394 33.444 58.2394 33.0068V26.7743C58.2394 26.3371 57.885 25.9826 57.4478 25.9826Z" fill="black" stroke="black"/>
<path d="M78.1056 25.9826H63.2655C62.8282 25.9826 62.4738 26.3371 62.4738 26.7743V33.0068C62.4738 33.444 62.8282 33.7985 63.2655 33.7985H78.1056C78.5428 33.7985 78.8973 33.444 78.8973 33.0068V26.7743C78.8973 26.3371 78.5428 25.9826 78.1056 25.9826Z" stroke="black"/>
<path d="M76.0003 65.5659C83.5294 65.5659 89.6328 59.4624 89.6328 51.9334C89.6328 44.4044 83.5294 38.3009 76.0003 38.3009C68.4713 38.3009 62.3678 44.4044 62.3678 51.9334C62.3678 59.4624 68.4713 65.5659 76.0003 65.5659Z" fill="#C4C4C4" stroke="black" stroke-width="3"/>
<path d="M75.9998 59.771C80.3283 59.771 83.8373 56.2621 83.8373 51.9334C83.8373 47.6049 80.3283 44.0959 75.9998 44.0959C71.6713 44.0959 68.1623 47.6049 68.1623 51.9334C68.1623 56.2621 71.6713 59.771 75.9998 59.771Z" fill="black" stroke="black"/>
</g>
<path d="M3.58313 124.754V122.656H19.9125V126.394L16.0555 125.862V124.754H9.64202V127.503H16.0555V129.601H9.64202V133H5.78502V124.754H3.58313ZM20.3524 127.089V125.168H25.8942V133H22.1996V127.089H20.3524ZM22.1996 124.133V122.064H25.8942V124.133H22.1996ZM28.5518 133V122.656H32.2463V131.079H34.0935V133H28.5518ZM34.0912 127.089V125.168H35.9384V122.656H39.6329V125.168H43.2534V127.089H39.6329V130.636L40.5195 131.079H46.209V133H39.559L35.9384 131.227V127.089H34.0912ZM45.8961 127.089V125.168H60.8217V129.084L51.4378 130.414V131.079H57.1272V130.414L60.8217 130.044V133H47.7433V127.089H45.8961ZM51.4378 128.508L57.1272 127.754V127.089H51.4378V128.508ZM62.1459 127.089V125.168H66.6383L67.392 125.907L68.1309 125.168H75.5936V128.419L71.8992 128.049V127.089H67.6875V133H63.9931V127.089H62.1459ZM77.5211 133V122.242L86.905 125.005L96.2741 122.242V133H91.161V130.902H92.4171V125.848L88.8261 126.867V133H84.9691V126.867L81.3781 125.848V130.902H82.6342V133H77.5211ZM99.0782 133V129.084L108.61 127.902V127.089H102.773V127.754L99.0782 128.123V125.168H112.305V133H109.66L108.906 132.261L108.167 133H99.0782ZM102.773 131.079H108.61V129.69L102.773 130.414V131.079ZM113.637 127.089V125.168H115.484V122.656H119.179V125.168H122.799V127.089H119.179V130.636L120.065 131.079H125.755V133H119.105L115.484 131.227V127.089H113.637ZM125.442 127.089V125.168H130.984V133H127.289V127.089H125.442ZM127.289 124.133V122.064H130.984V124.133H127.289ZM132.312 127.089V125.168H147.237V128.123L143.543 127.754V127.089H137.853V131.079H143.543V130.414L147.237 130.044V133H134.159V127.089H132.312Z" fill="#EEEEEE"/>
<defs>
<filter id="filter0_d" x="25.2917" y="10.7708" width="101.417" height="11" filterUnits="userSpaceOnUse" color-interpolation-filters="sRGB">
<feFlood flood-opacity="0" result="BackgroundImageFix"/>
<feColorMatrix in="SourceAlpha" type="matrix" values="0 0 0 0 0 0 0 0 0 0 0 0 0 0 0 0 0 0 127 0"/>
<feOffset dy="4"/>
<feGaussianBlur stdDeviation="2"/>
<feColorMatrix type="matrix" values="0 0 0 0 0 0 0 0 0 0 0 0 0 0 0 0 0 0 0.25 0"/>
<feBlend mode="normal" in2="BackgroundImageFix" result="effect1_dropShadow"/>
<feBlend mode="normal" in="SourceGraphic" in2="effect1_dropShadow" result="shape"/>
</filter>
<filter id="filter1_d" x="25.2917" y="47.9792" width="101.417" height="11" filterUnits="userSpaceOnUse" color-interpolation-filters="sRGB">
<feFlood flood-opacity="0" result="BackgroundImageFix"/>
<feColorMatrix in="SourceAlpha" type="matrix" values="0 0 0 0 0 0 0 0 0 0 0 0 0 0 0 0 0 0 127 0"/>
<feOffset dy="4"/>
<feGaussianBlur stdDeviation="2"/>
<feColorMatrix type="matrix" values="0 0 0 0 0 0 0 0 0 0 0 0 0 0 0 0 0 0 0.25 0"/>
<feBlend mode="normal" in2="BackgroundImageFix" result="effect1_dropShadow"/>
<feBlend mode="normal" in="SourceGraphic" in2="effect1_dropShadow" result="shape"/>
</filter>
<filter id="filter2_d" x="25.2917" y="85.1875" width="101.417" height="11" filterUnits="userSpaceOnUse" color-interpolation-filters="sRGB">
<feFlood flood-opacity="0" result="BackgroundImageFix"/>
<feColorMatrix in="SourceAlpha" type="matrix" values="0 0 0 0 0 0 0 0 0 0 0 0 0 0 0 0 0 0 127 0"/>
<feOffset dy="4"/>
<feGaussianBlur stdDeviation="2"/>
<feColorMatrix type="matrix" values="0 0 0 0 0 0 0 0 0 0 0 0 0 0 0 0 0 0 0.25 0"/>
<feBlend mode="normal" in2="BackgroundImageFix" result="effect1_dropShadow"/>
<feBlend mode="normal" in="SourceGraphic" in2="effect1_dropShadow" result="shape"/>
</filter>
<filter id="filter3_di" x="30.625" y="18.7917" width="90.75" height="74.2834" filterUnits="userSpaceOnUse" color-interpolation-filters="sRGB">
<feFlood flood-opacity="0" result="BackgroundImageFix"/>
<feColorMatrix in="SourceAlpha" type="matrix" values="0 0 0 0 0 0 0 0 0 0 0 0 0 0 0 0 0 0 127 0"/>
<feOffset dy="4"/>
<feGaussianBlur stdDeviation="2"/>
<feColorMatrix type="matrix" values="0 0 0 0 0 0 0 0 0 0 0 0 0 0 0 0 0 0 0.25 0"/>
<feBlend mode="normal" in2="BackgroundImageFix" result="effect1_dropShadow"/>
<feBlend mode="normal" in="SourceGraphic" in2="effect1_dropShadow" result="shape"/>
<feColorMatrix in="SourceAlpha" type="matrix" values="0 0 0 0 0 0 0 0 0 0 0 0 0 0 0 0 0 0 127 0" result="hardAlpha"/>
<feOffset dx="3"/>
<feGaussianBlur stdDeviation="7"/>
<feComposite in2="hardAlpha" operator="arithmetic" k2="-1" k3="1"/>
<feColorMatrix type="matrix" values="0 0 0 0 0.133333 0 0 0 0 0.133333 0 0 0 0 0.133333 0 0 0 0.8 0"/>
<feBlend mode="luminosity" in2="shape" result="effect2_innerShadow"/>
</filter>
</defs>
</svg>
