<svg width="120" height="120" viewBox="0 0 120 120" fill="none" xmlns="http://www.w3.org/2000/svg">
<path d="M120 0H0V120H120V0Z" fill="#222222"/>
<path d="M115.312 15.9375H4.6875V104.062H115.312V15.9375Z" fill="#222222"/>
<g filter="url(#filter0_d)">
<path d="M4.6875 14.5312H115.312" stroke="#EEEEEE" stroke-width="3"/>
</g>
<g filter="url(#filter1_d)">
<path d="M4.6875 58.5938H115.312" stroke="#EEEEEE" stroke-width="3"/>
</g>
<g filter="url(#filter2_d)">
<path d="M4.6875 102.656H115.312" stroke="#EEEEEE" stroke-width="3"/>
</g>
<g style="mix-blend-mode:lighten">
<g style="mix-blend-mode:lighten">
<path d="M60 114.375C65.6954 114.375 70.3125 109.758 70.3125 104.062C70.3125 98.3671 65.6954 93.75 60 93.75C54.3046 93.75 49.6875 98.3671 49.6875 104.062C49.6875 109.758 54.3046 114.375 60 114.375Z" fill="#222222"/>
</g>
<g style="mix-blend-mode:lighten">
<path d="M60 114.375C65.6954 114.375 70.3125 109.758 70.3125 104.062C70.3125 98.3671 65.6954 93.75 60 93.75C54.3046 93.75 49.6875 98.3671 49.6875 104.062C49.6875 109.758 54.3046 114.375 60 114.375Z" stroke="#EEEEEE" stroke-width="8"/>
</g>
</g>
<g style="mix-blend-mode:lighten">
<g style="mix-blend-mode:lighten">
<path d="M104.062 70.3125C109.758 70.3125 114.375 65.6954 114.375 60C114.375 54.3046 109.758 49.6875 104.062 49.6875C98.3671 49.6875 93.75 54.3046 93.75 60C93.75 65.6954 98.3671 70.3125 104.062 70.3125Z" fill="#222222"/>
</g>
<g style="mix-blend-mode:lighten">
<path d="M104.062 70.3125C109.758 70.3125 114.375 65.6954 114.375 60C114.375 54.3046 109.758 49.6875 104.062 49.6875C98.3671 49.6875 93.75 54.3046 93.75 60C93.75 65.6954 98.3671 70.3125 104.062 70.3125Z" stroke="#EEEEEE" stroke-width="8"/>
</g>
</g>
<g style="mix-blend-mode:lighten">
<g style="mix-blend-mode:lighten">
<path d="M29.0625 26.25C34.7579 26.25 39.375 21.6329 39.375 15.9375C39.375 10.2421 34.7579 5.625 29.0625 5.625C23.3671 5.625 18.75 10.2421 18.75 15.9375C18.75 21.6329 23.3671 26.25 29.0625 26.25Z" fill="#222222"/>
</g>
<g style="mix-blend-mode:lighten">
<path d="M29.0625 26.25C34.7579 26.25 39.375 21.6329 39.375 15.9375C39.375 10.2421 34.7579 5.625 29.0625 5.625C23.3671 5.625 18.75 10.2421 18.75 15.9375C18.75 21.6329 23.3671 26.25 29.0625 26.25Z" stroke="#EEEEEE" stroke-width="8"/>
</g>
</g>
<g style="mix-blend-mode:difference">
<g style="mix-blend-mode:difference" filter="url(#filter3_di)">
<g style="mix-blend-mode:difference">
<path d="M104.062 22.5H15.9375C13.3487 22.5 11.25 24.5987 11.25 27.1875V95.8126C11.25 98.4014 13.3487 100.5 15.9375 100.5H104.062C106.651 100.5 108.75 98.4014 108.75 95.8126V27.1875C108.75 24.5987 106.651 22.5 104.062 22.5Z" fill="#EEEEEE"/>
</g>
<g style="mix-blend-mode:difference">
<path d="M104.062 23.4375H15.9375C13.8664 23.4375 12.1875 25.1164 12.1875 27.1875V95.8126C12.1875 97.8837 13.8664 99.5626 15.9375 99.5626H104.062C106.134 99.5626 107.812 97.8837 107.812 95.8126V27.1875C107.812 25.1164 106.134 23.4375 104.062 23.4375Z" stroke="black" stroke-width="2"/>
</g>
</g>
<path d="M38.0303 30.7688H20.4563C19.9386 30.7688 19.5188 31.1886 19.5188 31.7063V39.087C19.5188 39.6048 19.9386 40.0245 20.4563 40.0245H38.0303C38.548 40.0245 38.9678 39.6048 38.9678 39.087V31.7063C38.9678 31.1886 38.548 30.7688 38.0303 30.7688Z" fill="black" stroke="black"/>
<path d="M62.4935 30.7688H44.9196C44.4018 30.7688 43.9821 31.1886 43.9821 31.7063V39.087C43.9821 39.6048 44.4018 40.0245 44.9196 40.0245H62.4935C63.0112 40.0245 63.431 39.6048 63.431 39.087V31.7063C63.431 31.1886 63.0112 30.7688 62.4935 30.7688Z" stroke="black"/>
<path d="M60.0004 77.6438C68.9163 77.6438 76.1441 70.416 76.1441 61.5001C76.1441 52.5841 68.9163 45.3563 60.0004 45.3563C51.0844 45.3563 43.8566 52.5841 43.8566 61.5001C43.8566 70.416 51.0844 77.6438 60.0004 77.6438Z" fill="#C4C4C4" stroke="black" stroke-width="3"/>
<path d="M59.9997 70.7815C65.1256 70.7815 69.281 66.6261 69.281 61.5002C69.281 56.3743 65.1256 52.2189 59.9997 52.2189C54.8738 52.2189 50.7185 56.3743 50.7185 61.5002C50.7185 66.6261 54.8738 70.7815 59.9997 70.7815Z" fill="black" stroke="black"/>
</g>
<defs>
<filter id="filter0_d" x="0.6875" y="13.0312" width="118.625" height="11" filterUnits="userSpaceOnUse" color-interpolation-filters="sRGB">
<feFlood flood-opacity="0" result="BackgroundImageFix"/>
<feColorMatrix in="SourceAlpha" type="matrix" values="0 0 0 0 0 0 0 0 0 0 0 0 0 0 0 0 0 0 127 0"/>
<feOffset dy="4"/>
<feGaussianBlur stdDeviation="2"/>
<feColorMatrix type="matrix" values="0 0 0 0 0 0 0 0 0 0 0 0 0 0 0 0 0 0 0.25 0"/>
<feBlend mode="normal" in2="BackgroundImageFix" result="effect1_dropShadow"/>
<feBlend mode="normal" in="SourceGraphic" in2="effect1_dropShadow" result="shape"/>
</filter>
<filter id="filter1_d" x="0.6875" y="57.0938" width="118.625" height="11" filterUnits="userSpaceOnUse" color-interpolation-filters="sRGB">
<feFlood flood-opacity="0" result="BackgroundImageFix"/>
<feColorMatrix in="SourceAlpha" type="matrix" values="0 0 0 0 0 0 0 0 0 0 0 0 0 0 0 0 0 0 127 0"/>
<feOffset dy="4"/>
<feGaussianBlur stdDeviation="2"/>
<feColorMatrix type="matrix" values="0 0 0 0 0 0 0 0 0 0 0 0 0 0 0 0 0 0 0.25 0"/>
<feBlend mode="normal" in2="BackgroundImageFix" result="effect1_dropShadow"/>
<feBlend mode="normal" in="SourceGraphic" in2="effect1_dropShadow" result="shape"/>
</filter>
<filter id="filter2_d" x="0.6875" y="101.156" width="118.625" height="11" filterUnits="userSpaceOnUse" color-interpolation-filters="sRGB">
<feFlood flood-opacity="0" result="BackgroundImageFix"/>
<feColorMatrix in="SourceAlpha" type="matrix" values="0 0 0 0 0 0 0 0 0 0 0 0 0 0 0 0 0 0 127 0"/>
<feOffset dy="4"/>
<feGaussianBlur stdDeviation="2"/>
<feColorMatrix type="matrix" values="0 0 0 0 0 0 0 0 0 0 0 0 0 0 0 0 0 0 0.25 0"/>
<feBlend mode="normal" in2="BackgroundImageFix" result="effect1_dropShadow"/>
<feBlend mode="normal" in="SourceGraphic" in2="effect1_dropShadow" result="shape"/>
</filter>
<filter id="filter3_di" x="7.1875" y="22.4375" width="105.625" height="86.1251" filterUnits="userSpaceOnUse" color-interpolation-filters="sRGB">
<feFlood flood-opacity="0" result="BackgroundImageFix"/>
<feColorMatrix in="SourceAlpha" type="matrix" values="0 0 0 0 0 0 0 0 0 0 0 0 0 0 0 0 0 0 127 0"/>
<feOffset dy="4"/>
<feGaussianBlur stdDeviation="2"/>
<feColorMatrix type="matrix" values="0 0 0 0 0 0 0 0 0 0 0 0 0 0 0 0 0 0 0.25 0"/>
<feBlend mode="normal" in2="BackgroundImageFix" result="effect1_dropShadow"/>
<feBlend mode="normal" in="SourceGraphic" in2="effect1_dropShadow" result="shape"/>
<feColorMatrix in="SourceAlpha" type="matrix" values="0 0 0 0 0 0 0 0 0 0 0 0 0 0 0 0 0 0 127 0" result="hardAlpha"/>
<feOffset dx="3"/>
<feGaussianBlur stdDeviation="7"/>
<feComposite in2="hardAlpha" operator="arithmetic" k2="-1" k3="1"/>
<feColorMatrix type="matrix" values="0 0 0 0 0.133333 0 0 0 0 0.133333 0 0 0 0 0.133333 0 0 0 0.8 0"/>
<feBlend mode="luminosity" in2="shape" result="effect2_innerShadow"/>
</filter>
</defs>
</svg>
