<svg width="27" height="38" viewBox="0 0 27 38" fill="none" xmlns="http://www.w3.org/2000/svg">
<path d="M1.34375 37V36.7656L2.67969 33.9531H4.85938V24.7656H1.34375V24.5312L2.67969 21.7188H4.85938V8.17188L14.5859 0.671875C17.5391 0.875 19.8125 1.625 21.4062 2.92188C23.3438 4.5 24.3125 6.82031 24.3125 9.88281L19.8594 11.9922H19.625V9.88281C19.625 7.92969 19.1094 6.52344 18.0781 5.66406C17.0625 4.80469 15.8984 4.375 14.5859 4.375C13.1016 4.375 11.8906 4.85156 10.9531 5.80469C10.0156 6.75781 9.54688 8.11719 9.54688 9.88281V21.7188H20.5625V21.9531L19.2266 24.7656H9.54688V33.9531H25.5547V34.1875L24.2188 37H1.34375Z" fill="white"/>
<path d="M1.34375 37H0.84375V37.5H1.34375V37ZM1.34375 36.7656L0.892111 36.5511L0.84375 36.6529V36.7656H1.34375ZM2.67969 33.9531V33.4531H2.36365L2.22805 33.7386L2.67969 33.9531ZM4.85938 33.9531V34.4531H5.35938V33.9531H4.85938ZM4.85938 24.7656H5.35938V24.2656H4.85938V24.7656ZM1.34375 24.7656H0.84375V25.2656H1.34375V24.7656ZM1.34375 24.5312L0.892111 24.3167L0.84375 24.4185V24.5312H1.34375ZM2.67969 21.7188V21.2188H2.36365L2.22805 21.5042L2.67969 21.7188ZM4.85938 21.7188V22.2188H5.35938V21.7188H4.85938ZM4.85938 8.17188L4.55406 7.77592L4.35938 7.92604V8.17188H4.85938ZM14.5859 0.671875L14.6202 0.173054L14.4309 0.160031L14.2806 0.275918L14.5859 0.671875ZM21.4062 2.92188L21.722 2.5342L21.7218 2.53405L21.4062 2.92188ZM24.3125 9.88281L24.5265 10.3347L24.8125 10.1992V9.88281H24.3125ZM19.8594 11.9922V12.4922H19.9718L20.0734 12.4441L19.8594 11.9922ZM19.625 11.9922H19.125V12.4922H19.625V11.9922ZM18.0781 5.66406L17.7551 6.04577L17.758 6.04817L18.0781 5.66406ZM9.54688 21.7188H9.04688V22.2188H9.54688V21.7188ZM20.5625 21.7188H21.0625V21.2188H20.5625V21.7188ZM20.5625 21.9531L21.0141 22.1677L21.0625 22.0658V21.9531H20.5625ZM19.2266 24.7656V25.2656H19.5426L19.6782 24.9802L19.2266 24.7656ZM9.54688 24.7656V24.2656H9.04688V24.7656H9.54688ZM9.54688 33.9531H9.04688V34.4531H9.54688V33.9531ZM25.5547 33.9531H26.0547V33.4531H25.5547V33.9531ZM25.5547 34.1875L26.0063 34.402L26.0547 34.3002V34.1875H25.5547ZM24.2188 37V37.5H24.5348L24.6704 37.2145L24.2188 37ZM1.84375 37V36.7656H0.84375V37H1.84375ZM1.79539 36.9802L3.13133 34.1677L2.22805 33.7386L0.892111 36.5511L1.79539 36.9802ZM2.67969 34.4531H4.85938V33.4531H2.67969V34.4531ZM5.35938 33.9531V24.7656H4.35938V33.9531H5.35938ZM4.85938 24.2656H1.34375V25.2656H4.85938V24.2656ZM1.84375 24.7656V24.5312H0.84375V24.7656H1.84375ZM1.79539 24.7458L3.13133 21.9333L2.22805 21.5042L0.892111 24.3167L1.79539 24.7458ZM2.67969 22.2188H4.85938V21.2188H2.67969V22.2188ZM5.35938 21.7188V8.17188H4.35938V21.7188H5.35938ZM5.16469 8.56783L14.8913 1.06783L14.2806 0.275918L4.55406 7.77592L5.16469 8.56783ZM14.5516 1.1707C17.4453 1.36973 19.6052 2.10093 21.0907 3.3097L21.7218 2.53405C20.0198 1.14907 17.6328 0.380269 14.6202 0.173054L14.5516 1.1707ZM21.0905 3.30955C22.8853 4.77143 23.8125 6.93336 23.8125 9.88281H24.8125C24.8125 6.70727 23.8022 4.22857 21.722 2.5342L21.0905 3.30955ZM24.0985 9.43094L19.6453 11.5403L20.0734 12.4441L24.5265 10.3347L24.0985 9.43094ZM19.8594 11.4922H19.625V12.4922H19.8594V11.4922ZM20.125 11.9922V9.88281H19.125V11.9922H20.125ZM20.125 9.88281C20.125 7.85085 19.5878 6.27131 18.3982 5.27995L17.758 6.04817C18.6309 6.77557 19.125 8.00853 19.125 9.88281H20.125ZM18.4011 5.28237C17.2965 4.34775 16.0185 3.875 14.5859 3.875V4.875C15.7784 4.875 16.8285 5.26163 17.7552 6.04576L18.4011 5.28237ZM14.5859 3.875C12.9838 3.875 11.639 4.39439 10.5967 5.45407L11.3096 6.15531C12.1423 5.30873 13.2194 4.875 14.5859 4.875V3.875ZM10.5967 5.45407C9.54062 6.52772 9.04688 8.0295 9.04688 9.88281H10.0469C10.0469 8.20487 10.4906 6.98791 11.3096 6.15531L10.5967 5.45407ZM9.04688 9.88281V21.7188H10.0469V9.88281H9.04688ZM9.54688 22.2188H20.5625V21.2188H9.54688V22.2188ZM20.0625 21.7188V21.9531H21.0625V21.7188H20.0625ZM20.1109 21.7386L18.7749 24.5511L19.6782 24.9802L21.0141 22.1677L20.1109 21.7386ZM19.2266 24.2656H9.54688V25.2656H19.2266V24.2656ZM9.04688 24.7656V33.9531H10.0469V24.7656H9.04688ZM9.54688 34.4531H25.5547V33.4531H9.54688V34.4531ZM25.0547 33.9531V34.1875H26.0547V33.9531H25.0547ZM25.103 33.973L23.7671 36.7855L24.6704 37.2145L26.0063 34.402L25.103 33.973ZM24.2188 36.5H1.34375V37.5H24.2188V36.5Z" fill="black"/>
</svg>
