<svg width="92" height="39" viewBox="0 0 92 39" fill="none" xmlns="http://www.w3.org/2000/svg">
<path d="M24.6875 10.0703C23.8438 5.88281 22.5156 3.78906 20.7031 3.78906C18.9844 3.85156 17.3359 4.25 15.7578 4.98438C14.1953 5.71875 12.8281 6.67969 11.6562 7.86719C10.4844 9.05469 9.46875 10.3984 8.60938 11.8984C6.84375 14.9453 5.96094 18.3359 5.96094 22.0703C5.96094 25.8047 6.89844 28.7422 8.77344 30.8828C10.6641 33.0078 13.1484 34.0703 16.2266 34.0703C18.6484 34.0703 21.2188 33.4219 23.9375 32.125C26.6562 30.8125 29.3047 28.9141 31.8828 26.4297V29.0312C25.3203 35.2344 19.1719 38.3359 13.4375 38.3359C8.625 38.3359 5.09375 36.25 2.84375 32.0781C1.5625 29.6562 0.921875 26.9141 0.921875 23.8516C0.921875 19.4609 2.13281 15.2188 4.55469 11.125C6.19531 8.32812 8.41406 6.03125 11.2109 4.23438C14.1172 2.35938 17.5156 1.42188 21.4062 1.42188C23.7344 1.42188 25.7188 2.22656 27.3594 3.83594C29 5.44531 29.8203 7.29688 29.8203 9.39062C29.8203 10.2969 29.4688 10.9297 28.7656 11.2891C28.0625 11.6328 26.3281 12.5625 23.5625 14.0781C19.6875 16.2344 17.5938 17.3125 17.2812 17.3125C16.6719 17.3125 16.3672 16.9922 16.3672 16.3516C16.3672 15.5859 17.75 14.6016 20.5156 13.3984C21.5625 12.9453 22.5156 12.4141 23.375 11.8047C24.25 11.1953 24.6875 10.6172 24.6875 10.0703ZM44.75 17.6172C44.75 18.0703 44.5781 18.4062 44.2344 18.625C41.125 18.625 38.75 19.5156 37.1094 21.2969C35.5781 22.9844 34.8125 24.8828 34.8125 26.9922C34.8125 29.0859 35.2734 30.7578 36.1953 32.0078C37.1328 33.2578 38.2734 33.8828 39.6172 33.8828C40.9609 33.8828 42.2578 33.1797 43.5078 31.7734C42.3359 31.0391 41.4297 30.0703 40.7891 28.8672C40.1641 27.6641 39.8516 26.4453 39.8516 25.2109C39.8516 23.9609 40.2266 22.9531 40.9766 22.1875C41.7266 21.4062 42.8125 21.0156 44.2344 21.0156C45.6562 21.0156 46.6875 21.3984 47.3281 22.1641C47.9844 22.9297 48.3125 23.8672 48.3125 24.9766C48.3125 27.2578 47.5859 29.2812 46.1328 31.0469C46.5234 31.2031 46.8594 31.2812 47.1406 31.2812C47.4219 31.2812 47.7109 31.2188 48.0078 31.0938C48.3203 30.9531 48.6719 30.7188 49.0625 30.3906C49.4531 30.0469 49.7969 29.7266 50.0938 29.4297C50.3906 29.1328 50.8203 28.6875 51.3828 28.0938C51.9453 27.5 52.4219 27.0156 52.8125 26.6406V29.2188C51.5156 30.5938 50.4609 31.5703 49.6484 32.1484C48.8516 32.7266 48.0625 33.0156 47.2812 33.0156C46.5156 33.0156 45.8125 32.9062 45.1719 32.6875C43.9688 34.1562 42.5391 35.3594 40.8828 36.2969C39.2422 37.2188 37.5391 37.6797 35.7734 37.6797C33.2422 37.6797 31.4375 36.4844 30.3594 34.0938C29.75 32.75 29.4453 31.2422 29.4453 29.5703C29.4453 25.7734 30.7891 22.7812 33.4766 20.5938C36.1797 18.4062 39.7656 17.3125 44.2344 17.3125C44.5469 17.3125 44.7188 17.4141 44.75 17.6172ZM46.0859 25.4219C46.0859 23.9844 45.4453 23.2656 44.1641 23.2656C42.8984 23.2656 42.2656 24.0234 42.2656 25.5391C42.2656 26.3359 42.4766 27.1641 42.8984 28.0234C43.3359 28.8672 43.9219 29.5391 44.6562 30.0391C44.9688 29.5234 45.2812 28.8125 45.5938 27.9062C45.9219 26.9844 46.0859 26.1562 46.0859 25.4219ZM66.0312 17.6172C66.0312 18.0703 65.8594 18.4062 65.5156 18.625C62.4062 18.625 60.0312 19.5156 58.3906 21.2969C56.8594 22.9844 56.0938 24.8828 56.0938 26.9922C56.0938 29.0859 56.5547 30.7578 57.4766 32.0078C58.4141 33.2578 59.5547 33.8828 60.8984 33.8828C62.2422 33.8828 63.5391 33.1797 64.7891 31.7734C63.6172 31.0391 62.7109 30.0703 62.0703 28.8672C61.4453 27.6641 61.1328 26.4453 61.1328 25.2109C61.1328 23.9609 61.5078 22.9531 62.2578 22.1875C63.0078 21.4062 64.0938 21.0156 65.5156 21.0156C66.9375 21.0156 67.9688 21.3984 68.6094 22.1641C69.2656 22.9297 69.5938 23.8672 69.5938 24.9766C69.5938 27.2578 68.8672 29.2812 67.4141 31.0469C67.8047 31.2031 68.1406 31.2812 68.4219 31.2812C68.7031 31.2812 68.9922 31.2188 69.2891 31.0938C69.6016 30.9531 69.9531 30.7188 70.3438 30.3906C70.7344 30.0469 71.0781 29.7266 71.375 29.4297C71.6719 29.1328 72.1016 28.6875 72.6641 28.0938C73.2266 27.5 73.7031 27.0156 74.0938 26.6406V29.2188C72.7969 30.5938 71.7422 31.5703 70.9297 32.1484C70.1328 32.7266 69.3438 33.0156 68.5625 33.0156C67.7969 33.0156 67.0938 32.9062 66.4531 32.6875C65.25 34.1562 63.8203 35.3594 62.1641 36.2969C60.5234 37.2188 58.8203 37.6797 57.0547 37.6797C54.5234 37.6797 52.7188 36.4844 51.6406 34.0938C51.0312 32.75 50.7266 31.2422 50.7266 29.5703C50.7266 25.7734 52.0703 22.7812 54.7578 20.5938C57.4609 18.4062 61.0469 17.3125 65.5156 17.3125C65.8281 17.3125 66 17.4141 66.0312 17.6172ZM67.3672 25.4219C67.3672 23.9844 66.7266 23.2656 65.4453 23.2656C64.1797 23.2656 63.5469 24.0234 63.5469 25.5391C63.5469 26.3359 63.7578 27.1641 64.1797 28.0234C64.6172 28.8672 65.2031 29.5391 65.9375 30.0391C66.25 29.5234 66.5625 28.8125 66.875 27.9062C67.2031 26.9844 67.3672 26.1562 67.3672 25.4219ZM87.1719 3.78906C86.0781 3.78906 85.0078 5.3125 83.9609 8.35938C82.9297 11.4062 81.7422 16.125 80.3984 22.5156C81.5703 21.3125 82.6719 19.8672 83.7031 18.1797C84.7344 16.4766 85.5625 14.8281 86.1875 13.2344C87.5156 9.875 88.1797 7.46094 88.1797 5.99219C88.1797 4.52344 87.8438 3.78906 87.1719 3.78906ZM75.5 37.6797C74.9531 37.6797 74.5781 37.5391 74.375 37.2578C74.1719 36.9766 74.0156 36.7422 73.9062 36.5547C73.7969 36.3516 73.7109 36.0859 73.6484 35.7578C73.5859 35.4297 73.5312 35.1484 73.4844 34.9141C73.4531 34.6797 73.4297 34.3672 73.4141 33.9766C73.3984 33.5703 73.3906 33.2656 73.3906 33.0625V32.1484C73.3906 29.1328 73.8047 25.7969 74.6328 22.1406C75.4766 18.4844 76.5469 15.1094 77.8438 12.0156C79.1562 8.92188 80.6875 6.32812 82.4375 4.23438C84.1875 2.14063 85.8906 1.09375 87.5469 1.09375C88.5625 1.09375 89.3594 1.44531 89.9375 2.14844C90.5312 2.83594 90.8281 3.86719 90.8281 5.24219C90.8281 6.60156 90.6172 8.13281 90.1953 9.83594C89.7891 11.5234 89.2578 13.0781 88.6016 14.5C87.9453 15.9062 87.2188 17.2812 86.4219 18.625C85.625 19.9531 84.8281 21.125 84.0312 22.1406C82.4062 24.2031 81.1406 25.6562 80.2344 26.5L79.625 27.1094C78.7031 29.5469 78.2422 31.3516 78.2422 32.5234C78.2422 33.6797 78.5156 34.2578 79.0625 34.2578C79.4531 34.2578 80.5234 33.3984 82.2734 31.6797C84.0234 29.9609 85.625 28.2969 87.0781 26.6875V29.3125C84.3906 32.2031 82.1641 34.2969 80.3984 35.5938C78.6484 36.875 77.0156 37.5703 75.5 37.6797Z" fill="white"/>
<path d="M24.6875 10.0703H25.1875V10.0204L25.1776 9.97155L24.6875 10.0703ZM20.7031 3.78906V3.28906H20.694L20.685 3.28939L20.7031 3.78906ZM15.7578 4.98438L15.5469 4.53105L15.5451 4.53186L15.7578 4.98438ZM8.60938 11.8984L9.04199 12.1491L9.04322 12.147L8.60938 11.8984ZM8.77344 30.8828L8.39731 31.2123L8.39988 31.2152L8.77344 30.8828ZM23.9375 32.125L24.1528 32.5763L24.1549 32.5753L23.9375 32.125ZM31.8828 26.4297H32.3828V25.2535L31.5359 26.0696L31.8828 26.4297ZM31.8828 29.0312L32.2263 29.3946L32.3828 29.2466V29.0312H31.8828ZM2.84375 32.0781L2.40177 32.3119L2.40367 32.3155L2.84375 32.0781ZM4.55469 11.125L4.98502 11.3796L4.98596 11.378L4.55469 11.125ZM11.2109 4.23438L11.4812 4.65504L11.482 4.65452L11.2109 4.23438ZM28.7656 11.2891L28.9853 11.7383L28.9932 11.7343L28.7656 11.2891ZM23.5625 14.0781L23.3222 13.6396L23.3194 13.6412L23.5625 14.0781ZM20.5156 13.3984L20.317 12.9396L20.3162 12.9399L20.5156 13.3984ZM23.375 11.8047L23.0892 11.3944L23.0858 11.3968L23.375 11.8047ZM25.1776 9.97155C24.7511 7.85475 24.1932 6.21454 23.4808 5.09155C22.7624 3.95904 21.8403 3.28906 20.7031 3.28906V4.28906C21.3784 4.28906 22.0266 4.66596 22.6364 5.6272C23.2522 6.59796 23.7801 8.09838 24.1974 10.1691L25.1776 9.97155ZM20.685 3.28939C18.8987 3.35435 17.1848 3.76886 15.5469 4.53105L15.9688 5.4377C17.4871 4.73114 19.0701 4.34878 20.7213 4.28873L20.685 3.28939ZM15.5451 4.53186C13.9312 5.29042 12.5151 6.28508 11.3004 7.51598L12.0121 8.21839C13.1412 7.07429 14.4594 6.14708 15.9705 5.43689L15.5451 4.53186ZM11.3004 7.51598C10.0971 8.73529 9.05558 10.1138 8.17553 11.6499L9.04322 12.147C9.88192 10.6831 10.8716 9.37409 12.0121 8.21839L11.3004 7.51598ZM8.17676 11.6477C6.36431 14.7754 5.46094 18.2534 5.46094 22.0703H6.46094C6.46094 18.4185 7.32319 15.1152 9.04199 12.1491L8.17676 11.6477ZM5.46094 22.0703C5.46094 25.8873 6.42026 28.9551 8.39732 31.2123L9.14956 30.5534C7.37661 28.5293 6.46094 25.7221 6.46094 22.0703H5.46094ZM8.39988 31.2152C10.3938 33.4563 13.0189 34.5703 16.2266 34.5703V33.5703C13.278 33.5703 10.9343 32.5593 9.14699 30.5505L8.39988 31.2152ZM16.2266 34.5703C18.7388 34.5703 21.3828 33.8976 24.1528 32.5763L23.7222 31.6737C21.0547 32.9461 18.5581 33.5703 16.2266 33.5703V34.5703ZM24.1549 32.5753C26.9292 31.2359 29.6204 29.3042 32.2298 26.7897L31.5359 26.0696C28.989 28.5239 26.3833 30.3891 23.7201 31.6747L24.1549 32.5753ZM31.3828 26.4297V29.0312H32.3828V26.4297H31.3828ZM31.5393 28.6679C25.0184 34.8317 18.9877 37.8359 13.4375 37.8359V38.8359C19.356 38.8359 25.6222 35.637 32.2263 29.3946L31.5393 28.6679ZM13.4375 37.8359C11.105 37.8359 9.11014 37.3311 7.43399 36.341C5.75825 35.3511 4.37247 33.8593 3.28383 31.8408L2.40367 32.3155C3.56503 34.4688 5.06988 36.1059 6.92539 37.202C8.78049 38.2978 10.9575 38.8359 13.4375 38.8359V37.8359ZM3.28571 31.8443C2.04689 29.5026 1.42188 26.8423 1.42188 23.8516H0.421875C0.421875 26.9858 1.07811 29.8099 2.40179 32.3119L3.28571 31.8443ZM1.42188 23.8516C1.42188 19.5579 2.60482 15.4029 4.98502 11.3796L4.12436 10.8704C1.6608 15.0346 0.421875 19.364 0.421875 23.8516H1.42188ZM4.98596 11.378C6.58581 8.65063 8.7487 6.41056 11.4812 4.65504L10.9407 3.81371C8.07943 5.65194 5.80481 8.00562 4.12341 10.872L4.98596 11.378ZM11.482 4.65452C14.2976 2.83798 17.5994 1.92188 21.4062 1.92188V0.921875C17.4319 0.921875 13.9367 1.88077 10.9399 3.81423L11.482 4.65452ZM21.4062 1.92188C23.6053 1.92188 25.4634 2.67652 27.0092 4.19287L27.7095 3.479C25.9741 1.7766 23.8634 0.921875 21.4062 0.921875V1.92188ZM27.0092 4.19287C28.5643 5.71834 29.3203 7.44495 29.3203 9.39062H30.3203C30.3203 7.1488 29.4357 5.17228 27.7095 3.479L27.0092 4.19287ZM29.3203 9.39062C29.3203 9.77985 29.2449 10.0764 29.1196 10.3021C28.9964 10.5239 28.8096 10.705 28.5381 10.8438L28.9932 11.7343C29.4247 11.5137 29.7654 11.1988 29.9937 10.7877C30.2199 10.3806 30.3203 9.90765 30.3203 9.39062H29.3203ZM28.546 10.8399C27.83 11.1899 26.084 12.1261 23.3222 13.6397L23.8028 14.5166C26.5723 12.9989 28.295 12.0757 28.9852 11.7383L28.546 10.8399ZM23.3194 13.6412C21.3833 14.7186 19.8967 15.5241 18.857 16.0594C18.3365 16.3274 17.9337 16.5248 17.6452 16.6541C17.5003 16.719 17.3913 16.7635 17.3144 16.7909C17.2145 16.8264 17.2232 16.8125 17.2812 16.8125V17.8125C17.4174 17.8125 17.5599 17.7649 17.6495 17.7331C17.762 17.693 17.8981 17.6365 18.0541 17.5666C18.3671 17.4264 18.7885 17.2194 19.3148 16.9484C20.369 16.4056 21.8667 15.5939 23.8056 14.515L23.3194 13.6412ZM17.2812 16.8125C17.0602 16.8125 16.9846 16.7556 16.958 16.7277C16.9269 16.695 16.8672 16.6009 16.8672 16.3516H15.8672C15.8672 16.7429 15.9598 17.1292 16.2334 17.4169C16.5115 17.7092 16.8929 17.8125 17.2812 17.8125V16.8125ZM16.8672 16.3516C16.8672 16.3139 16.8849 16.2158 17.0188 16.0463C17.1512 15.8787 17.3692 15.6778 17.6943 15.4464C18.3436 14.9841 19.3437 14.4535 20.7151 13.8569L20.3162 12.9399C18.922 13.5465 17.8478 14.1096 17.1143 14.6317C16.748 14.8925 16.4474 15.1565 16.2342 15.4263C16.0224 15.6944 15.8672 16.0064 15.8672 16.3516H16.8672ZM20.7142 13.8573C21.7904 13.3915 22.7743 12.8436 23.6642 12.2126L23.0858 11.3968C22.257 11.9845 21.3346 12.4991 20.317 12.9396L20.7142 13.8573ZM23.6607 12.215C24.5513 11.5948 25.1875 10.8855 25.1875 10.0703H24.1875C24.1875 10.3488 23.9487 10.7958 23.0893 11.3944L23.6607 12.215ZM44.75 17.6172H45.25V17.579L45.2442 17.5412L44.75 17.6172ZM44.2344 18.625V19.125H44.38L44.5028 19.0468L44.2344 18.625ZM37.1094 21.2969L36.7416 20.9581L36.7391 20.9609L37.1094 21.2969ZM36.1953 32.0078L35.7929 32.3046L35.7953 32.3078L36.1953 32.0078ZM43.5078 31.7734L43.8815 32.1056L44.2743 31.6637L43.7733 31.3498L43.5078 31.7734ZM40.7891 28.8672L40.3453 29.0977L40.3477 29.1022L40.7891 28.8672ZM40.9766 22.1875L41.3338 22.5374L41.3373 22.5338L40.9766 22.1875ZM47.3281 22.1641L46.9446 22.4849L46.9485 22.4895L47.3281 22.1641ZM46.1328 31.0469L45.7467 30.7291L45.3122 31.2571L45.9471 31.5111L46.1328 31.0469ZM48.0078 31.0938L48.2019 31.5547L48.213 31.5497L48.0078 31.0938ZM49.0625 30.3906L49.3842 30.7736L49.3928 30.766L49.0625 30.3906ZM52.8125 26.6406H53.3125V25.4675L52.4662 26.2799L52.8125 26.6406ZM52.8125 29.2188L53.1762 29.5618L53.3125 29.4173V29.2188H52.8125ZM49.6484 32.1484L49.3585 31.741L49.3548 31.7437L49.6484 32.1484ZM45.1719 32.6875L45.3334 32.2143L45.005 32.1022L44.7851 32.3707L45.1719 32.6875ZM40.8828 36.2969L41.1277 36.7328L41.1291 36.732L40.8828 36.2969ZM30.3594 34.0938L30.8152 33.8882L30.8147 33.8872L30.3594 34.0938ZM33.4766 20.5938L33.162 20.2051L33.1609 20.206L33.4766 20.5938ZM42.8984 28.0234L42.4495 28.2438L42.4546 28.2536L42.8984 28.0234ZM44.6562 30.0391L44.3749 30.4524L44.8106 30.749L45.0838 30.2982L44.6562 30.0391ZM45.5938 27.9062L45.1227 27.7386L45.1211 27.7433L45.5938 27.9062ZM44.25 17.6172C44.25 17.9221 44.1473 18.0878 43.9659 18.2032L44.5028 19.0468C45.009 18.7247 45.25 18.2185 45.25 17.6172H44.25ZM44.2344 18.125C41.0273 18.125 38.5021 19.0468 36.7416 20.9581L37.4771 21.6356C38.9979 19.9845 41.2227 19.125 44.2344 19.125V18.125ZM36.7391 20.9609C35.1317 22.7323 34.3125 24.7481 34.3125 26.9922H35.3125C35.3125 25.0175 36.0246 23.2364 37.4797 21.6329L36.7391 20.9609ZM34.3125 26.9922C34.3125 29.156 34.7889 30.9432 35.7929 32.3046L36.5977 31.711C35.758 30.5725 35.3125 29.0158 35.3125 26.9922H34.3125ZM35.7953 32.3078C36.8098 33.6604 38.0891 34.3828 39.6172 34.3828V33.3828C38.4578 33.3828 37.4558 32.8552 36.5953 31.7078L35.7953 32.3078ZM39.6172 34.3828C41.1538 34.3828 42.5759 33.5744 43.8815 32.1056L43.1341 31.4413C41.9397 32.7849 40.7681 33.3828 39.6172 33.3828V34.3828ZM43.7733 31.3498C42.6744 30.6611 41.8293 29.757 41.2304 28.6322L40.3477 29.1022C41.0301 30.3837 41.9975 31.417 43.2423 32.1971L43.7733 31.3498ZM41.2328 28.6367C40.641 27.4976 40.3516 26.3574 40.3516 25.2109H39.3516C39.3516 26.5332 39.6871 27.8305 40.3454 29.0977L41.2328 28.6367ZM40.3516 25.2109C40.3516 24.0683 40.6905 23.1941 41.3337 22.5374L40.6194 21.8376C39.7627 22.7122 39.3516 23.8535 39.3516 25.2109H40.3516ZM41.3373 22.5338C41.966 21.8788 42.9041 21.5156 44.2344 21.5156V20.5156C42.7209 20.5156 41.4871 20.9337 40.6159 21.8412L41.3373 22.5338ZM44.2344 21.5156C45.5734 21.5156 46.4341 21.8748 46.9447 22.4849L47.7116 21.8432C46.9409 20.9221 45.7391 20.5156 44.2344 20.5156V21.5156ZM46.9485 22.4895C47.5191 23.1552 47.8125 23.9737 47.8125 24.9766H48.8125C48.8125 23.7607 48.4496 22.7042 47.7078 21.8387L46.9485 22.4895ZM47.8125 24.9766C47.8125 27.1416 47.1264 29.0528 45.7467 30.7291L46.5189 31.3646C48.0455 29.5097 48.8125 27.374 48.8125 24.9766H47.8125ZM45.9471 31.5111C46.3703 31.6804 46.7724 31.7812 47.1406 31.7812V30.7812C46.9464 30.7812 46.6766 30.7259 46.3185 30.5826L45.9471 31.5111ZM47.1406 31.7812C47.4975 31.7812 47.8524 31.7017 48.2018 31.5546L47.8138 30.6329C47.5695 30.7358 47.3462 30.7812 47.1406 30.7812V31.7812ZM48.213 31.5497C48.5826 31.3834 48.9736 31.1183 49.3841 30.7735L48.7409 30.0078C48.3701 30.3192 48.0581 30.5228 47.8026 30.6378L48.213 31.5497ZM49.3928 30.766C49.7896 30.4168 50.1414 30.0892 50.4473 29.7832L49.7402 29.0761C49.4524 29.364 49.1166 29.677 48.7322 30.0153L49.3928 30.766ZM50.4473 29.7832C50.7491 29.4815 51.1825 29.0322 51.7458 28.4376L51.0198 27.7499C50.4581 28.3428 50.0322 28.7842 49.7402 29.0761L50.4473 29.7832ZM51.7458 28.4376C52.3053 27.847 52.7759 27.3688 53.1588 27.0013L52.4662 26.2799C52.0678 26.6624 51.5853 27.153 51.0198 27.7499L51.7458 28.4376ZM52.3125 26.6406V29.2188H53.3125V26.6406H52.3125ZM52.4488 28.8757C51.1582 30.244 50.1304 31.1919 49.3586 31.741L49.9383 32.5558C50.7915 31.9487 51.8731 30.9435 53.1762 29.5618L52.4488 28.8757ZM49.3548 31.7437C48.6209 32.2762 47.9324 32.5156 47.2812 32.5156V33.5156C48.1926 33.5156 49.0822 33.177 49.9421 32.5531L49.3548 31.7437ZM47.2812 32.5156C46.5635 32.5156 45.9157 32.4132 45.3334 32.2143L45.0103 33.1607C45.7093 33.3993 46.4678 33.5156 47.2812 33.5156V32.5156ZM44.7851 32.3707C43.6212 33.7915 42.2392 34.9546 40.6365 35.8617L41.1291 36.732C42.839 35.7642 44.3163 34.521 45.5587 33.0043L44.7851 32.3707ZM40.6379 35.861C39.067 36.7437 37.4476 37.1797 35.7734 37.1797V38.1797C37.6305 38.1797 39.4174 37.6938 41.1277 36.7328L40.6379 35.861ZM35.7734 37.1797C34.589 37.1797 33.6049 36.9011 32.7976 36.3663C31.9891 35.8308 31.3237 35.0158 30.8152 33.8882L29.9036 34.2993C30.4732 35.5623 31.2492 36.5403 32.2454 37.2001C33.2427 37.8606 34.4266 38.1797 35.7734 38.1797V37.1797ZM30.8147 33.8872C30.2385 32.6165 29.9453 31.1804 29.9453 29.5703H28.9453C28.9453 31.3039 29.2615 32.8835 29.904 34.3003L30.8147 33.8872ZM29.9453 29.5703C29.9453 25.9075 31.2335 23.0642 33.7922 20.9815L33.1609 20.206C30.3446 22.4983 28.9453 25.6394 28.9453 29.5703H29.9453ZM33.7911 20.9824C36.3825 18.8854 39.847 17.8125 44.2344 17.8125V16.8125C39.6843 16.8125 35.9769 17.9271 33.162 20.2051L33.7911 20.9824ZM44.2344 17.8125C44.2866 17.8125 44.3204 17.8168 44.3398 17.8209C44.3591 17.825 44.3571 17.8273 44.3433 17.8191C44.3275 17.8098 44.3041 17.7912 44.2842 17.7612C44.2645 17.7317 44.2577 17.7056 44.2558 17.6932L45.2442 17.5412C45.2065 17.2965 45.0713 17.0878 44.852 16.9582C44.6572 16.8431 44.434 16.8125 44.2344 16.8125V17.8125ZM46.5859 25.4219C46.5859 24.6393 46.4128 23.959 45.9787 23.472C45.5349 22.974 44.8976 22.7656 44.1641 22.7656V23.7656C44.7118 23.7656 45.0354 23.9166 45.2322 24.1374C45.4387 24.3691 45.5859 24.7669 45.5859 25.4219H46.5859ZM44.1641 22.7656C43.4281 22.7656 42.7934 22.9903 42.3564 23.5135C41.9339 24.0195 41.7656 24.7239 41.7656 25.5391H42.7656C42.7656 24.8386 42.9137 24.4063 43.124 24.1545C43.3199 23.9199 43.6344 23.7656 44.1641 23.7656V22.7656ZM41.7656 25.5391C41.7656 26.4262 42.0008 27.3295 42.4496 28.2438L43.3473 27.8031C42.9524 26.9987 42.7656 26.2457 42.7656 25.5391H41.7656ZM42.4546 28.2536C42.9275 29.1656 43.5672 29.9025 44.3749 30.4524L44.9376 29.6258C44.2765 29.1756 43.7444 28.5687 43.3423 27.7933L42.4546 28.2536ZM45.0838 30.2982C45.4222 29.7399 45.7483 28.9919 46.0664 28.0692L45.1211 27.7433C44.8142 28.6331 44.5153 29.307 44.2287 29.7799L45.0838 30.2982ZM46.0648 28.0739C46.4061 27.115 46.5859 26.2288 46.5859 25.4219H45.5859C45.5859 26.0837 45.4376 26.8537 45.1227 27.7386L46.0648 28.0739ZM66.0312 17.6172H66.5312V17.579L66.5254 17.5412L66.0312 17.6172ZM65.5156 18.625V19.125H65.6612L65.7841 19.0468L65.5156 18.625ZM58.3906 21.2969L58.0228 20.9581L58.0203 20.9609L58.3906 21.2969ZM57.4766 32.0078L57.0741 32.3046L57.0766 32.3078L57.4766 32.0078ZM64.7891 31.7734L65.1628 32.1056L65.5556 31.6637L65.0546 31.3498L64.7891 31.7734ZM62.0703 28.8672L61.6266 29.0977L61.629 29.1022L62.0703 28.8672ZM62.2578 22.1875L62.615 22.5374L62.6185 22.5338L62.2578 22.1875ZM68.6094 22.1641L68.2259 22.4849L68.2297 22.4895L68.6094 22.1641ZM67.4141 31.0469L67.028 30.7291L66.5934 31.2571L67.2284 31.5111L67.4141 31.0469ZM69.2891 31.0938L69.4831 31.5547L69.4942 31.5497L69.2891 31.0938ZM70.3438 30.3906L70.6654 30.7736L70.6741 30.766L70.3438 30.3906ZM74.0938 26.6406H74.5938V25.4675L73.7475 26.2799L74.0938 26.6406ZM74.0938 29.2188L74.4575 29.5618L74.5938 29.4173V29.2188H74.0938ZM70.9297 32.1484L70.6398 31.741L70.6361 31.7437L70.9297 32.1484ZM66.4531 32.6875L66.6147 32.2143L66.2863 32.1022L66.0663 32.3707L66.4531 32.6875ZM62.1641 36.2969L62.409 36.7328L62.4104 36.732L62.1641 36.2969ZM51.6406 34.0938L52.0964 33.8882L52.096 33.8872L51.6406 34.0938ZM54.7578 20.5938L54.4433 20.2051L54.4422 20.206L54.7578 20.5938ZM64.1797 28.0234L63.7307 28.2438L63.7358 28.2536L64.1797 28.0234ZM65.9375 30.0391L65.6561 30.4524L66.0919 30.749L66.3651 30.2982L65.9375 30.0391ZM66.875 27.9062L66.4039 27.7386L66.4023 27.7433L66.875 27.9062ZM65.5312 17.6172C65.5312 17.9221 65.4285 18.0878 65.2472 18.2032L65.7841 19.0468C66.2902 18.7247 66.5312 18.2185 66.5312 17.6172H65.5312ZM65.5156 18.125C62.3086 18.125 59.7833 19.0468 58.0229 20.9581L58.7584 21.6356C60.2792 19.9845 62.5039 19.125 65.5156 19.125V18.125ZM58.0203 20.9609C56.4129 22.7323 55.5938 24.7481 55.5938 26.9922H56.5938C56.5938 25.0175 57.3058 23.2364 58.7609 21.6329L58.0203 20.9609ZM55.5938 26.9922C55.5938 29.156 56.0701 30.9432 57.0742 32.3046L57.879 31.711C57.0393 30.5725 56.5938 29.0158 56.5938 26.9922H55.5938ZM57.0766 32.3078C58.091 33.6604 59.3703 34.3828 60.8984 34.3828V33.3828C59.739 33.3828 58.7371 32.8552 57.8766 31.7078L57.0766 32.3078ZM60.8984 34.3828C62.435 34.3828 63.8572 33.5744 65.1628 32.1056L64.4154 31.4413C63.221 32.7849 62.0493 33.3828 60.8984 33.3828V34.3828ZM65.0546 31.3498C63.9557 30.6611 63.1105 29.757 62.5116 28.6322L61.629 29.1022C62.3113 30.3837 63.2787 31.417 64.5236 32.1971L65.0546 31.3498ZM62.514 28.6367C61.9223 27.4976 61.6328 26.3574 61.6328 25.2109H60.6328C60.6328 26.5332 60.9683 27.8305 61.6266 29.0977L62.514 28.6367ZM61.6328 25.2109C61.6328 24.0683 61.9717 23.1941 62.615 22.5374L61.9006 21.8376C61.0439 22.7122 60.6328 23.8535 60.6328 25.2109H61.6328ZM62.6185 22.5338C63.2473 21.8788 64.1854 21.5156 65.5156 21.5156V20.5156C64.0021 20.5156 62.7683 20.9337 61.8971 21.8412L62.6185 22.5338ZM65.5156 21.5156C66.8547 21.5156 67.7154 21.8748 68.2259 22.4849L68.9928 21.8432C68.2221 20.9221 67.0203 20.5156 65.5156 20.5156V21.5156ZM68.2297 22.4895C68.8004 23.1552 69.0938 23.9737 69.0938 24.9766H70.0938C70.0938 23.7607 69.7309 22.7042 68.989 21.8387L68.2297 22.4895ZM69.0938 24.9766C69.0938 27.1416 68.4077 29.0528 67.028 30.7291L67.8001 31.3646C69.3267 29.5097 70.0938 27.374 70.0938 24.9766H69.0938ZM67.2284 31.5111C67.6516 31.6804 68.0536 31.7812 68.4219 31.7812V30.7812C68.2276 30.7812 67.9578 30.7259 67.5998 30.5826L67.2284 31.5111ZM68.4219 31.7812C68.7788 31.7812 69.1337 31.7017 69.4831 31.5546L69.095 30.6329C68.8507 30.7358 68.6275 30.7812 68.4219 30.7812V31.7812ZM69.4942 31.5497C69.8638 31.3834 70.2549 31.1183 70.6653 30.7735L70.0222 30.0078C69.6514 30.3192 69.3393 30.5228 69.0839 30.6378L69.4942 31.5497ZM70.6741 30.766C71.0709 30.4168 71.4226 30.0892 71.7286 29.7832L71.0214 29.0761C70.7336 29.364 70.3979 29.677 70.0134 30.0153L70.6741 30.766ZM71.7286 29.7832C72.0303 29.4815 72.4638 29.0322 73.027 28.4376L72.3011 27.7499C71.7394 28.3428 71.3134 28.7842 71.0214 29.0761L71.7286 29.7832ZM73.027 28.4376C73.5865 27.847 74.0572 27.3688 74.44 27.0013L73.7475 26.2799C73.3491 26.6624 72.8666 27.153 72.3011 27.7499L73.027 28.4376ZM73.5938 26.6406V29.2188H74.5938V26.6406H73.5938ZM73.73 28.8757C72.4394 30.244 71.4116 31.1919 70.6398 31.741L71.2196 32.5558C72.0728 31.9487 73.1543 30.9435 74.4575 29.5618L73.73 28.8757ZM70.6361 31.7437C69.9022 32.2762 69.2136 32.5156 68.5625 32.5156V33.5156C69.4739 33.5156 70.3635 33.177 71.2233 32.5531L70.6361 31.7437ZM68.5625 32.5156C67.8447 32.5156 67.197 32.4132 66.6147 32.2143L66.2916 33.1607C66.9905 33.3993 67.749 33.5156 68.5625 33.5156V32.5156ZM66.0663 32.3707C64.9024 33.7915 63.5204 34.9546 61.9178 35.8617L62.4104 36.732C64.1202 35.7642 65.5976 34.521 66.8399 33.0043L66.0663 32.3707ZM61.9191 35.861C60.3482 36.7437 58.7289 37.1797 57.0547 37.1797V38.1797C58.9118 38.1797 60.6987 37.6938 62.409 36.7328L61.9191 35.861ZM57.0547 37.1797C55.8703 37.1797 54.8862 36.9011 54.0788 36.3663C53.2703 35.8308 52.605 35.0158 52.0964 33.8882L51.1848 34.2993C51.7544 35.5623 52.5305 36.5403 53.5266 37.2001C54.524 37.8606 55.7079 38.1797 57.0547 38.1797V37.1797ZM52.096 33.8872C51.5197 32.6165 51.2266 31.1804 51.2266 29.5703H50.2266C50.2266 31.3039 50.5428 32.8835 51.1853 34.3003L52.096 33.8872ZM51.2266 29.5703C51.2266 25.9075 52.5147 23.0642 55.0734 20.9815L54.4422 20.206C51.6259 22.4983 50.2266 25.6394 50.2266 29.5703H51.2266ZM55.0723 20.9824C57.6637 18.8854 61.1282 17.8125 65.5156 17.8125V16.8125C60.9655 16.8125 57.2581 17.9271 54.4433 20.2051L55.0723 20.9824ZM65.5156 17.8125C65.5678 17.8125 65.6017 17.8168 65.621 17.8209C65.6404 17.825 65.6383 17.8273 65.6245 17.8191C65.6087 17.8098 65.5854 17.7912 65.5654 17.7612C65.5457 17.7317 65.539 17.7056 65.5371 17.6932L66.5254 17.5412C66.4878 17.2965 66.3526 17.0878 66.1333 16.9582C65.9385 16.8431 65.7152 16.8125 65.5156 16.8125V17.8125ZM67.8672 25.4219C67.8672 24.6393 67.6941 23.959 67.26 23.472C66.8161 22.974 66.1789 22.7656 65.4453 22.7656V23.7656C65.993 23.7656 66.3167 23.9166 66.5135 24.1374C66.72 24.3691 66.8672 24.7669 66.8672 25.4219H67.8672ZM65.4453 22.7656C64.7094 22.7656 64.0746 22.9903 63.6377 23.5135C63.2152 24.0195 63.0469 24.7239 63.0469 25.5391H64.0469C64.0469 24.8386 64.195 24.4063 64.4053 24.1545C64.6011 23.9199 64.9156 23.7656 65.4453 23.7656V22.7656ZM63.0469 25.5391C63.0469 26.4262 63.282 27.3295 63.7309 28.2438L64.6285 27.8031C64.2336 26.9987 64.0469 26.2457 64.0469 25.5391H63.0469ZM63.7358 28.2536C64.2087 29.1656 64.8485 29.9025 65.6561 30.4524L66.2189 29.6258C65.5578 29.1756 65.0257 28.5687 64.6236 27.7933L63.7358 28.2536ZM66.3651 30.2982C66.7035 29.7399 67.0295 28.9919 67.3477 28.0692L66.4023 27.7433C66.0955 28.6331 65.7965 29.307 65.5099 29.7799L66.3651 30.2982ZM67.3461 28.0739C67.6874 27.115 67.8672 26.2288 67.8672 25.4219H66.8672C66.8672 26.0837 66.7189 26.8537 66.4039 27.7386L67.3461 28.0739ZM83.9609 8.35938L83.4881 8.1969L83.4873 8.19908L83.9609 8.35938ZM80.3984 22.5156L79.9091 22.4127L79.5547 24.0985L80.7566 22.8645L80.3984 22.5156ZM83.7031 18.1797L84.1298 18.4404L84.1308 18.4387L83.7031 18.1797ZM86.1875 13.2344L85.7225 13.0505L85.722 13.0518L86.1875 13.2344ZM75.5 37.6797V38.1797H75.518L75.536 38.1784L75.5 37.6797ZM73.9062 36.5547L73.466 36.7917L73.4701 36.7993L73.4744 36.8066L73.9062 36.5547ZM73.4844 34.9141L72.9888 34.9801L72.9909 34.9962L72.9941 35.0121L73.4844 34.9141ZM73.4141 33.9766L72.9144 33.9958L72.9145 33.9965L73.4141 33.9766ZM74.6328 22.1406L74.1456 22.0282L74.1452 22.0302L74.6328 22.1406ZM77.8438 12.0156L77.3835 11.8203L77.3826 11.8223L77.8438 12.0156ZM89.9375 2.14844L89.5512 2.46608L89.5591 2.47525L89.9375 2.14844ZM90.1953 9.83594L89.71 9.71572L89.7092 9.71891L90.1953 9.83594ZM88.6016 14.5L89.0547 14.7114L89.0555 14.7095L88.6016 14.5ZM86.4219 18.625L86.8506 18.8823L86.8519 18.88L86.4219 18.625ZM84.0312 22.1406L84.424 22.4501L84.4246 22.4493L84.0312 22.1406ZM80.2344 26.5L79.8937 26.1341L79.8871 26.1401L79.8808 26.1464L80.2344 26.5ZM79.625 27.1094L79.2714 26.7558L79.1954 26.8319L79.1573 26.9325L79.625 27.1094ZM87.0781 26.6875H87.5781V25.3876L86.707 26.3524L87.0781 26.6875ZM87.0781 29.3125L87.4443 29.653L87.5781 29.509V29.3125H87.0781ZM80.3984 35.5938L80.6938 35.9972L80.6944 35.9967L80.3984 35.5938ZM87.1719 3.28906C86.3746 3.28906 85.7032 3.84213 85.1397 4.64421C84.5648 5.46245 84.0174 6.65636 83.4881 8.1969L84.4338 8.52185C84.9514 7.01551 85.4625 5.92427 85.958 5.21908C86.4648 4.49771 86.8754 4.28906 87.1719 4.28906V3.28906ZM83.4873 8.19908C82.4461 11.2754 81.2537 16.0182 79.9091 22.4127L80.8877 22.6185C82.2307 16.2318 83.4133 11.5371 84.4345 8.51967L83.4873 8.19908ZM80.7566 22.8645C81.9586 21.6304 83.0824 20.1543 84.1298 18.4404L83.2765 17.919C82.2614 19.5801 81.182 20.9946 80.0403 22.1668L80.7566 22.8645ZM84.1308 18.4387C85.1745 16.715 86.0161 15.041 86.653 13.4169L85.722 13.0518C85.1089 14.6152 84.2942 16.2381 83.2754 17.9207L84.1308 18.4387ZM86.6525 13.4182C87.9795 10.0615 88.6797 7.56679 88.6797 5.99219H87.6797C87.6797 7.35509 87.0517 9.68849 85.7225 13.0505L86.6525 13.4182ZM88.6797 5.99219C88.6797 5.23538 88.5956 4.59781 88.3824 4.13185C88.273 3.89267 88.1201 3.67777 87.9073 3.52266C87.689 3.36361 87.437 3.28906 87.1719 3.28906V4.28906C87.2427 4.28906 87.2847 4.30631 87.3183 4.33085C87.3574 4.35934 87.4145 4.41983 87.473 4.54784C87.5958 4.81625 87.6797 5.28025 87.6797 5.99219H88.6797ZM75.5 37.1797C75.0191 37.1797 74.8452 37.0549 74.7803 36.9651L73.9697 37.5506C74.3111 38.0233 74.8871 38.1797 75.5 38.1797V37.1797ZM74.7803 36.9651C74.5818 36.6902 74.436 36.4705 74.3381 36.3028L73.4744 36.8066C73.5953 37.0139 73.7619 37.2629 73.9697 37.5506L74.7803 36.9651ZM74.3465 36.3176C74.2695 36.1747 74.1964 35.9626 74.1396 35.6643L73.1573 35.8514C73.2254 36.2093 73.3242 36.5285 73.466 36.7917L74.3465 36.3176ZM74.1396 35.6643C74.0769 35.3352 74.0219 35.0523 73.9747 34.816L72.9941 35.0121C73.0406 35.2445 73.095 35.5242 73.1573 35.8514L74.1396 35.6643ZM73.98 34.848C73.9517 34.6355 73.929 34.3403 73.9137 33.9566L72.9145 33.9965C72.9304 34.394 72.9546 34.7239 72.9888 34.9801L73.98 34.848ZM73.9137 33.9573C73.8981 33.5525 73.8906 33.2557 73.8906 33.0625H72.8906C72.8906 33.2756 72.8988 33.5881 72.9144 33.9958L73.9137 33.9573ZM73.8906 33.0625V32.1484H72.8906V33.0625H73.8906ZM73.8906 32.1484C73.8906 29.1777 74.2987 25.8794 75.1205 22.2511L74.1452 22.0302C73.3107 25.7143 72.8906 29.088 72.8906 32.1484H73.8906ZM75.12 22.2531C75.9581 18.6213 77.0202 15.2736 78.3049 12.2089L77.3826 11.8223C76.0736 14.9451 74.995 18.3475 74.1456 22.0282L75.12 22.2531ZM78.304 12.2109C79.6016 9.15243 81.109 6.60343 82.8211 4.55503L82.0539 3.91372C80.266 6.05282 78.7109 8.69132 77.3835 11.8204L78.304 12.2109ZM82.8211 4.55503C84.5363 2.50298 86.1122 1.59375 87.5469 1.59375V0.59375C85.6691 0.59375 83.8387 1.77827 82.0539 3.91372L82.8211 4.55503ZM87.5469 1.59375C88.4325 1.59375 89.0799 1.89269 89.5513 2.46599L90.3237 1.83088C89.6388 0.99794 88.6925 0.59375 87.5469 0.59375V1.59375ZM89.5591 2.47525C90.0428 3.03528 90.3281 3.92776 90.3281 5.24219H91.3281C91.3281 3.80661 91.0197 2.63659 90.3159 1.82163L89.5591 2.47525ZM90.3281 5.24219C90.3281 6.5513 90.1248 8.04119 89.71 9.71572L90.6806 9.95616C91.1096 8.22444 91.3281 6.65182 91.3281 5.24219H90.3281ZM89.7092 9.71891C89.3098 11.378 88.7887 12.9013 88.1476 14.2905L89.0555 14.7095C89.7269 13.2549 90.2683 11.6689 90.6814 9.95296L89.7092 9.71891ZM88.1485 14.2886C87.4992 15.6798 86.7804 17.0403 85.9918 18.37L86.8519 18.88C87.6571 17.5222 88.3914 16.1327 89.0547 14.7114L88.1485 14.2886ZM85.9931 18.3678C85.2049 19.6814 84.4197 20.8356 83.6379 21.832L84.4246 22.4493C85.2366 21.4144 86.0451 20.2248 86.8506 18.8822L85.9931 18.3678ZM83.6385 21.8312C82.0159 23.8907 80.77 25.3181 79.8937 26.1341L80.5751 26.8659C81.5112 25.9944 82.7966 24.5156 84.424 22.4501L83.6385 21.8312ZM79.8808 26.1464L79.2714 26.7558L79.9786 27.4629L80.5879 26.8536L79.8808 26.1464ZM79.1573 26.9325C78.2338 29.3743 77.7422 31.2531 77.7422 32.5234H78.7422C78.7422 31.45 79.1724 29.7194 80.0927 27.2863L79.1573 26.9325ZM77.7422 32.5234C77.7422 33.1251 77.8108 33.648 77.9953 34.038C78.0906 34.2396 78.2257 34.4243 78.4156 34.5581C78.61 34.6952 78.8324 34.7578 79.0625 34.7578V33.7578C79.0192 33.7578 79.0023 33.7482 78.9916 33.7407C78.9765 33.73 78.9406 33.6979 78.8993 33.6104C78.8103 33.4223 78.7422 33.078 78.7422 32.5234H77.7422ZM79.0625 34.7578C79.3057 34.7578 79.5475 34.6388 79.7364 34.5276C79.9486 34.4029 80.1948 34.2251 80.4712 34.0032C81.0257 33.558 81.7446 32.8999 82.6238 32.0364L81.9231 31.323C81.0523 32.1782 80.361 32.8092 79.8452 33.2234C79.5864 33.4312 79.3825 33.5757 79.2294 33.6657C79.0531 33.7694 79.0146 33.7578 79.0625 33.7578V34.7578ZM82.6238 32.0364C84.38 30.3115 85.9886 28.6403 87.4492 27.0226L86.707 26.3524C85.2614 27.9535 83.6669 29.6103 81.9231 31.323L82.6238 32.0364ZM86.5781 26.6875V29.3125H87.5781V26.6875H86.5781ZM86.7119 28.972C84.0317 31.8548 81.8303 33.9217 80.1024 35.1908L80.6944 35.9967C82.4979 34.6721 84.7495 32.5514 87.4443 29.653L86.7119 28.972ZM80.1031 35.1903C78.3981 36.4386 76.854 37.0807 75.464 37.181L75.536 38.1784C77.1772 38.06 78.8988 37.3114 80.6938 35.9972L80.1031 35.1903Z" fill="black"/>
</svg>
