<svg width="25" height="49" viewBox="0 0 25 49" fill="none" xmlns="http://www.w3.org/2000/svg">
<path d="M11.2266 47.625V42.8906C8.21094 42.625 5.77344 41.5078 3.91406 39.5391C1.80469 37.3047 0.75 34.5312 0.75 31.2188L5.20312 29.1094H5.4375V31.2188C5.4375 33.2656 6 34.9609 7.125 36.3047C8.20312 37.5859 9.57031 38.3594 11.2266 38.625V24.3281C8.91406 24.0781 6.90625 23.1641 5.20312 21.5859C3.64062 20.1328 2.85938 18.0781 2.85938 15.4219V13.1719L11.2266 6.72656V2.15625L13.7109 0.984375H13.9453V5.8125C16.2422 6.125 18.0625 6.82812 19.4062 7.92188C21.3438 9.5 22.3125 11.8203 22.3125 14.8828L17.8594 16.9922H17.625V14.8828C17.625 12.9609 17.1172 11.5547 16.1016 10.6641C15.4609 10.1016 14.7422 9.72656 13.9453 9.53906V20.2266C17.0234 20.4141 19.4609 21.2891 21.2578 22.8516C23.3672 24.6797 24.4219 27.4531 24.4219 31.1719V33.7969L13.9453 41.8828V46.4531L11.4609 47.625H11.2266ZM11.2266 20.0625V9.51562C10.3203 9.71875 9.55469 10.1484 8.92969 10.8047C8.00781 11.7734 7.54688 13.1328 7.54688 14.8828C7.54688 16.5859 7.89844 17.8281 8.60156 18.6094C9.27344 19.3594 10.1484 19.8438 11.2266 20.0625ZM13.9453 24.4688V38.6016C15.5703 38.3359 16.9375 37.5703 18.0469 36.3047C19.1719 35.0234 19.7344 33.3281 19.7344 31.2188C19.7344 29.1875 19.2734 27.6484 18.3516 26.6016C17.3047 25.4141 15.8359 24.7031 13.9453 24.4688Z" fill="white"/>
<path d="M11.2266 47.625H10.7266V48.125H11.2266V47.625ZM11.2266 42.8906H11.7266V42.4327L11.2704 42.3926L11.2266 42.8906ZM3.91406 39.5391L3.55049 39.8823L3.55056 39.8824L3.91406 39.5391ZM0.75 31.2188L0.535957 30.7669L0.25 30.9023V31.2188H0.75ZM5.20312 29.1094V28.6094H5.09069L4.98908 28.6575L5.20312 29.1094ZM5.4375 29.1094H5.9375V28.6094H5.4375V29.1094ZM7.125 36.3047L6.74162 36.6257L6.74242 36.6266L7.125 36.3047ZM11.2266 38.625L11.1474 39.1187L11.7266 39.2116V38.625H11.2266ZM11.2266 24.3281H11.7266V23.8793L11.2803 23.831L11.2266 24.3281ZM5.20312 21.5859L4.86262 21.9521L4.86329 21.9527L5.20312 21.5859ZM2.85938 13.1719L2.55425 12.7758L2.35938 12.9259V13.1719H2.85938ZM11.2266 6.72656L11.5317 7.12267L11.7266 6.97255V6.72656H11.2266ZM11.2266 2.15625L11.0133 1.70403L10.7266 1.83927V2.15625H11.2266ZM13.7109 0.984375V0.484375H13.5989L13.4976 0.532159L13.7109 0.984375ZM13.9453 0.984375H14.4453V0.484375H13.9453V0.984375ZM13.9453 5.8125H13.4453V6.24908L13.8779 6.30794L13.9453 5.8125ZM19.4062 7.92188L19.722 7.5342L19.7219 7.53409L19.4062 7.92188ZM22.3125 14.8828L22.5265 15.3347L22.8125 15.1992V14.8828H22.3125ZM17.8594 16.9922V17.4922H17.9718L18.0734 17.4441L17.8594 16.9922ZM17.625 16.9922H17.125V17.4922H17.625V16.9922ZM16.1016 10.6641L15.7717 11.0398L15.7719 11.04L16.1016 10.6641ZM13.9453 9.53906L14.0598 9.05235L13.4453 8.90776V9.53906H13.9453ZM13.9453 20.2266H13.4453V20.697L13.9149 20.7256L13.9453 20.2266ZM21.2578 22.8516L20.9297 23.2289L20.9303 23.2294L21.2578 22.8516ZM24.4219 33.7969L24.7274 34.1927L24.9219 34.0426V33.7969H24.4219ZM13.9453 41.8828L13.6398 41.487L13.4453 41.6371V41.8828H13.9453ZM13.9453 46.4531L14.1586 46.9053L14.4453 46.7701V46.4531H13.9453ZM11.4609 47.625V48.125H11.5729L11.6742 48.0772L11.4609 47.625ZM11.2266 20.0625L11.1271 20.5525L11.7266 20.6741V20.0625H11.2266ZM11.2266 9.51562H11.7266V8.89115L11.1172 9.02773L11.2266 9.51562ZM8.92969 10.8047L8.56762 10.4599L8.56748 10.46L8.92969 10.8047ZM8.60156 18.6094L8.97398 18.2757L8.97321 18.2749L8.60156 18.6094ZM13.9453 24.4688L14.0068 23.9725L13.4453 23.9029V24.4688H13.9453ZM13.9453 38.6016H13.4453V39.1899L14.026 39.095L13.9453 38.6016ZM18.0469 36.3047L17.6712 35.9748L17.6709 35.9751L18.0469 36.3047ZM18.3516 26.6016L18.7268 26.2711L18.7266 26.2709L18.3516 26.6016ZM11.7266 47.625V42.8906H10.7266V47.625H11.7266ZM11.2704 42.3926C8.36126 42.1363 6.04286 41.0649 4.27757 39.1958L3.55056 39.8824C5.50402 41.9507 8.06061 43.1137 11.1827 43.3887L11.2704 42.3926ZM4.27764 39.1958C2.26309 37.0619 1.25 34.4145 1.25 31.2188H0.25C0.25 34.648 1.34629 37.5475 3.55049 39.8823L4.27764 39.1958ZM0.964043 31.6706L5.41717 29.5612L4.98908 28.6575L0.535957 30.7669L0.964043 31.6706ZM5.20312 29.6094H5.4375V28.6094H5.20312V29.6094ZM4.9375 29.1094V31.2188H5.9375V29.1094H4.9375ZM4.9375 31.2188C4.9375 33.3623 5.52897 35.1772 6.74162 36.6257L7.50838 35.9837C6.47103 34.7447 5.9375 33.169 5.9375 31.2188H4.9375ZM6.74242 36.6266C7.89795 37.9998 9.3729 38.8341 11.1474 39.1187L11.3057 38.1313C9.76773 37.8846 8.5083 37.172 7.50758 35.9828L6.74242 36.6266ZM11.7266 38.625V24.3281H10.7266V38.625H11.7266ZM11.2803 23.831C9.0745 23.5926 7.16707 22.7241 5.54296 21.2192L4.86329 21.9527C6.64543 23.604 8.75363 24.5637 11.1728 24.8252L11.2803 23.831ZM5.54363 21.2198C4.10674 19.8835 3.35938 17.9756 3.35938 15.4219H2.35938C2.35938 18.1806 3.17451 20.3821 4.86262 21.9521L5.54363 21.2198ZM3.35938 15.4219V13.1719H2.35938V15.4219H3.35938ZM3.1645 13.568L11.5317 7.12267L10.9214 6.33046L2.55425 12.7758L3.1645 13.568ZM11.7266 6.72656V2.15625H10.7266V6.72656H11.7266ZM11.4399 2.60847L13.9242 1.43659L13.4976 0.532159L11.0133 1.70403L11.4399 2.60847ZM13.7109 1.48438H13.9453V0.484375H13.7109V1.48438ZM13.4453 0.984375V5.8125H14.4453V0.984375H13.4453ZM13.8779 6.30794C16.1136 6.61211 17.8384 7.29038 19.0906 8.30966L19.7219 7.53409C18.2866 6.36587 16.3708 5.63789 14.0127 5.31706L13.8779 6.30794ZM19.0905 8.30955C20.8853 9.77143 21.8125 11.9334 21.8125 14.8828H22.8125C22.8125 11.7073 21.8022 9.22857 19.722 7.5342L19.0905 8.30955ZM22.0985 14.4309L17.6453 16.5403L18.0734 17.4441L22.5265 15.3347L22.0985 14.4309ZM17.8594 16.4922H17.625V17.4922H17.8594V16.4922ZM18.125 16.9922V14.8828H17.125V16.9922H18.125ZM18.125 14.8828C18.125 12.8797 17.5947 11.3084 16.4312 10.2881L15.7719 11.04C16.6397 11.801 17.125 13.0422 17.125 14.8828H18.125ZM16.4315 10.2883C15.7319 9.67407 14.9399 9.25942 14.0598 9.05235L13.8308 10.0258C14.5445 10.1937 15.19 10.5291 15.7717 11.0398L16.4315 10.2883ZM13.4453 9.53906V20.2266H14.4453V9.53906H13.4453ZM13.9149 20.7256C16.9157 20.9084 19.2376 21.7575 20.9297 23.2289L21.5859 22.4743C19.6842 20.8206 17.1311 19.9197 13.9757 19.7275L13.9149 20.7256ZM20.9303 23.2294C22.8967 24.9336 23.9219 27.5472 23.9219 31.1719H24.9219C24.9219 27.3591 23.8376 24.4258 21.5853 22.4737L20.9303 23.2294ZM23.9219 31.1719V33.7969H24.9219V31.1719H23.9219ZM24.1164 33.4011L13.6398 41.487L14.2508 42.2786L24.7274 34.1927L24.1164 33.4011ZM13.4453 41.8828V46.4531H14.4453V41.8828H13.4453ZM13.732 46.0009L11.2476 47.1728L11.6742 48.0772L14.1586 46.9053L13.732 46.0009ZM11.4609 47.125H11.2266V48.125H11.4609V47.125ZM11.7266 20.0625V9.51562H10.7266V20.0625H11.7266ZM11.1172 9.02773C10.117 9.25192 9.26262 9.73011 8.56762 10.4599L9.29176 11.1495C9.84675 10.5668 10.5237 10.1856 11.3359 10.0035L11.1172 9.02773ZM8.56748 10.46C7.5325 11.5476 7.04688 13.0454 7.04688 14.8828H8.04688C8.04688 13.2203 8.48313 11.9993 9.2919 11.1494L8.56748 10.46ZM7.04688 14.8828C7.04688 16.6372 7.40605 18.0284 8.22992 18.9439L8.97321 18.2749C8.39083 17.6278 8.04688 16.5347 8.04688 14.8828H7.04688ZM8.22914 18.943C8.97953 19.7806 9.95387 20.3145 11.1271 20.5525L11.326 19.5725C10.343 19.373 9.56734 18.9381 8.97398 18.2758L8.22914 18.943ZM13.4453 24.4688V38.6016H14.4453V24.4688H13.4453ZM14.026 39.095C15.7682 38.8102 17.2389 37.985 18.4229 36.6343L17.6709 35.9751C16.6361 37.1556 15.3724 37.8616 13.8647 38.1081L14.026 39.095ZM18.4226 36.6346C19.6455 35.2419 20.2344 33.4196 20.2344 31.2188H19.2344C19.2344 33.2366 18.6983 34.805 17.6712 35.9748L18.4226 36.6346ZM20.2344 31.2188C20.2344 29.1203 19.759 27.4432 18.7268 26.2711L17.9763 26.932C18.7879 27.8536 19.2344 29.2547 19.2344 31.2188H20.2344ZM18.7266 26.2709C17.5832 24.9739 15.9928 24.2187 14.0068 23.9725L13.8838 24.965C15.6791 25.1875 17.0261 25.8542 17.9765 26.9322L18.7266 26.2709Z" fill="black"/>
</svg>
