<svg width="29" height="39" viewBox="0 0 29 39" fill="none" xmlns="http://www.w3.org/2000/svg">
<path d="M16.5234 37.9375C12.9609 37.9375 10.0703 36.8047 7.85156 34.5391C5.74219 32.3828 4.6875 29.6094 4.6875 26.2188V24.7656H1.17188V24.5312L2.50781 21.7188H4.6875V19.3281H1.17188V19.0938L2.50781 16.2812H4.6875V9.8125L16.5234 0.671875C20.0859 0.671875 22.9766 1.80469 25.1953 4.07031C27.3047 6.22656 28.3594 9 28.3594 12.3906L23.9062 14.5H23.6719V12.3906C23.6719 10.2969 23.1094 8.60156 21.9844 7.30469C20.5938 5.69531 18.7734 4.89062 16.5234 4.89062C14.2734 4.89062 12.4531 5.69531 11.0625 7.30469C9.9375 8.61719 9.375 10.3125 9.375 12.3906V16.2812H20.3906V16.5156L19.0547 19.3281H9.375V21.7188H20.3906V21.9531L19.0547 24.7656H9.375V26.2188C9.375 28.2812 9.9375 29.9766 11.0625 31.3047C12.4219 32.9141 14.2422 33.7188 16.5234 33.7188C18.7578 33.7188 20.5781 32.9141 21.9844 31.3047C23.1094 30.0078 23.6719 28.3125 23.6719 26.2188L28.125 24.1094H28.3594V28.7969L16.5234 37.9375Z" fill="white"/>
<path d="M16.5234 37.9375V38.4375H16.694L16.829 38.3332L16.5234 37.9375ZM7.85156 34.5391L7.49415 34.8887L7.49433 34.8889L7.85156 34.5391ZM4.6875 24.7656H5.1875V24.2656H4.6875V24.7656ZM1.17188 24.7656H0.671875V25.2656H1.17188V24.7656ZM1.17188 24.5312L0.720236 24.3167L0.671875 24.4185V24.5312H1.17188ZM2.50781 21.7188V21.2188H2.19177L2.05617 21.5042L2.50781 21.7188ZM4.6875 21.7188V22.2188H5.1875V21.7188H4.6875ZM4.6875 19.3281H5.1875V18.8281H4.6875V19.3281ZM1.17188 19.3281H0.671875V19.8281H1.17188V19.3281ZM1.17188 19.0938L0.720236 18.8792L0.671875 18.981V19.0938H1.17188ZM2.50781 16.2812V15.7812H2.19177L2.05617 16.0667L2.50781 16.2812ZM4.6875 16.2812V16.7812H5.1875V16.2812H4.6875ZM4.6875 9.8125L4.38189 9.41677L4.1875 9.56689V9.8125H4.6875ZM16.5234 0.671875V0.171875H16.3528L16.2178 0.276146L16.5234 0.671875ZM25.1953 4.07031L25.5527 3.72067L25.5525 3.72047L25.1953 4.07031ZM28.3594 12.3906L28.5734 12.8425L28.8594 12.707V12.3906H28.3594ZM23.9062 14.5V15H24.0187L24.1203 14.9519L23.9062 14.5ZM23.6719 14.5H23.1719V15H23.6719V14.5ZM21.9844 7.30469L21.606 7.63159L21.6067 7.63233L21.9844 7.30469ZM11.0625 7.30469L10.6842 6.97778L10.6829 6.97929L11.0625 7.30469ZM9.375 16.2812H8.875V16.7812H9.375V16.2812ZM20.3906 16.2812H20.8906V15.7812H20.3906V16.2812ZM20.3906 16.5156L20.8423 16.7302L20.8906 16.6283V16.5156H20.3906ZM19.0547 19.3281V19.8281H19.3707L19.5063 19.5427L19.0547 19.3281ZM9.375 19.3281V18.8281H8.875V19.3281H9.375ZM9.375 21.7188H8.875V22.2188H9.375V21.7188ZM20.3906 21.7188H20.8906V21.2188H20.3906V21.7188ZM20.3906 21.9531L20.8423 22.1677L20.8906 22.0658V21.9531H20.3906ZM19.0547 24.7656V25.2656H19.3707L19.5063 24.9802L19.0547 24.7656ZM9.375 24.7656V24.2656H8.875V24.7656H9.375ZM11.0625 31.3047L11.4445 30.982L11.444 30.9815L11.0625 31.3047ZM21.9844 31.3047L22.3609 31.6337L22.3621 31.6323L21.9844 31.3047ZM23.6719 26.2188L23.4578 25.7669L23.1719 25.9023V26.2188H23.6719ZM28.125 24.1094V23.6094H28.0126L27.911 23.6575L28.125 24.1094ZM28.3594 24.1094H28.8594V23.6094H28.3594V24.1094ZM28.3594 28.7969L28.665 29.1926L28.8594 29.0425V28.7969H28.3594ZM16.5234 37.4375C13.0772 37.4375 10.3215 36.3466 8.20879 34.1892L7.49433 34.8889C9.81913 37.2628 12.8447 38.4375 16.5234 38.4375V37.4375ZM8.20898 34.1894C6.20264 32.1385 5.1875 29.4963 5.1875 26.2188H4.1875C4.1875 29.7224 5.28173 32.6271 7.49415 34.8887L8.20898 34.1894ZM5.1875 26.2188V24.7656H4.1875V26.2188H5.1875ZM4.6875 24.2656H1.17188V25.2656H4.6875V24.2656ZM1.67188 24.7656V24.5312H0.671875V24.7656H1.67188ZM1.62351 24.7458L2.95945 21.9333L2.05617 21.5042L0.720236 24.3167L1.62351 24.7458ZM2.50781 22.2188H4.6875V21.2188H2.50781V22.2188ZM5.1875 21.7188V19.3281H4.1875V21.7188H5.1875ZM4.6875 18.8281H1.17188V19.8281H4.6875V18.8281ZM1.67188 19.3281V19.0938H0.671875V19.3281H1.67188ZM1.62351 19.3083L2.95945 16.4958L2.05617 16.0667L0.720236 18.8792L1.62351 19.3083ZM2.50781 16.7812H4.6875V15.7812H2.50781V16.7812ZM5.1875 16.2812V9.8125H4.1875V16.2812H5.1875ZM4.99311 10.2082L16.829 1.0676L16.2178 0.276146L4.38189 9.41677L4.99311 10.2082ZM16.5234 1.17188C19.9697 1.17188 22.7254 2.26282 24.8381 4.42015L25.5525 3.72047C23.2277 1.34656 20.2022 0.171875 16.5234 0.171875V1.17188ZM24.8379 4.41996C26.8442 6.47088 27.8594 9.11306 27.8594 12.3906H28.8594C28.8594 8.88694 27.7651 5.98224 25.5527 3.72067L24.8379 4.41996ZM28.1453 11.9388L23.6922 14.0481L24.1203 14.9519L28.5734 12.8425L28.1453 11.9388ZM23.9062 14H23.6719V15H23.9062V14ZM24.1719 14.5V12.3906H23.1719V14.5H24.1719ZM24.1719 12.3906C24.1719 10.2041 23.5823 8.38371 22.3621 6.97705L21.6067 7.63233C22.6364 8.81942 23.1719 10.3897 23.1719 12.3906H24.1719ZM22.3627 6.97778C20.871 5.25146 18.9091 4.39062 16.5234 4.39062V5.39062C18.6377 5.39062 20.3165 6.13917 21.606 7.63159L22.3627 6.97778ZM16.5234 4.39062C14.1377 4.39062 12.1759 5.25146 10.6842 6.97778L11.4408 7.63159C12.7304 6.13917 14.4091 5.39062 16.5234 5.39062V4.39062ZM10.6829 6.97929C9.46522 8.39989 8.875 10.2184 8.875 12.3906H9.875C9.875 10.4066 10.4098 8.83449 11.4421 7.63008L10.6829 6.97929ZM8.875 12.3906V16.2812H9.875V12.3906H8.875ZM9.375 16.7812H20.3906V15.7812H9.375V16.7812ZM19.8906 16.2812V16.5156H20.8906V16.2812H19.8906ZM19.939 16.3011L18.603 19.1136L19.5063 19.5427L20.8423 16.7302L19.939 16.3011ZM19.0547 18.8281H9.375V19.8281H19.0547V18.8281ZM8.875 19.3281V21.7188H9.875V19.3281H8.875ZM9.375 22.2188H20.3906V21.2188H9.375V22.2188ZM19.8906 21.7188V21.9531H20.8906V21.7188H19.8906ZM19.939 21.7386L18.603 24.5511L19.5063 24.9802L20.8423 22.1677L19.939 21.7386ZM19.0547 24.2656H9.375V25.2656H19.0547V24.2656ZM8.875 24.7656V26.2188H9.875V24.7656H8.875ZM8.875 26.2188C8.875 28.3766 9.46585 30.1933 10.681 31.6279L11.444 30.9815C10.4092 29.7598 9.875 28.1859 9.875 26.2188H8.875ZM10.6805 31.6273C12.1435 33.3593 14.1088 34.2188 16.5234 34.2188V33.2188C14.3756 33.2188 12.7003 32.4688 11.4445 30.982L10.6805 31.6273ZM16.5234 34.2188C18.8946 34.2188 20.8549 33.3572 22.3609 31.6337L21.6079 30.9757C20.3014 32.4709 18.621 33.2188 16.5234 33.2188V34.2188ZM22.3621 31.6323C23.5823 30.2257 24.1719 28.4053 24.1719 26.2188H23.1719C23.1719 28.2197 22.6364 29.79 21.6067 30.977L22.3621 31.6323ZM23.8859 26.6706L28.339 24.5612L27.911 23.6575L23.4578 25.7669L23.8859 26.6706ZM28.125 24.6094H28.3594V23.6094H28.125V24.6094ZM27.8594 24.1094V28.7969H28.8594V24.1094H27.8594ZM28.0538 28.4011L16.2178 37.5418L16.829 38.3332L28.665 29.1926L28.0538 28.4011Z" fill="black"/>
</svg>
