<svg width="6" height="39" viewBox="0 0 6 39" fill="none" xmlns="http://www.w3.org/2000/svg">
<path d="M0.6875 37.9375V32.5938L5.14062 30.4844H5.375V35.8281L0.921875 37.9375H0.6875ZM5.14062 0.671875H5.375V25.0469L0.921875 27.1562H0.6875V2.78125L5.14062 0.671875Z" fill="white"/>
<path d="M0.6875 37.9375H0.1875V38.4375H0.6875V37.9375ZM0.6875 32.5938L0.473457 32.1419L0.1875 32.2773V32.5938H0.6875ZM5.14062 30.4844V29.9844H5.02819L4.92658 30.0325L5.14062 30.4844ZM5.375 30.4844H5.875V29.9844H5.375V30.4844ZM5.375 35.8281L5.58904 36.28L5.875 36.1445V35.8281H5.375ZM0.921875 37.9375V38.4375H1.03431L1.13592 38.3894L0.921875 37.9375ZM5.14062 0.671875V0.171875H5.02819L4.92658 0.220006L5.14062 0.671875ZM5.375 0.671875H5.875V0.171875H5.375V0.671875ZM5.375 25.0469L5.58904 25.4987L5.875 25.3633V25.0469H5.375ZM0.921875 27.1562V27.6562H1.03431L1.13592 27.6081L0.921875 27.1562ZM0.6875 27.1562H0.1875V27.6562H0.6875V27.1562ZM0.6875 2.78125L0.473457 2.32938L0.1875 2.46483V2.78125H0.6875ZM1.1875 37.9375V32.5938H0.1875V37.9375H1.1875ZM0.901543 33.0456L5.35467 30.9362L4.92658 30.0325L0.473457 32.1419L0.901543 33.0456ZM5.14062 30.9844H5.375V29.9844H5.14062V30.9844ZM4.875 30.4844V35.8281H5.875V30.4844H4.875ZM5.16096 35.3763L0.707832 37.4856L1.13592 38.3894L5.58904 36.28L5.16096 35.3763ZM0.921875 37.4375H0.6875V38.4375H0.921875V37.4375ZM5.14062 1.17188H5.375V0.171875H5.14062V1.17188ZM4.875 0.671875V25.0469H5.875V0.671875H4.875ZM5.16096 24.595L0.707832 26.7044L1.13592 27.6081L5.58904 25.4987L5.16096 24.595ZM0.921875 26.6562H0.6875V27.6562H0.921875V26.6562ZM1.1875 27.1562V2.78125H0.1875V27.1562H1.1875ZM0.901543 3.23312L5.35467 1.12374L4.92658 0.220006L0.473457 2.32938L0.901543 3.23312Z" fill="black"/>
</svg>
