<svg width="50" height="20" viewBox="0 0 50 20" fill="none" xmlns="http://www.w3.org/2000/svg">
<g clip-path="url(#clip0)">
<path d="M38.3721 1.6183L40.5072 8.19062L40.6194 8.53613H40.9827H47.8923L42.3022 12.5983L42.0084 12.8118L42.1206 13.1572L44.2558 19.7297L38.666 15.6678L38.3721 15.4542L38.0782 15.6678L32.4884 19.7297L34.6235 13.1572L34.7358 12.8118L34.4419 12.5983L28.8519 8.53613H35.7615H36.1248L36.237 8.19062L38.3721 1.6183Z" fill="#C4C4C4" fill-opacity="0.3" stroke="black"/>
<path d="M11.6279 1.6183L13.763 8.19062L13.8752 8.53613H14.2385H21.1481L15.5581 12.5983L15.2642 12.8118L15.3765 13.1572L17.5116 19.7297L11.9218 15.6678L11.6279 15.4542L11.334 15.6678L5.74421 19.7297L7.87936 13.1572L7.99158 12.8118L7.69775 12.5983L2.10773 8.53613H9.01728H9.38057L9.49282 8.19062L11.6279 1.6183Z" fill="#C4C4C4" fill-opacity="0.3" stroke="black"/>
<path d="M17.6744 10.5V10.5C20.5093 16.7413 29.3744 16.7413 32.2093 10.5V10.5" stroke="black"/>
</g>
<defs>
<clipPath id="clip0">
<rect width="50" height="20" fill="white"/>
</clipPath>
</defs>
</svg>
