<svg width="130" height="40" viewBox="0 0 130 40" fill="none" xmlns="http://www.w3.org/2000/svg">
<path d="M36.1953 21.8828L33.2656 35.7578L1.01562 37V29.6172L7.69531 29.8047L7.0625 9.92969L1.01562 10.1172V2.73438L21.3125 3.55469L21.1719 9.48438L14.4453 9.74219L12.6875 29.8984L30.1016 30.3203L31.2969 21.8828H36.1953ZM49.8125 38.4297C47.6406 38.4297 45.7656 38.1016 44.1875 37.4453C42.625 36.7891 41.3359 35.8984 40.3203 34.7734C39.3203 33.6484 38.5781 32.3359 38.0938 30.8359C37.6094 29.3359 37.3672 27.7422 37.3672 26.0547C37.3672 23.7891 37.7578 21.8047 38.5391 20.1016C39.3359 18.3984 40.4062 16.9844 41.75 15.8594C43.1094 14.7188 44.6797 13.8672 46.4609 13.3047C48.2422 12.7422 50.125 12.4609 52.1094 12.4609C54.3281 12.4609 56.1953 12.7891 57.7109 13.4453C59.2422 14.1016 60.4766 14.9844 61.4141 16.0938C62.3516 17.1875 63.0234 18.4531 63.4297 19.8906C63.8516 21.3125 64.0625 22.8047 64.0625 24.3672C64.0625 26.4922 63.7188 28.4219 63.0312 30.1562C62.3594 31.8906 61.3984 33.375 60.1484 34.6094C58.9141 35.8281 57.4141 36.7656 55.6484 37.4219C53.8984 38.0938 51.9531 38.4297 49.8125 38.4297ZM50.8203 15.6484C49.9922 15.6484 49.2656 15.8281 48.6406 16.1875C48.0312 16.5312 47.5 16.9922 47.0469 17.5703C46.6094 18.1328 46.2422 18.7734 45.9453 19.4922C45.6484 20.2109 45.4141 20.9453 45.2422 21.6953C45.0703 22.4297 44.9453 23.1484 44.8672 23.8516C44.8047 24.5547 44.7734 25.1641 44.7734 25.6797C44.7734 26.2422 44.8125 26.875 44.8906 27.5781C44.9688 28.2656 45.1016 28.9609 45.2891 29.6641C45.4766 30.3672 45.7266 31.0547 46.0391 31.7266C46.3516 32.3984 46.7422 32.9922 47.2109 33.5078C47.6797 34.0234 48.2266 34.4375 48.8516 34.75C49.4922 35.0625 50.2266 35.2188 51.0547 35.2188C51.8984 35.2188 52.6172 35.0625 53.2109 34.75C53.8203 34.4375 54.3281 34.0234 54.7344 33.5078C55.1562 32.9922 55.4922 32.4062 55.7422 31.75C55.9922 31.0938 56.1797 30.4297 56.3047 29.7578C56.4453 29.0703 56.5391 28.4062 56.5859 27.7656C56.6328 27.125 56.6562 26.5547 56.6562 26.0547C56.6562 25.3828 56.6172 24.6562 56.5391 23.875C56.4766 23.0938 56.3594 22.3203 56.1875 21.5547C56.0312 20.7734 55.8047 20.0312 55.5078 19.3281C55.2266 18.6094 54.8672 17.9844 54.4297 17.4531C54.0078 16.9062 53.4922 16.4688 52.8828 16.1406C52.2891 15.8125 51.6016 15.6484 50.8203 15.6484ZM83.375 31.5859L82.625 37.6328L65.1406 37.0938L64.9062 32.875L70.8125 32.4766L70.7656 7.82031L63.9922 7.58594V3.34375L78.7344 2.875L76.4141 32.0547L83.375 31.5859ZM96.4766 1.82031L94.2266 26.0547H89.8906L85.7188 2.78125L96.4766 1.82031ZM96.4766 33.2031C96.4766 33.7344 96.3516 34.2344 96.1016 34.7031C95.8672 35.1719 95.5391 35.5859 95.1172 35.9453C94.6953 36.2891 94.2031 36.5703 93.6406 36.7891C93.0781 36.9922 92.4688 37.0938 91.8125 37.0938C91.1719 37.0938 90.5703 36.9922 90.0078 36.7891C89.4453 36.5703 88.9531 36.2891 88.5312 35.9453C88.1094 35.5859 87.7734 35.1719 87.5234 34.7031C87.2891 34.2344 87.1719 33.7344 87.1719 33.2031C87.1719 32.6719 87.2891 32.1641 87.5234 31.6797C87.7734 31.1953 88.1094 30.7812 88.5312 30.4375C88.9531 30.0781 89.4453 29.7969 90.0078 29.5938C90.5703 29.375 91.1719 29.2656 91.8125 29.2656C92.4688 29.2656 93.0781 29.375 93.6406 29.5938C94.2031 29.7969 94.6953 30.0781 95.1172 30.4375C95.5391 30.7812 95.8672 31.1953 96.1016 31.6797C96.3516 32.1641 96.4766 32.6719 96.4766 33.2031ZM112.32 1.82031L110.07 26.0547H105.734L101.562 2.78125L112.32 1.82031ZM112.32 33.2031C112.32 33.7344 112.195 34.2344 111.945 34.7031C111.711 35.1719 111.383 35.5859 110.961 35.9453C110.539 36.2891 110.047 36.5703 109.484 36.7891C108.922 36.9922 108.312 37.0938 107.656 37.0938C107.016 37.0938 106.414 36.9922 105.852 36.7891C105.289 36.5703 104.797 36.2891 104.375 35.9453C103.953 35.5859 103.617 35.1719 103.367 34.7031C103.133 34.2344 103.016 33.7344 103.016 33.2031C103.016 32.6719 103.133 32.1641 103.367 31.6797C103.617 31.1953 103.953 30.7812 104.375 30.4375C104.797 30.0781 105.289 29.7969 105.852 29.5938C106.414 29.375 107.016 29.2656 107.656 29.2656C108.312 29.2656 108.922 29.375 109.484 29.5938C110.047 29.7969 110.539 30.0781 110.961 30.4375C111.383 30.7812 111.711 31.1953 111.945 31.6797C112.195 32.1641 112.32 32.6719 112.32 33.2031ZM128.164 1.82031L125.914 26.0547H121.578L117.406 2.78125L128.164 1.82031ZM128.164 33.2031C128.164 33.7344 128.039 34.2344 127.789 34.7031C127.555 35.1719 127.227 35.5859 126.805 35.9453C126.383 36.2891 125.891 36.5703 125.328 36.7891C124.766 36.9922 124.156 37.0938 123.5 37.0938C122.859 37.0938 122.258 36.9922 121.695 36.7891C121.133 36.5703 120.641 36.2891 120.219 35.9453C119.797 35.5859 119.461 35.1719 119.211 34.7031C118.977 34.2344 118.859 33.7344 118.859 33.2031C118.859 32.6719 118.977 32.1641 119.211 31.6797C119.461 31.1953 119.797 30.7812 120.219 30.4375C120.641 30.0781 121.133 29.7969 121.695 29.5938C122.258 29.375 122.859 29.2656 123.5 29.2656C124.156 29.2656 124.766 29.375 125.328 29.5938C125.891 29.7969 126.383 30.0781 126.805 30.4375C127.227 30.7812 127.555 31.1953 127.789 31.6797C128.039 32.1641 128.164 32.6719 128.164 33.2031Z" fill="white"/>
<path d="M36.1953 21.8828L37.1737 22.0894L37.4285 20.8828H36.1953V21.8828ZM33.2656 35.7578L33.3041 36.7571L34.083 36.7271L34.2441 35.9644L33.2656 35.7578ZM1.01562 37H0.015625V38.0393L1.05411 37.9993L1.01562 37ZM1.01562 29.6172L1.04368 28.6176L0.015625 28.5887V29.6172H1.01562ZM7.69531 29.8047L7.66725 30.8043L8.72859 30.8341L8.69481 29.7729L7.69531 29.8047ZM7.0625 9.92969L8.06199 9.89786L8.0302 8.8992L7.03151 8.93017L7.0625 9.92969ZM1.01562 10.1172H0.015625V11.1487L1.04662 11.1167L1.01562 10.1172ZM1.01562 2.73438L1.05601 1.73519L0.015625 1.69314V2.73438H1.01562ZM21.3125 3.55469L22.3122 3.5784L22.3355 2.59522L21.3529 2.5555L21.3125 3.55469ZM21.1719 9.48438L21.2102 10.4836L22.1493 10.4476L22.1716 9.50808L21.1719 9.48438ZM14.4453 9.74219L14.407 8.74292L13.5257 8.7767L13.4491 9.65531L14.4453 9.74219ZM12.6875 29.8984L11.6913 29.8116L11.5988 30.8724L12.6633 30.8981L12.6875 29.8984ZM30.1016 30.3203L30.0773 31.32L30.9669 31.3416L31.0917 30.4606L30.1016 30.3203ZM31.2969 21.8828V20.8828H30.4286L30.3068 21.7425L31.2969 21.8828ZM35.2169 21.6762L32.2872 35.5512L34.2441 35.9644L37.1737 22.0894L35.2169 21.6762ZM33.2271 34.7586L0.977136 36.0007L1.05411 37.9993L33.3041 36.7571L33.2271 34.7586ZM2.01562 37V29.6172H0.015625V37H2.01562ZM0.987566 30.6168L7.66725 30.8043L7.72337 28.8051L1.04368 28.6176L0.987566 30.6168ZM8.69481 29.7729L8.06199 9.89786L6.06301 9.96151L6.69582 29.8365L8.69481 29.7729ZM7.03151 8.93017L0.984632 9.11767L1.04662 11.1167L7.09349 10.9292L7.03151 8.93017ZM2.01562 10.1172V2.73438H0.015625V10.1172H2.01562ZM0.975242 3.73356L21.2721 4.55387L21.3529 2.5555L1.05601 1.73519L0.975242 3.73356ZM20.3128 3.53098L20.1722 9.46067L22.1716 9.50808L22.3122 3.5784L20.3128 3.53098ZM21.1336 8.48511L14.407 8.74292L14.4836 10.7415L21.2102 10.4836L21.1336 8.48511ZM13.4491 9.65531L11.6913 29.8116L13.6837 29.9853L15.4415 9.82907L13.4491 9.65531ZM12.6633 30.8981L30.0773 31.32L30.1258 29.3206L12.7117 28.8987L12.6633 30.8981ZM31.0917 30.4606L32.287 22.0231L30.3068 21.7425L29.1114 30.18L31.0917 30.4606ZM31.2969 22.8828H36.1953V20.8828H31.2969V22.8828ZM44.1875 37.4453L43.8003 38.3673L43.8035 38.3687L44.1875 37.4453ZM40.3203 34.7734L39.5729 35.4378L39.578 35.4435L40.3203 34.7734ZM38.5391 20.1016L37.6333 19.6778L37.6301 19.6846L38.5391 20.1016ZM41.75 15.8594L42.3919 16.6261L42.3928 16.6254L41.75 15.8594ZM57.7109 13.4453L57.3136 14.363L57.317 14.3645L57.7109 13.4453ZM61.4141 16.0938L60.6502 16.7392L60.6548 16.7445L61.4141 16.0938ZM63.4297 19.8906L62.4673 20.1626L62.471 20.1751L63.4297 19.8906ZM63.0312 30.1562L62.1016 29.7877L62.0988 29.795L63.0312 30.1562ZM60.1484 34.6094L60.851 35.321L60.8511 35.3209L60.1484 34.6094ZM55.6484 37.4219L55.3 36.4845L55.29 36.4883L55.6484 37.4219ZM48.6406 16.1875L49.132 17.0585L49.1391 17.0544L48.6406 16.1875ZM47.0469 17.5703L46.2598 16.9534L46.2575 16.9564L47.0469 17.5703ZM45.2422 21.6953L46.2159 21.9232L46.2169 21.9187L45.2422 21.6953ZM44.8672 23.8516L43.8733 23.7411L43.8721 23.7521L43.8711 23.763L44.8672 23.8516ZM44.8906 27.5781L43.8967 27.6886L43.897 27.691L44.8906 27.5781ZM48.8516 34.75L48.4043 35.6445L48.4131 35.6488L48.8516 34.75ZM53.2109 34.75L52.7546 33.8601L52.7452 33.8651L53.2109 34.75ZM54.7344 33.5078L53.9604 32.8746L53.9546 32.8817L53.9489 32.8889L54.7344 33.5078ZM56.3047 29.7578L55.325 29.5574L55.3232 29.5661L55.3216 29.5749L56.3047 29.7578ZM56.5391 23.875L55.5422 23.9547L55.543 23.9646L55.544 23.9745L56.5391 23.875ZM56.1875 21.5547L55.2069 21.7508L55.2092 21.7623L55.2118 21.7737L56.1875 21.5547ZM55.5078 19.3281L54.5766 19.6925L54.5814 19.7049L54.5866 19.7171L55.5078 19.3281ZM54.4297 17.4531L53.6379 18.0639L53.6476 18.0765L53.6578 18.0888L54.4297 17.4531ZM52.8828 16.1406L52.3991 17.0159L52.4087 17.0211L52.8828 16.1406ZM49.8125 37.4297C47.7381 37.4297 45.9998 37.1159 44.5715 36.522L43.8035 38.3687C45.5314 39.0872 47.5431 39.4297 49.8125 39.4297V37.4297ZM44.5747 36.5233C43.1315 35.9172 41.9687 35.1071 41.0626 34.1033L39.578 35.4435C40.7032 36.6898 42.1185 37.6609 43.8003 38.3673L44.5747 36.5233ZM41.0677 34.1091C40.1641 33.0925 39.4892 31.9031 39.0454 30.5286L37.1421 31.1432C37.667 32.7688 38.4765 34.2043 39.5729 35.4378L41.0677 34.1091ZM39.0454 30.5286C38.5952 29.1347 38.3672 27.6452 38.3672 26.0547H36.3672C36.3672 27.8391 36.6235 29.5372 37.1421 31.1432L39.0454 30.5286ZM38.3672 26.0547C38.3672 23.9034 38.738 22.0664 39.448 20.5185L37.6301 19.6846C36.7777 21.543 36.3672 23.6747 36.3672 26.0547H38.3672ZM39.4448 20.5254C40.1844 18.9446 41.1681 17.6507 42.3919 16.6261L41.1081 15.0926C39.6444 16.318 38.4874 17.8523 37.6333 19.6778L39.4448 20.5254ZM42.3928 16.6254C43.6464 15.5735 45.0992 14.7834 46.7621 14.2583L46.1598 12.3511C44.2602 12.951 42.5723 13.864 41.1072 15.0933L42.3928 16.6254ZM46.7621 14.2583C48.44 13.7284 50.2208 13.4609 52.1094 13.4609V11.4609C50.0292 11.4609 48.0444 11.756 46.1598 12.3511L46.7621 14.2583ZM52.1094 13.4609C54.2358 13.4609 55.9585 13.7763 57.3136 14.363L58.1083 12.5276C56.4321 11.8019 54.4205 11.4609 52.1094 11.4609V13.4609ZM57.317 14.3645C58.7265 14.9685 59.8269 15.7649 60.6503 16.7392L62.1779 15.4483C61.1262 14.2038 59.7579 13.2346 58.1049 12.5262L57.317 14.3645ZM60.6548 16.7445C61.4944 17.7241 62.0991 18.8593 62.4674 20.1626L64.392 19.6187C63.9478 18.047 63.2087 16.6509 62.1733 15.443L60.6548 16.7445ZM62.471 20.1751C62.864 21.4998 63.0625 22.8958 63.0625 24.3672H65.0625C65.0625 22.7135 64.8391 21.1252 64.3884 19.6062L62.471 20.1751ZM63.0625 24.3672C63.0625 26.3834 62.7366 28.1858 62.1016 29.7877L63.9609 30.5248C64.7009 28.6579 65.0625 26.601 65.0625 24.3672H63.0625ZM62.0988 29.795C61.4749 31.4056 60.5895 32.7685 59.4458 33.8978L60.8511 35.3209C62.2074 33.9815 63.2439 32.3757 63.9637 30.5175L62.0988 29.795ZM59.4458 33.8978C58.3206 35.0088 56.9445 35.8733 55.3 36.4845L55.9968 38.3592C57.8836 37.6579 59.5075 36.6475 60.851 35.321L59.4458 33.8978ZM55.29 36.4883C53.6694 37.1105 51.8478 37.4297 49.8125 37.4297V39.4297C52.0585 39.4297 54.1274 39.077 56.0069 38.3554L55.29 36.4883ZM50.8203 14.6484C49.8436 14.6484 48.9401 14.8618 48.1422 15.3206L49.1391 17.0544C49.5911 16.7945 50.1408 16.6484 50.8203 16.6484V14.6484ZM48.1493 15.3165C47.42 15.7279 46.7898 16.2773 46.2598 16.9534L47.8339 18.1872C48.2102 17.7071 48.6425 17.3346 49.1319 17.0585L48.1493 15.3165ZM46.2575 16.9564C45.76 17.596 45.3491 18.3161 45.0211 19.1104L46.8696 19.8739C47.1352 19.2308 47.4587 18.6696 47.8362 18.1843L46.2575 16.9564ZM45.0211 19.1104C44.7032 19.8799 44.4519 20.6673 44.2675 21.4719L46.2169 21.9187C46.3763 21.2234 46.5937 20.5419 46.8696 19.8739L45.0211 19.1104ZM44.2685 21.4674C44.0882 22.238 43.9561 22.996 43.8733 23.7411L45.8611 23.962C45.9345 23.3009 46.0525 22.6214 46.2159 21.9232L44.2685 21.4674ZM43.8711 23.763C43.8069 24.4857 43.7734 25.126 43.7734 25.6797H45.7734C45.7734 25.2021 45.8025 24.6237 45.8633 23.9401L43.8711 23.763ZM43.7734 25.6797C43.7734 26.287 43.8155 26.9576 43.8967 27.6886L45.8845 27.4677C45.8095 26.7924 45.7734 26.1973 45.7734 25.6797H43.7734ZM43.897 27.691C43.981 28.4298 44.1233 29.1735 44.3228 29.9217L46.2553 29.4064C46.0798 28.7484 45.9565 28.1014 45.8842 27.4652L43.897 27.691ZM44.3228 29.9217C44.5256 30.6822 44.7957 31.4245 45.1323 32.1483L46.9458 31.3048C46.6574 30.6848 46.4275 30.0522 46.2553 29.4064L44.3228 29.9217ZM45.1323 32.1483C45.4847 32.9059 45.9301 33.5855 46.471 34.1805L47.9509 32.8351C47.5543 32.3989 47.2184 31.8909 46.9458 31.3048L45.1323 32.1483ZM46.471 34.1805C47.023 34.7877 47.6692 35.2769 48.4043 35.6444L49.2988 33.8556C48.7839 33.5981 48.3363 33.2592 47.9509 32.8351L46.471 34.1805ZM48.4131 35.6488C49.2108 36.0379 50.0992 36.2188 51.0547 36.2188V34.2188C50.354 34.2188 49.7736 34.0871 49.29 33.8512L48.4131 35.6488ZM51.0547 36.2188C52.0198 36.2188 52.907 36.04 53.6767 35.6349L52.7452 33.8651C52.3273 34.085 51.7771 34.2188 51.0547 34.2188V36.2188ZM53.6673 35.6398C54.3989 35.2646 55.0208 34.7601 55.5199 34.1267L53.9489 32.8889C53.6355 33.2867 53.2417 33.6104 52.7546 33.8602L53.6673 35.6398ZM55.5083 34.1411C56.0019 33.5378 56.3905 32.8572 56.6767 32.106L54.8077 31.394C54.5939 31.9553 54.3106 32.4465 53.9604 32.8746L55.5083 34.1411ZM56.6767 32.106C56.9475 31.3952 57.1515 30.6732 57.2878 29.9407L55.3216 29.5749C55.2078 30.1861 55.0369 30.7923 54.8077 31.394L56.6767 32.106ZM57.2844 29.9582C57.4328 29.2325 57.533 28.5257 57.5833 27.8386L55.5886 27.6926C55.5451 28.2868 55.4578 28.9082 55.325 29.5574L57.2844 29.9582ZM57.5833 27.8386C57.6315 27.1801 57.6562 26.5847 57.6562 26.0547H55.6562C55.6562 26.5246 55.6342 27.0699 55.5886 27.6926L57.5833 27.8386ZM57.6562 26.0547C57.6562 25.3446 57.615 24.5845 57.5341 23.7755L55.544 23.9745C55.6194 24.728 55.6562 25.421 55.6562 26.0547H57.6562ZM57.5359 23.7953C57.4696 22.9671 57.3454 22.1471 57.1632 21.3356L55.2118 21.7737C55.3734 22.4935 55.4835 23.2204 55.5422 23.9547L57.5359 23.7953ZM57.1681 21.3586C56.9992 20.5141 56.7533 19.7071 56.4291 18.9392L54.5866 19.7171C54.8561 20.3554 55.0633 21.0328 55.2069 21.7508L57.1681 21.3586ZM56.4391 18.9637C56.124 18.1585 55.7138 17.4394 55.2016 16.8174L53.6578 18.0888C54.0206 18.5294 54.3292 19.0603 54.5766 19.6925L56.4391 18.9637ZM55.2215 16.8423C54.7136 16.184 54.0897 15.6547 53.3569 15.2602L52.4087 17.0211C52.8947 17.2828 53.302 17.6285 53.6379 18.0639L55.2215 16.8423ZM53.3665 15.2654C52.6035 14.8437 51.7448 14.6484 50.8203 14.6484V16.6484C51.4583 16.6484 51.9746 16.7813 52.3991 17.0159L53.3665 15.2654ZM83.375 31.5859L84.3674 31.709L84.5165 30.5068L83.3078 30.5882L83.375 31.5859ZM82.625 37.6328L82.5942 38.6323L83.5052 38.6604L83.6174 37.7559L82.625 37.6328ZM65.1406 37.0938L64.1422 37.1492L64.193 38.065L65.1098 38.0933L65.1406 37.0938ZM64.9062 32.875L64.8389 31.8773L63.853 31.9438L63.9078 32.9305L64.9062 32.875ZM70.8125 32.4766L70.8798 33.4743L71.8143 33.4113L71.8125 32.4747L70.8125 32.4766ZM70.7656 7.82031L71.7656 7.81841L71.7638 6.85425L70.8002 6.82091L70.7656 7.82031ZM63.9922 7.58594H62.9922V8.55193L63.9576 8.58534L63.9922 7.58594ZM63.9922 3.34375L63.9604 2.34426L62.9922 2.37504V3.34375H63.9922ZM78.7344 2.875L79.7312 2.95427L79.8198 1.83998L78.7026 1.87551L78.7344 2.875ZM76.4141 32.0547L75.4172 31.9754L75.3254 33.1303L76.4813 33.0524L76.4141 32.0547ZM82.3826 31.4628L81.6326 37.5097L83.6174 37.7559L84.3674 31.709L82.3826 31.4628ZM82.6558 36.6333L65.1714 36.0942L65.1098 38.0933L82.5942 38.6323L82.6558 36.6333ZM66.1391 37.0383L65.9047 32.8195L63.9078 32.9305L64.1422 37.1492L66.1391 37.0383ZM64.9736 33.8727L70.8798 33.4743L70.7452 31.4788L64.8389 31.8773L64.9736 33.8727ZM71.8125 32.4747L71.7656 7.81841L69.7656 7.82221L69.8125 32.4785L71.8125 32.4747ZM70.8002 6.82091L64.0268 6.58654L63.9576 8.58534L70.731 8.81971L70.8002 6.82091ZM64.9922 7.58594V3.34375H62.9922V7.58594H64.9922ZM64.024 4.34324L78.7662 3.87449L78.7026 1.87551L63.9604 2.34426L64.024 4.34324ZM77.7375 2.79573L75.4172 31.9754L77.4109 32.134L79.7312 2.95427L77.7375 2.79573ZM76.4813 33.0524L83.4422 32.5837L83.3078 30.5882L76.3469 31.0569L76.4813 33.0524ZM96.4766 1.82031L97.4723 1.91276L97.5833 0.717476L96.3876 0.824278L96.4766 1.82031ZM94.2266 26.0547V27.0547H95.138L95.2223 26.1471L94.2266 26.0547ZM89.8906 26.0547L88.9063 26.2311L89.0539 27.0547H89.8906V26.0547ZM85.7188 2.78125L85.6298 1.78522L84.5417 1.88241L84.7344 2.95769L85.7188 2.78125ZM96.1016 34.7031L95.2192 34.2325L95.213 34.2441L95.2071 34.2559L96.1016 34.7031ZM95.1172 35.9453L95.7489 36.7205L95.7573 36.7136L95.7657 36.7066L95.1172 35.9453ZM93.6406 36.7891L93.9803 37.7296L93.9917 37.7255L94.0031 37.7211L93.6406 36.7891ZM90.0078 36.7891L89.6454 37.7211L89.6567 37.7255L89.6682 37.7296L90.0078 36.7891ZM88.5312 35.9453L87.8828 36.7066L87.8911 36.7136L87.8996 36.7205L88.5312 35.9453ZM87.5234 34.7031L86.629 35.1503L86.6349 35.1621L86.6411 35.1737L87.5234 34.7031ZM87.5234 31.6797L86.6348 31.221L86.6289 31.2325L86.6233 31.2441L87.5234 31.6797ZM88.5312 30.4375L89.1629 31.2127L89.1714 31.2058L89.1797 31.1987L88.5312 30.4375ZM90.0078 29.5938L90.3475 30.5343L90.3589 30.5302L90.3703 30.5258L90.0078 29.5938ZM93.6406 29.5938L93.2782 30.5258L93.2895 30.5302L93.301 30.5343L93.6406 29.5938ZM95.1172 30.4375L94.4687 31.1987L94.477 31.2058L94.4855 31.2127L95.1172 30.4375ZM96.1016 31.6797L95.2014 32.1152L95.207 32.1269L95.2129 32.1383L96.1016 31.6797ZM95.4808 1.72787L93.2308 25.9622L95.2223 26.1471L97.4723 1.91276L95.4808 1.72787ZM94.2266 25.0547H89.8906V27.0547H94.2266V25.0547ZM90.8749 25.8782L86.7031 2.60481L84.7344 2.95769L88.9063 26.2311L90.8749 25.8782ZM85.8077 3.77728L96.5655 2.81635L96.3876 0.824278L85.6298 1.78522L85.8077 3.77728ZM95.4766 33.2031C95.4766 33.5702 95.392 33.9086 95.2192 34.2325L96.9839 35.1737C97.3112 34.5601 97.4766 33.8985 97.4766 33.2031H95.4766ZM95.2071 34.2559C95.0362 34.5977 94.7943 34.9067 94.4687 35.1841L95.7657 36.7066C96.2838 36.2652 96.6981 35.746 96.996 35.1503L95.2071 34.2559ZM94.4855 35.1701C94.153 35.4411 93.7538 35.6721 93.2782 35.8571L94.0031 37.7211C94.6524 37.4685 95.2377 37.1371 95.7489 36.7205L94.4855 35.1701ZM93.301 35.8485C92.8575 36.0087 92.3642 36.0938 91.8125 36.0938V38.0938C92.5733 38.0938 93.2988 37.9757 93.9803 37.7296L93.301 35.8485ZM91.8125 36.0938C91.2794 36.0938 90.7935 36.0096 90.3475 35.8485L89.6682 37.7296C90.3471 37.9748 91.0644 38.0938 91.8125 38.0938V36.0938ZM90.3703 35.8571C89.8946 35.6721 89.4955 35.4411 89.1629 35.1701L87.8996 36.7205C88.4108 37.1371 88.996 37.4685 89.6454 37.7211L90.3703 35.8571ZM89.1797 35.1841C88.8492 34.9025 88.5942 34.5858 88.4058 34.2325L86.6411 35.1737C86.9527 35.7579 87.3696 36.2694 87.8828 36.7066L89.1797 35.1841ZM88.4179 34.2559C88.2539 33.928 88.1719 33.5813 88.1719 33.2031H86.1719C86.1719 33.8874 86.3242 34.5408 86.629 35.1503L88.4179 34.2559ZM88.1719 33.2031C88.1719 32.8247 88.2541 32.4656 88.4236 32.1152L86.6233 31.2441C86.3241 31.8625 86.1719 32.519 86.1719 33.2031H88.1719ZM88.4121 32.1383C88.5992 31.7758 88.8477 31.4696 89.1629 31.2127L87.8996 29.6623C87.371 30.0929 86.9477 30.6148 86.6348 31.221L88.4121 32.1383ZM89.1797 31.1987C89.5033 30.9231 89.8889 30.6999 90.3475 30.5343L89.6682 28.6532C89.0018 28.8938 88.403 29.2331 87.8828 29.6763L89.1797 31.1987ZM90.3703 30.5258C90.8102 30.3547 91.2882 30.2656 91.8125 30.2656V28.2656C91.0556 28.2656 90.3304 28.3953 89.6454 28.6617L90.3703 30.5258ZM91.8125 30.2656C92.3556 30.2656 92.841 30.3557 93.2782 30.5258L94.0031 28.6617C93.3153 28.3943 92.5819 28.2656 91.8125 28.2656V30.2656ZM93.301 30.5343C93.7596 30.6999 94.1452 30.9231 94.4687 31.1987L95.7657 29.6763C95.2454 29.2331 94.6467 28.8938 93.9803 28.6532L93.301 30.5343ZM94.4855 31.2127C94.7955 31.4653 95.0314 31.7639 95.2014 32.1152L97.0017 31.2441C96.703 30.6267 96.2826 30.0972 95.7489 29.6623L94.4855 31.2127ZM95.2129 32.1383C95.3917 32.4847 95.4766 32.8357 95.4766 33.2031H97.4766C97.4766 32.508 97.3114 31.8434 96.9902 31.221L95.2129 32.1383ZM112.32 1.82031L113.316 1.91276L113.427 0.717476L112.231 0.824278L112.32 1.82031ZM110.07 26.0547V27.0547H110.982L111.066 26.1471L110.07 26.0547ZM105.734 26.0547L104.75 26.2311L104.898 27.0547H105.734V26.0547ZM101.562 2.78125L101.474 1.78522L100.385 1.88241L100.578 2.95769L101.562 2.78125ZM111.945 34.7031L111.063 34.2325L111.057 34.2441L111.051 34.2559L111.945 34.7031ZM110.961 35.9453L111.593 36.7205L111.601 36.7136L111.609 36.7066L110.961 35.9453ZM109.484 36.7891L109.824 37.7296L109.835 37.7255L109.847 37.7211L109.484 36.7891ZM105.852 36.7891L105.489 37.7211L105.5 37.7255L105.512 37.7296L105.852 36.7891ZM104.375 35.9453L103.727 36.7066L103.735 36.7136L103.743 36.7205L104.375 35.9453ZM103.367 34.7031L102.473 35.1503L102.479 35.1621L102.485 35.1737L103.367 34.7031ZM103.367 31.6797L102.479 31.221L102.473 31.2325L102.467 31.2441L103.367 31.6797ZM104.375 30.4375L105.007 31.2127L105.015 31.2058L105.023 31.1987L104.375 30.4375ZM105.852 29.5938L106.191 30.5343L106.203 30.5302L106.214 30.5258L105.852 29.5938ZM109.484 29.5938L109.122 30.5258L109.133 30.5302L109.145 30.5343L109.484 29.5938ZM110.961 30.4375L110.312 31.1987L110.321 31.2058L110.329 31.2127L110.961 30.4375ZM111.945 31.6797L111.045 32.1152L111.051 32.1269L111.057 32.1383L111.945 31.6797ZM111.325 1.72787L109.075 25.9622L111.066 26.1471L113.316 1.91276L111.325 1.72787ZM110.07 25.0547H105.734V27.0547H110.07V25.0547ZM106.719 25.8782L102.547 2.60481L100.578 2.95769L104.75 26.2311L106.719 25.8782ZM101.651 3.77728L112.409 2.81635L112.231 0.824278L101.474 1.78522L101.651 3.77728ZM111.32 33.2031C111.32 33.5702 111.236 33.9086 111.063 34.2325L112.828 35.1737C113.155 34.5601 113.32 33.8985 113.32 33.2031H111.32ZM111.051 34.2559C110.88 34.5977 110.638 34.9067 110.312 35.1841L111.609 36.7066C112.128 36.2652 112.542 35.746 112.84 35.1503L111.051 34.2559ZM110.329 35.1701C109.997 35.4411 109.598 35.6721 109.122 35.8571L109.847 37.7211C110.496 37.4685 111.081 37.1371 111.593 36.7205L110.329 35.1701ZM109.145 35.8485C108.701 36.0087 108.208 36.0938 107.656 36.0938V38.0938C108.417 38.0938 109.143 37.9757 109.824 37.7296L109.145 35.8485ZM107.656 36.0938C107.123 36.0938 106.637 36.0096 106.191 35.8485L105.512 37.7296C106.191 37.9748 106.908 38.0938 107.656 38.0938V36.0938ZM106.214 35.8571C105.738 35.6721 105.339 35.4411 105.007 35.1701L103.743 36.7205C104.255 37.1371 104.84 37.4685 105.489 37.7211L106.214 35.8571ZM105.023 35.1841C104.693 34.9025 104.438 34.5858 104.25 34.2325L102.485 35.1737C102.796 35.7579 103.213 36.2694 103.727 36.7066L105.023 35.1841ZM104.262 34.2559C104.098 33.928 104.016 33.5813 104.016 33.2031H102.016C102.016 33.8874 102.168 34.5408 102.473 35.1503L104.262 34.2559ZM104.016 33.2031C104.016 32.8247 104.098 32.4656 104.267 32.1152L102.467 31.2441C102.168 31.8625 102.016 32.519 102.016 33.2031H104.016ZM104.256 32.1383C104.443 31.7758 104.691 31.4696 105.007 31.2127L103.743 29.6623C103.215 30.0929 102.791 30.6148 102.479 31.221L104.256 32.1383ZM105.023 31.1987C105.347 30.9231 105.733 30.6999 106.191 30.5343L105.512 28.6532C104.846 28.8938 104.247 29.2331 103.727 29.6763L105.023 31.1987ZM106.214 30.5258C106.654 30.3547 107.132 30.2656 107.656 30.2656V28.2656C106.899 28.2656 106.174 28.3953 105.489 28.6617L106.214 30.5258ZM107.656 30.2656C108.199 30.2656 108.685 30.3557 109.122 30.5258L109.847 28.6617C109.159 28.3943 108.426 28.2656 107.656 28.2656V30.2656ZM109.145 30.5343C109.603 30.6999 109.989 30.9231 110.312 31.1987L111.609 29.6763C111.089 29.2331 110.49 28.8938 109.824 28.6532L109.145 30.5343ZM110.329 31.2127C110.639 31.4653 110.875 31.7639 111.045 32.1152L112.845 31.2441C112.547 30.6267 112.126 30.0972 111.593 29.6623L110.329 31.2127ZM111.057 32.1383C111.235 32.4847 111.32 32.8357 111.32 33.2031H113.32C113.32 32.508 113.155 31.8434 112.834 31.221L111.057 32.1383ZM128.164 1.82031L129.16 1.91276L129.271 0.717476L128.075 0.824278L128.164 1.82031ZM125.914 26.0547V27.0547H126.826L126.91 26.1471L125.914 26.0547ZM121.578 26.0547L120.594 26.2311L120.741 27.0547H121.578V26.0547ZM117.406 2.78125L117.317 1.78522L116.229 1.88241L116.422 2.95769L117.406 2.78125ZM127.789 34.7031L126.907 34.2325L126.901 34.2441L126.895 34.2559L127.789 34.7031ZM126.805 35.9453L127.436 36.7205L127.445 36.7136L127.453 36.7066L126.805 35.9453ZM125.328 36.7891L125.668 37.7296L125.679 37.7255L125.691 37.7211L125.328 36.7891ZM121.695 36.7891L121.333 37.7211L121.344 37.7255L121.356 37.7296L121.695 36.7891ZM120.219 35.9453L119.57 36.7066L119.579 36.7136L119.587 36.7205L120.219 35.9453ZM119.211 34.7031L118.317 35.1503L118.322 35.1621L118.329 35.1737L119.211 34.7031ZM119.211 31.6797L118.322 31.221L118.316 31.2325L118.311 31.2441L119.211 31.6797ZM120.219 30.4375L120.85 31.2127L120.859 31.2058L120.867 31.1987L120.219 30.4375ZM121.695 29.5938L122.035 30.5343L122.046 30.5302L122.058 30.5258L121.695 29.5938ZM125.328 29.5938L124.966 30.5258L124.977 30.5302L124.988 30.5343L125.328 29.5938ZM126.805 30.4375L126.156 31.1987L126.165 31.2058L126.173 31.2127L126.805 30.4375ZM127.789 31.6797L126.889 32.1152L126.895 32.1269L126.9 32.1383L127.789 31.6797ZM127.168 1.72787L124.918 25.9622L126.91 26.1471L129.16 1.91276L127.168 1.72787ZM125.914 25.0547H121.578V27.0547H125.914V25.0547ZM122.562 25.8782L118.391 2.60481L116.422 2.95769L120.594 26.2311L122.562 25.8782ZM117.495 3.77728L128.253 2.81635L128.075 0.824278L117.317 1.78522L117.495 3.77728ZM127.164 33.2031C127.164 33.5702 127.079 33.9086 126.907 34.2325L128.671 35.1737C128.999 34.5601 129.164 33.8985 129.164 33.2031H127.164ZM126.895 34.2559C126.724 34.5977 126.482 34.9067 126.156 35.1841L127.453 36.7066C127.971 36.2652 128.386 35.746 128.683 35.1503L126.895 34.2559ZM126.173 35.1701C125.84 35.4411 125.441 35.6721 124.966 35.8571L125.691 37.7211C126.34 37.4685 126.925 37.1371 127.436 36.7205L126.173 35.1701ZM124.988 35.8485C124.545 36.0087 124.052 36.0938 123.5 36.0938V38.0938C124.261 38.0938 124.986 37.9757 125.668 37.7296L124.988 35.8485ZM123.5 36.0938C122.967 36.0938 122.481 36.0096 122.035 35.8485L121.356 37.7296C122.035 37.9748 122.752 38.0938 123.5 38.0938V36.0938ZM122.058 35.8571C121.582 35.6721 121.183 35.4411 120.85 35.1701L119.587 36.7205C120.098 37.1371 120.684 37.4685 121.333 37.7211L122.058 35.8571ZM120.867 35.1841C120.537 34.9025 120.282 34.5858 120.093 34.2325L118.329 35.1737C118.64 35.7579 119.057 36.2694 119.57 36.7066L120.867 35.1841ZM120.105 34.2559C119.941 33.928 119.859 33.5813 119.859 33.2031H117.859C117.859 33.8874 118.012 34.5408 118.317 35.1503L120.105 34.2559ZM119.859 33.2031C119.859 32.8247 119.942 32.4656 120.111 32.1152L118.311 31.2441C118.012 31.8625 117.859 32.519 117.859 33.2031H119.859ZM120.1 32.1383C120.287 31.7758 120.535 31.4696 120.85 31.2127L119.587 29.6623C119.059 30.0929 118.635 30.6148 118.322 31.221L120.1 32.1383ZM120.867 31.1987C121.191 30.9231 121.576 30.6999 122.035 30.5343L121.356 28.6532C120.689 28.8938 120.09 29.2331 119.57 29.6763L120.867 31.1987ZM122.058 30.5258C122.498 30.3547 122.976 30.2656 123.5 30.2656V28.2656C122.743 28.2656 122.018 28.3953 121.333 28.6617L122.058 30.5258ZM123.5 30.2656C124.043 30.2656 124.528 30.3557 124.966 30.5258L125.691 28.6617C125.003 28.3943 124.269 28.2656 123.5 28.2656V30.2656ZM124.988 30.5343C125.447 30.6999 125.833 30.9231 126.156 31.1987L127.453 29.6763C126.933 29.2331 126.334 28.8938 125.668 28.6532L124.988 30.5343ZM126.173 31.2127C126.483 31.4653 126.719 31.7639 126.889 32.1152L128.689 31.2441C128.39 30.6267 127.97 30.0972 127.436 29.6623L126.173 31.2127ZM126.9 32.1383C127.079 32.4847 127.164 32.8357 127.164 33.2031H129.164C129.164 32.508 128.999 31.8434 128.678 31.221L126.9 32.1383Z" fill="black"/>
</svg>
