<svg width="30" height="10" viewBox="0 0 30 10" fill="none" xmlns="http://www.w3.org/2000/svg">
<path d="M1 3.85714V3.85714C2.21987 5.03345 4.01114 5.3957 5.59223 4.78585L8 3.85714V3.85714C12.3578 1.45592 17.6422 1.45592 22 3.85714V3.85714L24.4078 4.78585C25.9889 5.3957 27.7801 5.03345 29 3.85714V3.85714" stroke="black"/>
<path d="M4.5 5.14285L9.75 7.07142V7.07142C13.1393 8.31646 16.8607 8.31646 20.25 7.07142V7.07142L25.5 5.14285" stroke="black"/>
<line x1="8.5" y1="3.21429" x2="8.5" y2="7.07144" stroke="black"/>
<line x1="11.5" y1="1.92856" x2="11.5" y2="7.42856" stroke="black"/>
<line x1="14.5" y1="1.92856" x2="14.5" y2="8.42856" stroke="black"/>
<line x1="17.5" y1="1.92856" x2="17.5" y2="8.35713" stroke="black"/>
<line x1="20.5" y1="3.21429" x2="20.5" y2="7.07144" stroke="black"/>
</svg>
