<svg width="50" height="20" viewBox="0 0 50 20" fill="none" xmlns="http://www.w3.org/2000/svg">
<path d="M22.2273 5C22.2273 5.52592 21.9871 6.06571 21.4738 6.59972C20.9581 7.1362 20.1879 7.64213 19.1976 8.07788C17.2183 8.94875 14.449 9.5 11.3636 9.5C8.27827 9.5 5.50896 8.94875 3.5297 8.07788C2.53937 7.64213 1.76918 7.1362 1.25347 6.59972C0.740143 6.06571 0.5 5.52592 0.5 5C0.5 4.47408 0.740143 3.93429 1.25347 3.40028C1.76918 2.8638 2.53937 2.35787 3.5297 1.92212C5.50896 1.05125 8.27827 0.5 11.3636 0.5C14.449 0.5 17.2183 1.05125 19.1976 1.92212C20.1879 2.35787 20.9581 2.8638 21.4738 3.40028C21.9871 3.93429 22.2273 4.47408 22.2273 5Z" fill="#C4C4C4" fill-opacity="0.3" stroke="black"/>
<path d="M49.5 5C49.5 5.52592 49.2599 6.06571 48.7465 6.59972C48.2308 7.1362 47.4606 7.64213 46.4703 8.07788C44.491 8.94875 41.7217 9.5 38.6364 9.5C35.551 9.5 32.7817 8.94875 30.8024 8.07788C29.8121 7.64213 29.0419 7.1362 28.5262 6.59972C28.0129 6.06571 27.7727 5.52592 27.7727 5C27.7727 4.47408 28.0129 3.93429 28.5262 3.40028C29.0419 2.8638 29.8121 2.35787 30.8024 1.92212C32.7817 1.05125 35.551 0.5 38.6364 0.5C41.7217 0.5 44.491 1.05125 46.4703 1.92212C47.4606 2.35787 48.2308 2.8638 48.7465 3.40028C49.2599 3.93429 49.5 4.47408 49.5 5Z" fill="#C4C4C4" fill-opacity="0.3" stroke="black"/>
<path d="M22 5.5V5.5C22.6739 8.75713 27.3261 8.75713 28 5.5V5.5" stroke="black"/>
</svg>
