<svg width="25" height="39" viewBox="0 0 25 39" fill="none" xmlns="http://www.w3.org/2000/svg">
<path d="M12.3516 0.671875C15.9922 0.671875 18.8828 1.80469 21.0234 4.07031C23.1328 6.30469 24.1875 9.07812 24.1875 12.3906C24.1875 16.0781 21.6172 19.6641 16.4766 23.1484C15.1172 24.0703 14.4141 25.1406 14.3672 26.3594L10.6641 28.1172H10.4297C10.4453 25.1328 11.7188 22.7812 14.25 21.0625C17.7812 18.6719 19.5469 15.7734 19.5469 12.3672C19.5469 10.3516 18.9688 8.66406 17.8125 7.30469C16.4219 5.69531 14.6016 4.89062 12.3516 4.89062C10.0703 4.89062 8.25 5.69531 6.89062 7.30469C5.76562 8.61719 5.20312 10.1797 5.20312 11.9922C5.20312 13.0078 5.50781 14.0469 6.11719 15.1094L2.17969 17.0078H1.94531C0.992188 15.3203 0.515625 12.9219 0.515625 9.8125L12.3516 0.671875ZM10.0078 37.9375V32.5938L14.4609 30.4844H14.6953V35.8281L10.2422 37.9375H10.0078Z" fill="white"/>
<path d="M12.3516 0.671875V0.171875H12.181L12.046 0.276146L12.3516 0.671875ZM21.0234 4.07031L21.387 3.72708L21.3869 3.72693L21.0234 4.07031ZM16.4766 23.1484L16.196 22.7346L16.1959 22.7346L16.4766 23.1484ZM14.3672 26.3594L14.5816 26.8111L14.8552 26.6812L14.8668 26.3786L14.3672 26.3594ZM10.6641 28.1172V28.6172H10.7767L10.8785 28.5689L10.6641 28.1172ZM10.4297 28.1172L9.92969 28.1146L9.92706 28.6172H10.4297V28.1172ZM14.25 21.0625L13.9697 20.6485L13.9691 20.6488L14.25 21.0625ZM17.8125 7.30469L18.1934 6.98073L18.1908 6.97778L17.8125 7.30469ZM6.89062 7.30469L7.27026 7.63009L7.2726 7.62733L6.89062 7.30469ZM6.11719 15.1094L6.33434 15.5598L6.81812 15.3265L6.55092 14.8606L6.11719 15.1094ZM2.17969 17.0078V17.5078H2.29393L2.39684 17.4582L2.17969 17.0078ZM1.94531 17.0078L1.50996 17.2537L1.65348 17.5078H1.94531V17.0078ZM0.515625 9.8125L0.210013 9.41677L0.015625 9.56689V9.8125H0.515625ZM10.0078 37.9375H9.50781V38.4375H10.0078V37.9375ZM10.0078 32.5938L9.79377 32.1419L9.50781 32.2773V32.5938H10.0078ZM14.4609 30.4844V29.9844H14.3485L14.2469 30.0325L14.4609 30.4844ZM14.6953 30.4844H15.1953V29.9844H14.6953V30.4844ZM14.6953 35.8281L14.9094 36.28L15.1953 36.1445V35.8281H14.6953ZM10.2422 37.9375V38.4375H10.3546L10.4562 38.3894L10.2422 37.9375ZM12.3516 1.17188C15.8798 1.17188 18.6298 2.26497 20.66 4.4137L21.3869 3.72693C19.1358 1.34441 16.1045 0.171875 12.3516 0.171875V1.17188ZM20.6599 4.41355C22.6744 6.54748 23.6875 9.19485 23.6875 12.3906H24.6875C24.6875 8.9614 23.5912 6.0619 21.387 3.72708L20.6599 4.41355ZM23.6875 12.3906C23.6875 15.8241 21.2937 19.2793 16.196 22.7346L16.7571 23.5623C21.9407 20.0488 24.6875 16.3322 24.6875 12.3906H23.6875ZM16.1959 22.7346C14.7544 23.7122 13.9225 24.911 13.8676 26.3402L14.8668 26.3786C14.9056 25.3702 15.4799 24.4284 16.7572 23.5623L16.1959 22.7346ZM14.1528 25.9077L10.4497 27.6655L10.8785 28.5689L14.5816 26.8111L14.1528 25.9077ZM10.6641 27.6172H10.4297V28.6172H10.6641V27.6172ZM10.9297 28.1198C10.9444 25.3051 12.1318 23.1051 14.5309 21.4762L13.9691 20.6488C11.3057 22.4574 9.94621 24.9605 9.92969 28.1146L10.9297 28.1198ZM14.5303 21.4765C18.1598 19.0194 20.0469 15.9816 20.0469 12.3672H19.0469C19.0469 15.5653 17.4027 18.3244 13.9697 20.6485L14.5303 21.4765ZM20.0469 12.3672C20.0469 10.2492 19.4365 8.44226 18.1934 6.98074L17.4316 7.62864C18.501 8.88587 19.0469 10.4539 19.0469 12.3672H20.0469ZM18.1908 6.97778C16.6991 5.25146 14.7373 4.39062 12.3516 4.39062V5.39062C14.4659 5.39062 16.1446 6.13917 17.4342 7.63159L18.1908 6.97778ZM12.3516 4.39062C9.93693 4.39062 7.97162 5.25003 6.50865 6.98205L7.2726 7.62733C8.52838 6.14059 10.2037 5.39062 12.3516 5.39062V4.39062ZM6.511 6.97929C5.30432 8.38708 4.70312 10.0666 4.70312 11.9922H5.70312C5.70312 10.2927 6.22693 8.84729 7.27025 7.63008L6.511 6.97929ZM4.70312 11.9922C4.70312 13.1115 5.0396 14.2355 5.68346 15.3581L6.55092 14.8606C5.97603 13.8583 5.70312 12.9042 5.70312 11.9922H4.70312ZM5.90004 14.659L1.96254 16.5574L2.39684 17.4582L6.33434 15.5598L5.90004 14.659ZM2.17969 16.5078H1.94531V17.5078H2.17969V16.5078ZM2.38067 16.7619C1.48817 15.1818 1.01562 12.8825 1.01562 9.8125H0.015625C0.015625 12.9612 0.496205 15.4589 1.50996 17.2537L2.38067 16.7619ZM0.821237 10.2082L12.6572 1.0676L12.046 0.276146L0.210013 9.41677L0.821237 10.2082ZM10.5078 37.9375V32.5938H9.50781V37.9375H10.5078ZM10.2219 33.0456L14.675 30.9362L14.2469 30.0325L9.79377 32.1419L10.2219 33.0456ZM14.4609 30.9844H14.6953V29.9844H14.4609V30.9844ZM14.1953 30.4844V35.8281H15.1953V30.4844H14.1953ZM14.4813 35.3763L10.0281 37.4856L10.4562 38.3894L14.9094 36.28L14.4813 35.3763ZM10.2422 37.4375H10.0078V38.4375H10.2422V37.4375Z" fill="black"/>
</svg>
