<svg width="121" height="64" viewBox="0 0 121 64" fill="none" xmlns="http://www.w3.org/2000/svg">
<path d="M18.0654 19.0156L17.9775 22.7363L5.37988 23.1172V18.5029L10.2725 18.708L9.33496 6.88672L4.12012 6.91602L4.03223 11.208H1.5127L2.25977 2.47754L21.5225 1.70117L22.6357 10.8271L19.8672 11.208L19.7793 6.82812L13.9639 6.85742L12.9971 18.7959L18.0654 19.0156ZM40.6533 17.9902C40.2822 18.957 39.7646 19.7969 39.1006 20.5098C38.4463 21.2129 37.7041 21.7988 36.874 22.2676C36.0439 22.7266 35.165 23.0684 34.2373 23.293C33.3096 23.5176 32.3965 23.6299 31.498 23.6299C30.248 23.6299 29.1348 23.4346 28.1582 23.0439C27.1816 22.6533 26.3516 22.126 25.668 21.4619C24.9844 20.7979 24.4473 20.0215 24.0566 19.1328C23.6758 18.2344 23.4561 17.2822 23.3975 16.2764C23.3975 14.7432 23.6514 13.4346 24.1592 12.3506C24.6768 11.2568 25.375 10.3682 26.2539 9.68457C27.1426 9.00098 28.1777 8.50293 29.3594 8.19043C30.541 7.86816 31.7959 7.70703 33.124 7.70703C33.6123 7.70703 34.1152 7.74121 34.6328 7.80957C35.1602 7.87793 35.6729 8 36.1709 8.17578C36.6689 8.35156 37.1426 8.5957 37.5918 8.9082C38.0508 9.21094 38.4609 9.60645 38.8223 10.0947C39.1934 10.5732 39.5059 11.1494 39.7598 11.8232C40.0137 12.4971 40.1895 13.293 40.2871 14.2109L28.2607 16.3643C28.3389 17.0381 28.4756 17.6973 28.6709 18.3418C28.876 18.9863 29.1494 19.5576 29.4912 20.0557C29.833 20.5439 30.2529 20.9346 30.751 21.2275C31.2588 21.5107 31.8594 21.6426 32.5527 21.623C33.3047 21.5352 33.9688 21.3105 34.5449 20.9492C34.7891 20.793 35.0234 20.6025 35.248 20.3779C35.4727 20.1436 35.668 19.8652 35.834 19.543C36 19.2207 36.1221 18.8447 36.2002 18.415C36.2783 17.9854 36.293 17.4922 36.2441 16.9355L40.6533 17.9902ZM35.1016 13.2734C35.0625 12.8145 34.9795 12.4141 34.8525 12.0723C34.7256 11.7305 34.5645 11.4375 34.3691 11.1934C34.1836 10.9492 33.9736 10.749 33.7393 10.5928C33.5146 10.4268 33.2852 10.2949 33.0508 10.1973C32.5039 9.97266 31.8887 9.87012 31.2051 9.88965C30.5605 9.96777 30.0381 10.1533 29.6377 10.4463C29.2373 10.7295 28.9248 11.0859 28.7002 11.5156C28.4854 11.9355 28.3389 12.4043 28.2607 12.9219C28.1826 13.4395 28.1436 13.9668 28.1436 14.5039L35.1016 13.2734ZM58.9932 17.9902C58.6221 18.957 58.1045 19.7969 57.4404 20.5098C56.7861 21.2129 56.0439 21.7988 55.2139 22.2676C54.3838 22.7266 53.5049 23.0684 52.5771 23.293C51.6494 23.5176 50.7363 23.6299 49.8379 23.6299C48.5879 23.6299 47.4746 23.4346 46.498 23.0439C45.5215 22.6533 44.6914 22.126 44.0078 21.4619C43.3242 20.7979 42.7871 20.0215 42.3965 19.1328C42.0156 18.2344 41.7959 17.2822 41.7373 16.2764C41.7373 14.7432 41.9912 13.4346 42.499 12.3506C43.0166 11.2568 43.7148 10.3682 44.5938 9.68457C45.4824 9.00098 46.5176 8.50293 47.6992 8.19043C48.8809 7.86816 50.1357 7.70703 51.4639 7.70703C51.9521 7.70703 52.4551 7.74121 52.9727 7.80957C53.5 7.87793 54.0127 8 54.5107 8.17578C55.0088 8.35156 55.4824 8.5957 55.9316 8.9082C56.3906 9.21094 56.8008 9.60645 57.1621 10.0947C57.5332 10.5732 57.8457 11.1494 58.0996 11.8232C58.3535 12.4971 58.5293 13.293 58.627 14.2109L46.6006 16.3643C46.6787 17.0381 46.8154 17.6973 47.0107 18.3418C47.2158 18.9863 47.4893 19.5576 47.8311 20.0557C48.1729 20.5439 48.5928 20.9346 49.0908 21.2275C49.5986 21.5107 50.1992 21.6426 50.8926 21.623C51.6445 21.5352 52.3086 21.3105 52.8848 20.9492C53.1289 20.793 53.3633 20.6025 53.5879 20.3779C53.8125 20.1436 54.0078 19.8652 54.1738 19.543C54.3398 19.2207 54.4619 18.8447 54.54 18.415C54.6182 17.9854 54.6328 17.4922 54.584 16.9355L58.9932 17.9902ZM53.4414 13.2734C53.4023 12.8145 53.3193 12.4141 53.1924 12.0723C53.0654 11.7305 52.9043 11.4375 52.709 11.1934C52.5234 10.9492 52.3135 10.749 52.0791 10.5928C51.8545 10.4268 51.625 10.2949 51.3906 10.1973C50.8438 9.97266 50.2285 9.87012 49.5449 9.88965C48.9004 9.96777 48.3779 10.1533 47.9775 10.4463C47.5771 10.7295 47.2646 11.0859 47.04 11.5156C46.8252 11.9355 46.6787 12.4043 46.6006 12.9219C46.5225 13.4395 46.4834 13.9668 46.4834 14.5039L53.4414 13.2734ZM15.3115 50.3545L14.8867 54.1045L2.94824 54.7051L2.55273 49.6953L15.3115 50.3545ZM54.4668 62.3955L41.8691 62L41.7812 58.2793L46.1025 58.1035L46.5127 52.6396L34.8525 53.3281L34.457 57.6494L39.6133 57.6787L39.4082 62.293L26.8398 61.2822L26.9277 57.5615L31.6299 57.6201L31.1611 45.0811L26.8398 45.1982V40.584L39.5254 41.0967L39.4375 44.8027L35.6582 44.9346L35.1455 50.1201H46.7324L47.1426 45.1104L41.8984 45.5352L41.6494 40.877L54.3496 40.7598L54.4668 44.4805L49.9697 44.876V57.957L54.4668 57.7666V62.3955ZM73.2607 56.9902C72.8896 57.957 72.3721 58.7969 71.708 59.5098C71.0537 60.2129 70.3115 60.7988 69.4814 61.2676C68.6514 61.7266 67.7725 62.0684 66.8447 62.293C65.917 62.5176 65.0039 62.6299 64.1055 62.6299C62.8555 62.6299 61.7422 62.4346 60.7656 62.0439C59.7891 61.6533 58.959 61.126 58.2754 60.4619C57.5918 59.7979 57.0547 59.0215 56.6641 58.1328C56.2832 57.2344 56.0635 56.2822 56.0049 55.2764C56.0049 53.7432 56.2588 52.4346 56.7666 51.3506C57.2842 50.2568 57.9824 49.3682 58.8613 48.6846C59.75 48.001 60.7852 47.5029 61.9668 47.1904C63.1484 46.8682 64.4033 46.707 65.7314 46.707C66.2197 46.707 66.7227 46.7412 67.2402 46.8096C67.7676 46.8779 68.2803 47 68.7783 47.1758C69.2764 47.3516 69.75 47.5957 70.1992 47.9082C70.6582 48.2109 71.0684 48.6064 71.4297 49.0947C71.8008 49.5732 72.1133 50.1494 72.3672 50.8232C72.6211 51.4971 72.7969 52.293 72.8945 53.2109L60.8682 55.3643C60.9463 56.0381 61.083 56.6973 61.2783 57.3418C61.4834 57.9863 61.7568 58.5576 62.0986 59.0557C62.4404 59.5439 62.8604 59.9346 63.3584 60.2275C63.8662 60.5107 64.4668 60.6426 65.1602 60.623C65.9121 60.5352 66.5762 60.3105 67.1523 59.9492C67.3965 59.793 67.6309 59.6025 67.8555 59.3779C68.0801 59.1436 68.2754 58.8652 68.4414 58.543C68.6074 58.2207 68.7295 57.8447 68.8076 57.415C68.8857 56.9854 68.9004 56.4922 68.8516 55.9355L73.2607 56.9902ZM67.709 52.2734C67.6699 51.8145 67.5869 51.4141 67.46 51.0723C67.333 50.7305 67.1719 50.4375 66.9766 50.1934C66.791 49.9492 66.5811 49.749 66.3467 49.5928C66.1221 49.4268 65.8926 49.2949 65.6582 49.1973C65.1113 48.9727 64.4961 48.8701 63.8125 48.8896C63.168 48.9678 62.6455 49.1533 62.2451 49.4463C61.8447 49.7295 61.5322 50.0859 61.3076 50.5156C61.0928 50.9355 60.9463 51.4043 60.8682 51.9219C60.79 52.4395 60.751 52.9668 60.751 53.5039L67.709 52.2734ZM91.6006 56.9902C91.2295 57.957 90.7119 58.7969 90.0479 59.5098C89.3936 60.2129 88.6514 60.7988 87.8213 61.2676C86.9912 61.7266 86.1123 62.0684 85.1846 62.293C84.2568 62.5176 83.3438 62.6299 82.4453 62.6299C81.1953 62.6299 80.082 62.4346 79.1055 62.0439C78.1289 61.6533 77.2988 61.126 76.6152 60.4619C75.9316 59.7979 75.3945 59.0215 75.0039 58.1328C74.623 57.2344 74.4033 56.2822 74.3447 55.2764C74.3447 53.7432 74.5986 52.4346 75.1064 51.3506C75.624 50.2568 76.3223 49.3682 77.2012 48.6846C78.0898 48.001 79.125 47.5029 80.3066 47.1904C81.4883 46.8682 82.7432 46.707 84.0713 46.707C84.5596 46.707 85.0625 46.7412 85.5801 46.8096C86.1074 46.8779 86.6201 47 87.1182 47.1758C87.6162 47.3516 88.0898 47.5957 88.5391 47.9082C88.998 48.2109 89.4082 48.6064 89.7695 49.0947C90.1406 49.5732 90.4531 50.1494 90.707 50.8232C90.9609 51.4971 91.1367 52.293 91.2344 53.2109L79.208 55.3643C79.2861 56.0381 79.4229 56.6973 79.6182 57.3418C79.8232 57.9863 80.0967 58.5576 80.4385 59.0557C80.7803 59.5439 81.2002 59.9346 81.6982 60.2275C82.2061 60.5107 82.8066 60.6426 83.5 60.623C84.252 60.5352 84.916 60.3105 85.4922 59.9492C85.7363 59.793 85.9707 59.6025 86.1953 59.3779C86.4199 59.1436 86.6152 58.8652 86.7812 58.543C86.9473 58.2207 87.0693 57.8447 87.1475 57.415C87.2256 56.9854 87.2402 56.4922 87.1914 55.9355L91.6006 56.9902ZM86.0488 52.2734C86.0098 51.8145 85.9268 51.4141 85.7998 51.0723C85.6729 50.7305 85.5117 50.4375 85.3164 50.1934C85.1309 49.9492 84.9209 49.749 84.6865 49.5928C84.4619 49.4268 84.2324 49.2949 83.998 49.1973C83.4512 48.9727 82.8359 48.8701 82.1523 48.8896C81.5078 48.9678 80.9854 49.1533 80.585 49.4463C80.1846 49.7295 79.8721 50.0859 79.6475 50.5156C79.4326 50.9355 79.2861 51.4043 79.208 51.9219C79.1299 52.4395 79.0908 52.9668 79.0908 53.5039L86.0488 52.2734ZM100.038 40.0127L98.6318 55.1592H95.9219L93.3145 40.6133L100.038 40.0127ZM100.038 59.627C100.038 59.959 99.96 60.2715 99.8037 60.5645C99.6572 60.8574 99.4521 61.1162 99.1885 61.3408C98.9248 61.5557 98.6172 61.7314 98.2656 61.8682C97.9141 61.9951 97.5332 62.0586 97.123 62.0586C96.7227 62.0586 96.3467 61.9951 95.9951 61.8682C95.6436 61.7314 95.3359 61.5557 95.0723 61.3408C94.8086 61.1162 94.5986 60.8574 94.4424 60.5645C94.2959 60.2715 94.2227 59.959 94.2227 59.627C94.2227 59.2949 94.2959 58.9775 94.4424 58.6748C94.5986 58.3721 94.8086 58.1133 95.0723 57.8984C95.3359 57.6738 95.6436 57.498 95.9951 57.3711C96.3467 57.2344 96.7227 57.166 97.123 57.166C97.5332 57.166 97.9141 57.2344 98.2656 57.3711C98.6172 57.498 98.9248 57.6738 99.1885 57.8984C99.4521 58.1133 99.6572 58.3721 99.8037 58.6748C99.96 58.9775 100.038 59.2949 100.038 59.627ZM109.94 40.0127L108.534 55.1592H105.824L103.217 40.6133L109.94 40.0127ZM109.94 59.627C109.94 59.959 109.862 60.2715 109.706 60.5645C109.56 60.8574 109.354 61.1162 109.091 61.3408C108.827 61.5557 108.52 61.7314 108.168 61.8682C107.816 61.9951 107.436 62.0586 107.025 62.0586C106.625 62.0586 106.249 61.9951 105.897 61.8682C105.546 61.7314 105.238 61.5557 104.975 61.3408C104.711 61.1162 104.501 60.8574 104.345 60.5645C104.198 60.2715 104.125 59.959 104.125 59.627C104.125 59.2949 104.198 58.9775 104.345 58.6748C104.501 58.3721 104.711 58.1133 104.975 57.8984C105.238 57.6738 105.546 57.498 105.897 57.3711C106.249 57.2344 106.625 57.166 107.025 57.166C107.436 57.166 107.816 57.2344 108.168 57.3711C108.52 57.498 108.827 57.6738 109.091 57.8984C109.354 58.1133 109.56 58.3721 109.706 58.6748C109.862 58.9775 109.94 59.2949 109.94 59.627ZM119.843 40.0127L118.437 55.1592H115.727L113.119 40.6133L119.843 40.0127ZM119.843 59.627C119.843 59.959 119.765 60.2715 119.608 60.5645C119.462 60.8574 119.257 61.1162 118.993 61.3408C118.729 61.5557 118.422 61.7314 118.07 61.8682C117.719 61.9951 117.338 62.0586 116.928 62.0586C116.527 62.0586 116.151 61.9951 115.8 61.8682C115.448 61.7314 115.141 61.5557 114.877 61.3408C114.613 61.1162 114.403 60.8574 114.247 60.5645C114.101 60.2715 114.027 59.959 114.027 59.627C114.027 59.2949 114.101 58.9775 114.247 58.6748C114.403 58.3721 114.613 58.1133 114.877 57.8984C115.141 57.6738 115.448 57.498 115.8 57.3711C116.151 57.2344 116.527 57.166 116.928 57.166C117.338 57.166 117.719 57.2344 118.07 57.3711C118.422 57.498 118.729 57.6738 118.993 57.8984C119.257 58.1133 119.462 58.3721 119.608 58.6748C119.765 58.9775 119.843 59.2949 119.843 59.627Z" fill="white"/>
<path d="M18.0654 19.0156L19.0652 19.0392L19.0883 18.059L18.1087 18.0166L18.0654 19.0156ZM17.9775 22.7363L18.0078 23.7359L18.9549 23.7072L18.9773 22.7599L17.9775 22.7363ZM5.37988 23.1172H4.37988V24.1479L5.4101 24.1167L5.37988 23.1172ZM5.37988 18.5029L5.42176 17.5038L4.37988 17.4601V18.5029H5.37988ZM10.2725 18.708L10.2306 19.7071L11.3586 19.7544L11.2693 18.6289L10.2725 18.708ZM9.33496 6.88672L10.3318 6.80766L10.2584 5.88152L9.32934 5.88673L9.33496 6.88672ZM4.12012 6.91602L4.1145 5.91603L3.14027 5.9215L3.12033 6.89554L4.12012 6.91602ZM4.03223 11.208V12.208H5.01196L5.03202 11.2285L4.03223 11.208ZM1.5127 11.208L0.516336 11.1227L0.42347 12.208H1.5127V11.208ZM2.25977 2.47754L2.21949 1.47835L1.33857 1.51386L1.26341 2.39228L2.25977 2.47754ZM21.5225 1.70117L22.5151 1.58008L22.4035 0.664852L21.4822 0.701983L21.5225 1.70117ZM22.6357 10.8271L22.772 11.8178L23.7476 11.6836L23.6284 10.7061L22.6357 10.8271ZM19.8672 11.208L18.8674 11.2281L18.8899 12.3519L20.0035 12.1987L19.8672 11.208ZM19.7793 6.82812L20.7791 6.80806L20.7593 5.82318L19.7743 5.82814L19.7793 6.82812ZM13.9639 6.85742L13.9588 5.85743L13.0412 5.86206L12.9671 6.7767L13.9639 6.85742ZM12.9971 18.7959L12.0003 18.7152L11.9165 19.75L12.9538 19.795L12.9971 18.7959ZM17.0657 18.992L16.9778 22.7127L18.9773 22.7599L19.0652 19.0392L17.0657 18.992ZM17.9473 21.7368L5.34966 22.1176L5.4101 24.1167L18.0078 23.7359L17.9473 21.7368ZM6.37988 23.1172V18.5029H4.37988V23.1172H6.37988ZM5.338 19.5021L10.2306 19.7071L10.3143 17.7089L5.42176 17.5038L5.338 19.5021ZM11.2693 18.6289L10.3318 6.80766L8.33809 6.96578L9.27559 18.7871L11.2693 18.6289ZM9.32934 5.88673L4.1145 5.91603L4.12574 7.916L9.34058 7.8867L9.32934 5.88673ZM3.12033 6.89554L3.03244 11.1875L5.03202 11.2285L5.11991 6.93649L3.12033 6.89554ZM4.03223 10.208H1.5127V12.208H4.03223V10.208ZM2.50905 11.2933L3.25612 2.5628L1.26341 2.39228L0.516336 11.1227L2.50905 11.2933ZM2.30004 3.47673L21.5627 2.70036L21.4822 0.701983L2.21949 1.47835L2.30004 3.47673ZM20.5298 1.82226L21.6431 10.9482L23.6284 10.7061L22.5151 1.58008L20.5298 1.82226ZM22.4995 9.83648L19.7309 10.2173L20.0035 12.1987L22.772 11.8178L22.4995 9.83648ZM20.867 11.1879L20.7791 6.80806L18.7795 6.84819L18.8674 11.2281L20.867 11.1879ZM19.7743 5.82814L13.9588 5.85743L13.9689 7.85741L19.7843 7.82811L19.7743 5.82814ZM12.9671 6.7767L12.0003 18.7152L13.9938 18.8766L14.9606 6.93814L12.9671 6.7767ZM12.9538 19.795L18.0221 20.0147L18.1087 18.0166L13.0404 17.7968L12.9538 19.795ZM40.6533 17.9902L41.5869 18.3486L41.9959 17.2832L40.886 17.0177L40.6533 17.9902ZM39.1006 20.5098L38.3689 19.8282L38.3685 19.8285L39.1006 20.5098ZM36.874 22.2676L37.3579 23.1427L37.3657 23.1383L36.874 22.2676ZM34.2373 23.293L34.002 22.321L34.2373 23.293ZM25.668 21.4619L24.9712 22.1792L25.668 21.4619ZM24.0566 19.1328L23.1359 19.5231L23.1412 19.5352L24.0566 19.1328ZM23.3975 16.2764H22.3975V16.3055L22.3992 16.3345L23.3975 16.2764ZM24.1592 12.3506L23.2553 11.9228L23.2536 11.9264L24.1592 12.3506ZM26.2539 9.68457L25.6442 8.89193L25.64 8.89522L26.2539 9.68457ZM29.3594 8.19043L29.6151 9.15722L29.6225 9.15519L29.3594 8.19043ZM34.6328 7.80957L34.5019 8.80096L34.5043 8.80127L34.6328 7.80957ZM37.5918 8.9082L37.0207 9.72911L37.0309 9.73617L37.0412 9.74298L37.5918 8.9082ZM38.8223 10.0947L38.0184 10.6896L38.0251 10.6986L38.032 10.7076L38.8223 10.0947ZM40.2871 14.2109L40.4634 15.1953L41.38 15.0312L41.2815 14.1052L40.2871 14.2109ZM28.2607 16.3643L28.0845 15.3799L27.1591 15.5456L27.2674 16.4794L28.2607 16.3643ZM28.6709 18.3418L27.7138 18.6318L27.718 18.645L28.6709 18.3418ZM29.4912 20.0557L28.6667 20.6215L28.672 20.6291L29.4912 20.0557ZM30.751 21.2275L30.244 22.0895L30.2539 22.0953L30.2639 22.1009L30.751 21.2275ZM32.5527 21.623L32.5809 22.6227L32.625 22.6214L32.6688 22.6163L32.5527 21.623ZM34.5449 20.9492L35.0762 21.7964L35.084 21.7915L34.5449 20.9492ZM35.248 20.3779L35.9552 21.085L35.9627 21.0775L35.97 21.0698L35.248 20.3779ZM36.2441 16.9355L36.4768 15.963L35.1267 15.64L35.248 17.0229L36.2441 16.9355ZM35.1016 13.2734L35.2757 14.2582L36.1754 14.099L36.098 13.1886L35.1016 13.2734ZM34.3691 11.1934L33.573 11.7984L33.5805 11.8083L33.5883 11.8181L34.3691 11.1934ZM33.7393 10.5928L33.1449 11.3969L33.1644 11.4114L33.1846 11.4248L33.7393 10.5928ZM33.0508 10.1973L33.4354 9.27418L33.4307 9.27225L33.0508 10.1973ZM31.2051 9.88965L31.1765 8.89006L31.1305 8.89137L31.0847 8.89691L31.2051 9.88965ZM29.6377 10.4463L30.2152 11.2627L30.2217 11.2581L30.2282 11.2533L29.6377 10.4463ZM28.7002 11.5156L27.8139 11.0524L27.8099 11.0601L28.7002 11.5156ZM28.1436 14.5039H27.1436V15.6963L28.3177 15.4886L28.1436 14.5039ZM39.7197 17.6319C39.3917 18.4866 38.9401 19.2149 38.3689 19.8282L39.8323 21.1914C40.5892 20.3789 41.1728 19.4275 41.5869 18.3486L39.7197 17.6319ZM38.3685 19.8285C37.7836 20.4571 37.1223 20.9789 36.3823 21.3968L37.3657 23.1383C38.2859 22.6187 39.109 21.9687 39.8327 21.191L38.3685 19.8285ZM36.3901 21.3925C35.6387 21.8079 34.8435 22.1173 34.002 22.321L34.4726 24.2649C35.4866 24.0194 36.4492 23.6452 37.3579 23.1427L36.3901 21.3925ZM34.002 22.321C33.1465 22.5282 32.3124 22.6299 31.498 22.6299V24.6299C32.4805 24.6299 33.4726 24.507 34.4726 24.2649L34.002 22.321ZM31.498 22.6299C30.3518 22.6299 29.368 22.4508 28.5296 22.1155L27.7868 23.9724C28.9015 24.4183 30.1443 24.6299 31.498 24.6299V22.6299ZM28.5296 22.1155C27.6617 21.7683 26.9454 21.3087 26.3648 20.7446L24.9712 22.1792C25.7577 22.9432 26.7016 23.5383 27.7868 23.9724L28.5296 22.1155ZM26.3648 20.7446C25.7754 20.1721 25.3118 19.5032 24.9721 18.7304L23.1412 19.5352C23.5827 20.5397 24.1933 21.4236 24.9712 22.1792L26.3648 20.7446ZM24.9773 18.7425C24.6426 17.953 24.4479 17.1135 24.3958 16.2182L22.3992 16.3345C22.4642 17.451 22.7089 18.5158 23.1359 19.5231L24.9773 18.7425ZM24.3975 16.2764C24.3975 14.8501 24.634 13.6942 25.0647 12.7748L23.2536 11.9264C22.6687 13.1749 22.3975 14.6363 22.3975 16.2764H24.3975ZM25.0631 12.7783C25.5196 11.8136 26.1231 11.0532 26.8678 10.4739L25.64 8.89522C24.6269 9.68314 23.8339 10.7 23.2553 11.9228L25.0631 12.7783ZM26.8636 10.4772C27.6379 9.88163 28.5502 9.43882 29.615 9.15719L29.1037 7.22367C27.8053 7.56704 26.6473 8.12033 25.6442 8.89195L26.8636 10.4772ZM29.6225 9.15519C30.7115 8.85819 31.8773 8.70703 33.124 8.70703V6.70703C31.7145 6.70703 30.3705 6.87813 29.0963 7.22567L29.6225 9.15519ZM33.124 8.70703C33.5656 8.70703 34.0247 8.73794 34.5019 8.80096L34.7638 6.81818C34.2057 6.74448 33.659 6.70703 33.124 6.70703V8.70703ZM34.5043 8.80127C34.9625 8.86067 35.4067 8.96651 35.8381 9.11877L36.5037 7.23279C35.939 7.03349 35.3578 6.89519 34.7614 6.81787L34.5043 8.80127ZM35.8381 9.11877C36.2486 9.26366 36.6424 9.46594 37.0207 9.72911L38.1629 8.0873C37.6427 7.72547 37.0893 7.43947 36.5037 7.23279L35.8381 9.11877ZM37.0412 9.74298C37.3926 9.97478 37.7195 10.2856 38.0184 10.6896L39.6261 9.49988C39.2024 8.92724 38.7089 8.4471 38.1424 8.07343L37.0412 9.74298ZM38.032 10.7076C38.3316 11.0938 38.5989 11.5784 38.824 12.1759L40.6955 11.4706C40.4128 10.7204 40.0551 10.0527 39.6125 9.4819L38.032 10.7076ZM38.824 12.1759C39.0409 12.7516 39.2017 13.4608 39.2927 14.3167L41.2815 14.1052C41.1772 13.1252 40.9864 12.2426 40.6955 11.4706L38.824 12.1759ZM40.1109 13.2266L28.0845 15.3799L28.437 17.3486L40.4634 15.1953L40.1109 13.2266ZM27.2674 16.4794C27.3523 17.2121 27.5011 17.9298 27.7139 18.6318L29.6279 18.0518C29.45 17.4648 29.3254 16.8641 29.2541 16.2491L27.2674 16.4794ZM27.718 18.645C27.9493 19.3719 28.2633 20.0337 28.6667 20.6215L30.3157 19.4898C30.0356 19.0816 29.8027 18.6008 29.6238 18.0386L27.718 18.645ZM28.672 20.6291C29.0933 21.231 29.6184 21.7215 30.244 22.0895L31.258 20.3656C30.8874 20.1476 30.5727 19.8569 30.3104 19.4822L28.672 20.6291ZM30.2639 22.1009C30.9569 22.4874 31.7425 22.6463 32.5809 22.6227L32.5246 20.6234C31.9763 20.6389 31.5607 20.5341 31.238 20.3542L30.2639 22.1009ZM32.6688 22.6163C33.5515 22.5131 34.3606 22.2452 35.0762 21.7964L34.0136 20.102C33.5769 20.3759 33.0579 20.5572 32.4366 20.6298L32.6688 22.6163ZM35.084 21.7915C35.3943 21.5929 35.6844 21.3558 35.9552 21.085L34.5409 19.6708C34.3625 19.8493 34.1838 19.9931 34.0059 20.1069L35.084 21.7915ZM35.97 21.0698C36.2685 20.7584 36.5179 20.399 36.723 20.0009L34.945 19.085C34.818 19.3315 34.6768 19.5288 34.5261 19.686L35.97 21.0698ZM36.723 20.0009C36.9424 19.575 37.0918 19.1016 37.1841 18.5939L35.2163 18.2362C35.1524 18.5878 35.0576 18.8664 34.945 19.085L36.723 20.0009ZM37.1841 18.5939C37.2819 18.0559 37.2949 17.4703 37.2403 16.8482L35.248 17.0229C35.2911 17.5141 35.2748 17.9148 35.2163 18.2362L37.1841 18.5939ZM36.0115 17.9081L40.4207 18.9628L40.886 17.0177L36.4768 15.963L36.0115 17.9081ZM36.098 13.1886C36.0531 12.6621 35.9554 12.1694 35.79 11.7241L33.9151 12.4205C34.0036 12.6587 34.0719 12.9668 34.1052 13.3582L36.098 13.1886ZM35.79 11.7241C35.6319 11.2986 35.4219 10.9086 35.15 10.5687L33.5883 11.8181C33.707 11.9664 33.8192 12.1624 33.9151 12.4205L35.79 11.7241ZM35.1653 10.5883C34.9184 10.2634 34.6287 9.98391 34.294 9.76072L33.1846 11.4248C33.3185 11.5141 33.4488 11.635 33.573 11.7984L35.1653 10.5883ZM34.3336 9.7886C34.0506 9.57936 33.7512 9.40579 33.4354 9.27419L32.6662 11.1203C32.8191 11.1841 32.9787 11.2742 33.1449 11.3969L34.3336 9.7886ZM33.4307 9.27225C32.7356 8.98678 31.9782 8.86715 31.1765 8.89006L31.2336 10.8892C31.7991 10.8731 32.2722 10.9585 32.6709 11.1223L33.4307 9.27225ZM31.0847 8.89691C30.3211 8.98948 29.622 9.21864 29.0472 9.63926L30.2282 11.2533C30.4541 11.088 30.8 10.9461 31.3254 10.8824L31.0847 8.89691ZM29.0602 9.62987C28.5319 10.0036 28.1129 10.4805 27.814 11.0524L29.5864 11.9789C29.7367 11.6914 29.9427 11.4554 30.2152 11.2627L29.0602 9.62987ZM27.8099 11.0601C27.5409 11.5861 27.3644 12.1599 27.2719 12.7726L29.2495 13.0711C29.3133 12.6487 29.4298 12.285 29.5904 11.9711L27.8099 11.0601ZM27.2719 12.7726C27.1862 13.3409 27.1436 13.9181 27.1436 14.5039H29.1436C29.1436 14.0155 29.1791 13.538 29.2495 13.0711L27.2719 12.7726ZM28.3177 15.4886L35.2757 14.2582L34.9274 12.2887L27.9694 13.5192L28.3177 15.4886ZM58.9932 17.9902L59.9268 18.3486L60.3357 17.2832L59.2258 17.0177L58.9932 17.9902ZM57.4404 20.5098L56.7087 19.8282L56.7084 19.8285L57.4404 20.5098ZM55.2139 22.2676L55.6978 23.1427L55.7056 23.1383L55.2139 22.2676ZM52.5771 23.293L52.3418 22.321L52.5771 23.293ZM44.0078 21.4619L43.311 22.1792L44.0078 21.4619ZM42.3965 19.1328L41.4757 19.5231L41.481 19.5352L42.3965 19.1328ZM41.7373 16.2764H40.7373V16.3055L40.739 16.3345L41.7373 16.2764ZM42.499 12.3506L41.5951 11.9228L41.5935 11.9264L42.499 12.3506ZM44.5938 9.68457L43.984 8.89193L43.9798 8.89522L44.5938 9.68457ZM47.6992 8.19043L47.9549 9.15722L47.9623 9.15519L47.6992 8.19043ZM52.9727 7.80957L52.8417 8.80096L52.8441 8.80127L52.9727 7.80957ZM55.9316 8.9082L55.3606 9.72911L55.3707 9.73617L55.381 9.74298L55.9316 8.9082ZM57.1621 10.0947L56.3583 10.6896L56.365 10.6986L56.3719 10.7076L57.1621 10.0947ZM58.627 14.2109L58.8032 15.1953L59.7199 15.0312L59.6213 14.1052L58.627 14.2109ZM46.6006 16.3643L46.4243 15.3799L45.499 15.5456L45.6072 16.4794L46.6006 16.3643ZM47.0107 18.3418L46.0536 18.6318L46.0578 18.645L47.0107 18.3418ZM47.8311 20.0557L47.0065 20.6215L47.0118 20.6291L47.8311 20.0557ZM49.0908 21.2275L48.5838 22.0895L48.5937 22.0953L48.6038 22.1009L49.0908 21.2275ZM50.8926 21.623L50.9207 22.6227L50.9648 22.6214L51.0087 22.6163L50.8926 21.623ZM52.8848 20.9492L53.4161 21.7964L53.4238 21.7915L52.8848 20.9492ZM53.5879 20.3779L54.295 21.085L54.3025 21.0775L54.3099 21.0698L53.5879 20.3779ZM54.584 16.9355L54.8166 15.963L53.4665 15.64L53.5878 17.0229L54.584 16.9355ZM53.4414 13.2734L53.6155 14.2582L54.5153 14.099L54.4378 13.1886L53.4414 13.2734ZM52.709 11.1934L51.9128 11.7984L51.9203 11.8083L51.9281 11.8181L52.709 11.1934ZM52.0791 10.5928L51.4847 11.3969L51.5042 11.4114L51.5244 11.4248L52.0791 10.5928ZM51.3906 10.1973L51.7752 9.27418L51.7705 9.27225L51.3906 10.1973ZM49.5449 9.88965L49.5164 8.89006L49.4703 8.89137L49.4246 8.89691L49.5449 9.88965ZM47.9775 10.4463L48.555 11.2627L48.5616 11.2581L48.568 11.2533L47.9775 10.4463ZM47.04 11.5156L46.1538 11.0524L46.1498 11.0601L47.04 11.5156ZM46.4834 14.5039H45.4834V15.6963L46.6575 15.4886L46.4834 14.5039ZM58.0596 17.6319C57.7315 18.4866 57.28 19.2149 56.7087 19.8282L58.1722 21.1914C58.929 20.3789 59.5126 19.4275 59.9268 18.3486L58.0596 17.6319ZM56.7084 19.8285C56.1234 20.4571 55.4622 20.9789 54.7221 21.3968L55.7056 23.1383C56.6257 22.6187 57.4488 21.9687 58.1725 21.191L56.7084 19.8285ZM54.73 21.3925C53.9786 21.8079 53.1833 22.1173 52.3418 22.321L52.8125 24.2649C53.8264 24.0194 54.789 23.6452 55.6978 23.1427L54.73 21.3925ZM52.3418 22.321C51.4864 22.5282 50.6523 22.6299 49.8379 22.6299V24.6299C50.8204 24.6299 51.8125 24.507 52.8125 24.2649L52.3418 22.321ZM49.8379 22.6299C48.6916 22.6299 47.7079 22.4508 46.8694 22.1155L46.1267 23.9724C47.2413 24.4183 48.4842 24.6299 49.8379 24.6299V22.6299ZM46.8694 22.1155C46.0015 21.7683 45.2853 21.3087 44.7046 20.7446L43.311 22.1792C44.0975 22.9432 45.0415 23.5383 46.1267 23.9724L46.8694 22.1155ZM44.7046 20.7446C44.1153 20.1721 43.6517 19.5032 43.3119 18.7304L41.481 19.5352C41.9226 20.5397 42.5332 21.4236 43.311 22.1792L44.7046 20.7446ZM43.3172 18.7425C42.9825 17.953 42.7878 17.1135 42.7356 16.2182L40.739 16.3345C40.804 17.451 41.0488 18.5158 41.4758 19.5231L43.3172 18.7425ZM42.7373 16.2764C42.7373 14.8501 42.9739 13.6942 43.4046 12.7748L41.5935 11.9264C41.0086 13.1749 40.7373 14.6363 40.7373 16.2764H42.7373ZM43.4029 12.7783C43.8594 11.8136 44.4629 11.0532 45.2077 10.4739L43.9798 8.89522C42.9668 9.68314 42.1738 10.7 41.5951 11.9228L43.4029 12.7783ZM45.2035 10.4772C45.9777 9.88163 46.89 9.43882 47.9549 9.15719L47.4435 7.22367C46.1452 7.56704 44.9871 8.12033 43.984 8.89195L45.2035 10.4772ZM47.9623 9.15519C49.0513 8.85819 50.2172 8.70703 51.4639 8.70703V6.70703C50.0543 6.70703 48.7104 6.87813 47.4361 7.22567L47.9623 9.15519ZM51.4639 8.70703C51.9055 8.70703 52.3646 8.73794 52.8417 8.80096L53.1036 6.81818C52.5456 6.74448 51.9988 6.70703 51.4639 6.70703V8.70703ZM52.8441 8.80127C53.3023 8.86067 53.7465 8.96651 54.1779 9.11877L54.8436 7.23279C54.2789 7.03349 53.6977 6.89519 53.1012 6.81787L52.8441 8.80127ZM54.1779 9.11877C54.5884 9.26366 54.9823 9.46594 55.3606 9.72911L56.5027 8.0873C55.9826 7.72547 55.4291 7.43947 54.8436 7.23279L54.1779 9.11877ZM55.381 9.74298C55.7325 9.97478 56.0594 10.2856 56.3583 10.6896L57.966 9.49988C57.5422 8.92724 57.0488 8.4471 56.4822 8.07343L55.381 9.74298ZM56.3719 10.7076C56.6714 11.0938 56.9387 11.5784 57.1638 12.1759L59.0354 11.4706C58.7527 10.7204 58.395 10.0527 57.9523 9.4819L56.3719 10.7076ZM57.1638 12.1759C57.3808 12.7516 57.5415 13.4608 57.6326 14.3167L59.6213 14.1052C59.5171 13.1252 59.3263 12.2426 59.0354 11.4706L57.1638 12.1759ZM58.4507 13.2266L46.4243 15.3799L46.7768 17.3486L58.8032 15.1953L58.4507 13.2266ZM45.6072 16.4794C45.6922 17.2121 45.841 17.9298 46.0537 18.6318L47.9678 18.0518C47.7899 17.4648 47.6652 16.8641 47.5939 16.2491L45.6072 16.4794ZM46.0578 18.645C46.2891 19.3719 46.6031 20.0337 47.0065 20.6215L48.6556 19.4898C48.3754 19.0816 48.1425 18.6008 47.9637 18.0386L46.0578 18.645ZM47.0118 20.6291C47.4332 21.231 47.9583 21.7215 48.5838 22.0895L49.5978 20.3656C49.2273 20.1476 48.9125 19.8569 48.6503 19.4822L47.0118 20.6291ZM48.6038 22.1009C49.2967 22.4874 50.0823 22.6463 50.9207 22.6227L50.8644 20.6234C50.3161 20.6389 49.9005 20.5341 49.5779 20.3542L48.6038 22.1009ZM51.0087 22.6163C51.8913 22.5131 52.7004 22.2452 53.4161 21.7964L52.3535 20.102C51.9168 20.3759 51.3978 20.5572 50.7765 20.6298L51.0087 22.6163ZM53.4238 21.7915C53.7342 21.5929 54.0242 21.3558 54.295 21.085L52.8808 19.6708C52.7023 19.8493 52.5237 19.9931 52.3457 20.1069L53.4238 21.7915ZM54.3099 21.0698C54.6084 20.7584 54.8578 20.399 55.0628 20.0009L53.2849 19.085C53.1579 19.3315 53.0166 19.5288 52.8659 19.686L54.3099 21.0698ZM55.0628 20.0009C55.2822 19.575 55.4316 19.1016 55.5239 18.5939L53.5562 18.2362C53.4922 18.5878 53.3975 18.8664 53.2849 19.085L55.0628 20.0009ZM55.5239 18.5939C55.6217 18.0559 55.6347 17.4703 55.5802 16.8482L53.5878 17.0229C53.6309 17.5141 53.6146 17.9148 53.5562 18.2362L55.5239 18.5939ZM54.3513 17.9081L58.7605 18.9628L59.2258 17.0177L54.8166 15.963L54.3513 17.9081ZM54.4378 13.1886C54.393 12.6621 54.2952 12.1694 54.1298 11.7241L52.255 12.4205C52.3434 12.6587 52.4117 12.9668 52.445 13.3582L54.4378 13.1886ZM54.1298 11.7241C53.9718 11.2986 53.7618 10.9086 53.4899 10.5687L51.9281 11.8181C52.0468 11.9664 52.1591 12.1624 52.255 12.4205L54.1298 11.7241ZM53.5051 10.5883C53.2583 10.2634 52.9686 9.98391 52.6338 9.76072L51.5244 11.4248C51.6584 11.5141 51.7886 11.635 51.9128 11.7984L53.5051 10.5883ZM52.6735 9.7886C52.3904 9.57936 52.0911 9.40579 51.7752 9.27419L51.006 11.1203C51.1589 11.1841 51.3186 11.2742 51.4847 11.3969L52.6735 9.7886ZM51.7705 9.27225C51.0755 8.98678 50.3181 8.86715 49.5164 8.89006L49.5735 10.8892C50.139 10.8731 50.612 10.9585 51.0107 11.1223L51.7705 9.27225ZM49.4246 8.89691C48.661 8.98948 47.9619 9.21864 47.387 9.63926L48.568 11.2533C48.794 11.088 49.1398 10.9461 49.6653 10.8824L49.4246 8.89691ZM47.4001 9.62987C46.8718 10.0036 46.4528 10.4805 46.1538 11.0524L47.9263 11.9789C48.0765 11.6914 48.2825 11.4554 48.555 11.2627L47.4001 9.62987ZM46.1498 11.0601C45.8807 11.5861 45.7043 12.1599 45.6118 12.7726L47.5894 13.0711C47.6532 12.6487 47.7697 12.285 47.9303 11.9711L46.1498 11.0601ZM45.6118 12.7726C45.526 13.3409 45.4834 13.9181 45.4834 14.5039H47.4834C47.4834 14.0155 47.5189 13.538 47.5894 13.0711L45.6118 12.7726ZM46.6575 15.4886L53.6155 14.2582L53.2673 12.2887L46.3093 13.5192L46.6575 15.4886ZM15.3115 50.3545L16.3052 50.4671L16.4248 49.4107L15.3631 49.3558L15.3115 50.3545ZM14.8867 54.1045L14.937 55.1032L15.7848 55.0606L15.8804 54.2171L14.8867 54.1045ZM2.94824 54.7051L1.95134 54.7838L2.02783 55.7526L2.99849 55.7038L2.94824 54.7051ZM2.55273 49.6953L2.60433 48.6966L1.46614 48.6378L1.55584 49.774L2.55273 49.6953ZM14.3179 50.2419L13.8931 53.9919L15.8804 54.2171L16.3052 50.4671L14.3179 50.2419ZM14.8365 53.1058L2.898 53.7063L2.99849 55.7038L14.937 55.1032L14.8365 53.1058ZM3.94514 54.6264L3.54963 49.6166L1.55584 49.774L1.95134 54.7838L3.94514 54.6264ZM2.50114 50.694L15.2599 51.3532L15.3631 49.3558L2.60433 48.6966L2.50114 50.694ZM54.4668 62.3955L54.4354 63.395L55.4668 63.4274V62.3955H54.4668ZM41.8691 62L40.8694 62.0236L40.8918 62.9698L41.8378 62.9995L41.8691 62ZM41.7812 58.2793L41.7406 57.2801L40.7583 57.3201L40.7815 58.3029L41.7812 58.2793ZM46.1025 58.1035L46.1432 59.1027L47.0331 59.0665L47.0997 58.1784L46.1025 58.1035ZM46.5127 52.6396L47.5099 52.7145L47.5955 51.574L46.4538 51.6414L46.5127 52.6396ZM34.8525 53.3281L34.7936 52.3299L33.9351 52.3806L33.8567 53.237L34.8525 53.3281ZM34.457 57.6494L33.4612 57.5583L33.3619 58.6432L34.4513 58.6494L34.457 57.6494ZM39.6133 57.6787L40.6123 57.7231L40.6584 56.6846L39.619 56.6787L39.6133 57.6787ZM39.4082 62.293L39.328 63.2898L40.3612 63.3728L40.4072 62.3374L39.4082 62.293ZM26.8398 61.2822L25.8401 61.2586L25.8178 62.2033L26.7597 62.279L26.8398 61.2822ZM26.9277 57.5615L26.9402 56.5616L25.9514 56.5493L25.928 57.5379L26.9277 57.5615ZM31.6299 57.6201L31.6174 58.62L32.6685 58.6331L32.6292 57.5828L31.6299 57.6201ZM31.1611 45.0811L32.1604 45.0437L32.1235 44.0546L31.134 44.0814L31.1611 45.0811ZM26.8398 45.1982H25.8398V46.2257L26.867 46.1979L26.8398 45.1982ZM26.8398 40.584L26.8802 39.5848L25.8398 39.5428V40.584H26.8398ZM39.5254 41.0967L40.5251 41.1204L40.5484 40.1372L39.5658 40.0975L39.5254 41.0967ZM39.4375 44.8027L39.4724 45.8021L40.4149 45.7692L40.4372 44.8264L39.4375 44.8027ZM35.6582 44.9346L35.6233 43.9352L34.7491 43.9657L34.6631 44.8362L35.6582 44.9346ZM35.1455 50.1201L34.1504 50.0217L34.0418 51.1201H35.1455V50.1201ZM46.7324 50.1201V51.1201H47.6539L47.7291 50.2017L46.7324 50.1201ZM47.1426 45.1104L48.1392 45.1919L48.2353 44.0186L47.0618 44.1136L47.1426 45.1104ZM41.8984 45.5352L40.8999 45.5885L40.9547 46.6149L41.9792 46.5319L41.8984 45.5352ZM41.6494 40.877L41.6402 39.877L40.595 39.8866L40.6508 40.9303L41.6494 40.877ZM54.3496 40.7598L55.3491 40.7283L55.3183 39.7508L54.3404 39.7598L54.3496 40.7598ZM54.4668 44.4805L54.5544 45.4766L55.4961 45.3938L55.4663 44.449L54.4668 44.4805ZM49.9697 44.876L49.8821 43.8798L48.9697 43.9601V44.876H49.9697ZM49.9697 57.957H48.9697V59.0003L50.012 58.9561L49.9697 57.957ZM54.4668 57.7666H55.4668V56.7234L54.4245 56.7675L54.4668 57.7666ZM54.4982 61.396L41.9005 61.0005L41.8378 62.9995L54.4354 63.395L54.4982 61.396ZM42.8689 61.9764L42.781 58.2557L40.7815 58.3029L40.8694 62.0236L42.8689 61.9764ZM41.8219 59.2785L46.1432 59.1027L46.0619 57.1043L41.7406 57.2801L41.8219 59.2785ZM47.0997 58.1784L47.5099 52.7145L45.5155 52.5648L45.1053 58.0287L47.0997 58.1784ZM46.4538 51.6414L34.7936 52.3299L34.9115 54.3264L46.5716 53.6379L46.4538 51.6414ZM33.8567 53.237L33.4612 57.5583L35.4529 57.7406L35.8484 53.4193L33.8567 53.237ZM34.4513 58.6494L39.6076 58.6787L39.619 56.6787L34.4627 56.6494L34.4513 58.6494ZM38.6143 57.6343L38.4092 62.2486L40.4072 62.3374L40.6123 57.7231L38.6143 57.6343ZM39.4884 61.2962L26.92 60.2854L26.7597 62.279L39.328 63.2898L39.4884 61.2962ZM27.8396 61.3058L27.9275 57.5851L25.928 57.5379L25.8401 61.2586L27.8396 61.3058ZM26.9153 58.5614L31.6174 58.62L31.6423 56.6202L26.9402 56.5616L26.9153 58.5614ZM32.6292 57.5828L32.1604 45.0437L30.1618 45.1184L30.6306 57.6575L32.6292 57.5828ZM31.134 44.0814L26.8127 44.1986L26.867 46.1979L31.1882 46.0807L31.134 44.0814ZM27.8398 45.1982V40.584H25.8398V45.1982H27.8398ZM26.7995 41.5832L39.485 42.0959L39.5658 40.0975L26.8802 39.5848L26.7995 41.5832ZM38.5257 41.073L38.4378 44.779L40.4372 44.8264L40.5251 41.1204L38.5257 41.073ZM39.4026 43.8033L35.6233 43.9352L35.6931 45.934L39.4724 45.8021L39.4026 43.8033ZM34.6631 44.8362L34.1504 50.0217L36.1407 50.2185L36.6534 45.033L34.6631 44.8362ZM35.1455 51.1201H46.7324V49.1201H35.1455V51.1201ZM47.7291 50.2017L48.1392 45.1919L46.1459 45.0288L45.7358 50.0385L47.7291 50.2017ZM47.0618 44.1136L41.8177 44.5384L41.9792 46.5319L47.2233 46.1071L47.0618 44.1136ZM42.897 45.4818L42.648 40.8236L40.6508 40.9303L40.8999 45.5885L42.897 45.4818ZM41.6586 41.8769L54.3588 41.7597L54.3404 39.7598L41.6402 39.877L41.6586 41.8769ZM53.3501 40.7912L53.4673 44.5119L55.4663 44.449L55.3491 40.7283L53.3501 40.7912ZM54.3792 43.4843L49.8821 43.8798L50.0573 45.8721L54.5544 45.4766L54.3792 43.4843ZM48.9697 44.876V57.957H50.9697V44.876H48.9697ZM50.012 58.9561L54.5091 58.7657L54.4245 56.7675L49.9274 56.9579L50.012 58.9561ZM53.4668 57.7666V62.3955H55.4668V57.7666H53.4668ZM73.2607 56.9902L74.1943 57.3486L74.6033 56.2832L73.4934 56.0177L73.2607 56.9902ZM71.708 59.5098L70.9763 58.8282L70.9759 58.8285L71.708 59.5098ZM69.4814 61.2676L69.9654 62.1427L69.9732 62.1383L69.4814 61.2676ZM66.8447 62.293L66.6094 61.321L66.8447 62.293ZM58.2754 60.4619L57.5786 61.1792L58.2754 60.4619ZM56.6641 58.1328L55.7433 58.5231L55.7486 58.5352L56.6641 58.1328ZM56.0049 55.2764H55.0049V55.3055L55.0066 55.3345L56.0049 55.2764ZM56.7666 51.3506L55.8627 50.9228L55.861 50.9264L56.7666 51.3506ZM58.8613 48.6846L58.2516 47.8919L58.2474 47.8952L58.8613 48.6846ZM61.9668 47.1904L62.2225 48.1572L62.2299 48.1552L61.9668 47.1904ZM67.2402 46.8096L67.1093 47.801L67.1117 47.8013L67.2402 46.8096ZM70.1992 47.9082L69.6282 48.7291L69.6383 48.7362L69.6486 48.743L70.1992 47.9082ZM71.4297 49.0947L70.6258 49.6896L70.6326 49.6986L70.6395 49.7076L71.4297 49.0947ZM72.8945 53.2109L73.0708 54.1953L73.9874 54.0312L73.8889 53.1052L72.8945 53.2109ZM60.8682 55.3643L60.6919 54.3799L59.7665 54.5456L59.8748 55.4794L60.8682 55.3643ZM61.2783 57.3418L60.3212 57.6318L60.3254 57.645L61.2783 57.3418ZM62.0986 59.0557L61.2741 59.6215L61.2794 59.6291L62.0986 59.0557ZM63.3584 60.2275L62.8514 61.0895L62.8613 61.0953L62.8713 61.1009L63.3584 60.2275ZM65.1602 60.623L65.1883 61.6227L65.2324 61.6214L65.2762 61.6163L65.1602 60.623ZM67.1523 59.9492L67.6837 60.7964L67.6914 60.7915L67.1523 59.9492ZM67.8555 59.3779L68.5626 60.085L68.5701 60.0775L68.5775 60.0698L67.8555 59.3779ZM68.8516 55.9355L69.0842 54.963L67.7341 54.64L67.8554 56.0229L68.8516 55.9355ZM67.709 52.2734L67.8831 53.2582L68.7829 53.099L68.7054 52.1886L67.709 52.2734ZM66.9766 50.1934L66.1804 50.7984L66.1879 50.8083L66.1957 50.8181L66.9766 50.1934ZM66.3467 49.5928L65.7523 50.3969L65.7718 50.4114L65.792 50.4248L66.3467 49.5928ZM65.6582 49.1973L66.0428 48.2742L66.0381 48.2722L65.6582 49.1973ZM63.8125 48.8896L63.7839 47.8901L63.7379 47.8914L63.6922 47.8969L63.8125 48.8896ZM62.2451 49.4463L62.8226 50.2627L62.8291 50.2581L62.8356 50.2533L62.2451 49.4463ZM61.3076 50.5156L60.4214 50.0524L60.4174 50.0601L61.3076 50.5156ZM60.751 53.5039H59.751V54.6963L60.9251 54.4886L60.751 53.5039ZM72.3272 56.6319C71.9991 57.4866 71.5476 58.2149 70.9763 58.8282L72.4397 60.1914C73.1966 59.3789 73.7802 58.4275 74.1943 57.3486L72.3272 56.6319ZM70.9759 58.8285C70.391 59.4571 69.7298 59.9789 68.9897 60.3968L69.9732 62.1383C70.8933 61.6187 71.7164 60.9687 72.4401 60.191L70.9759 58.8285ZM68.9976 60.3925C68.2461 60.8079 67.4509 61.1173 66.6094 61.321L67.08 63.2649C68.094 63.0194 69.0566 62.6452 69.9653 62.1427L68.9976 60.3925ZM66.6094 61.321C65.7539 61.5282 64.9199 61.6299 64.1055 61.6299V63.6299C65.088 63.6299 66.08 63.507 67.08 63.2649L66.6094 61.321ZM64.1055 61.6299C62.9592 61.6299 61.9755 61.4508 61.137 61.1155L60.3942 62.9724C61.5089 63.4183 62.7517 63.6299 64.1055 63.6299V61.6299ZM61.137 61.1155C60.2691 60.7683 59.5529 60.3087 58.9722 59.7446L57.5786 61.1792C58.3651 61.9432 59.3091 62.5383 60.3942 62.9724L61.137 61.1155ZM58.9722 59.7446C58.3828 59.1721 57.9192 58.5032 57.5795 57.7304L55.7486 58.5352C56.1901 59.5397 56.8008 60.4236 57.5786 61.1792L58.9722 59.7446ZM57.5848 57.7425C57.25 56.953 57.0553 56.1135 57.0032 55.2182L55.0066 55.3345C55.0716 56.451 55.3164 57.5158 55.7434 58.5231L57.5848 57.7425ZM57.0049 55.2764C57.0049 53.8501 57.2414 52.6942 57.6722 51.7748L55.861 50.9264C55.2761 52.1749 55.0049 53.6363 55.0049 55.2764H57.0049ZM57.6705 51.7783C58.127 50.8136 58.7305 50.0532 59.4753 49.4739L58.2474 47.8952C57.2343 48.6831 56.4414 49.7 55.8627 50.9228L57.6705 51.7783ZM59.471 49.4772C60.2453 48.8816 61.1576 48.4388 62.2225 48.1572L61.7111 46.2237C60.4127 46.567 59.2547 47.1203 58.2516 47.8919L59.471 49.4772ZM62.2299 48.1552C63.3189 47.8582 64.4848 47.707 65.7314 47.707V45.707C64.3219 45.707 62.978 45.8781 61.7037 46.2257L62.2299 48.1552ZM65.7314 47.707C66.173 47.707 66.6322 47.7379 67.1093 47.801L67.3712 45.8182C66.8131 45.7445 66.2664 45.707 65.7314 45.707V47.707ZM67.1117 47.8013C67.5699 47.8607 68.0141 47.9665 68.4455 48.1188L69.1111 46.2328C68.5465 46.0335 67.9653 45.8952 67.3688 45.8179L67.1117 47.8013ZM68.4455 48.1188C68.856 48.2637 69.2499 48.4659 69.6282 48.7291L70.7703 47.0873C70.2501 46.7255 69.6967 46.4395 69.1111 46.2328L68.4455 48.1188ZM69.6486 48.743C70.0001 48.9748 70.3269 49.2856 70.6258 49.6896L72.2335 48.4999C71.8098 47.9272 71.3163 47.4471 70.7498 47.0734L69.6486 48.743ZM70.6395 49.7076C70.939 50.0938 71.2063 50.5784 71.4314 51.1759L73.303 50.4706C73.0203 49.7204 72.6625 49.0527 72.2199 48.4819L70.6395 49.7076ZM71.4314 51.1759C71.6484 51.7516 71.8091 52.4608 71.9001 53.3167L73.8889 53.1052C73.7847 52.1252 73.5938 51.2426 73.303 50.4706L71.4314 51.1759ZM72.7183 52.2266L60.6919 54.3799L61.0444 56.3486L73.0708 54.1953L72.7183 52.2266ZM59.8748 55.4794C59.9598 56.2121 60.1086 56.9298 60.3213 57.6318L62.2353 57.0518C62.0575 56.4648 61.9328 55.8641 61.8615 55.2491L59.8748 55.4794ZM60.3254 57.645C60.5567 58.3719 60.8707 59.0337 61.2741 59.6215L62.9231 58.4898C62.643 58.0816 62.4101 57.6008 62.2312 57.0386L60.3254 57.645ZM61.2794 59.6291C61.7007 60.231 62.2259 60.7215 62.8514 61.0895L63.8654 59.3656C63.4948 59.1476 63.1801 58.8569 62.9179 58.4822L61.2794 59.6291ZM62.8713 61.1009C63.5643 61.4874 64.3499 61.6463 65.1883 61.6227L65.132 59.6234C64.5837 59.6389 64.1681 59.5341 63.8455 59.3542L62.8713 61.1009ZM65.2762 61.6163C66.1589 61.5131 66.968 61.2452 67.6836 60.7964L66.6211 59.102C66.1843 59.3759 65.6653 59.5572 65.0441 59.6298L65.2762 61.6163ZM67.6914 60.7915C68.0017 60.5929 68.2918 60.3558 68.5626 60.085L67.1484 58.6708C66.9699 58.8493 66.7912 58.9931 66.6133 59.1069L67.6914 60.7915ZM68.5775 60.0698C68.876 59.7584 69.1253 59.399 69.3304 59.0009L67.5524 58.085C67.4254 58.3315 67.2842 58.5288 67.1335 58.686L68.5775 60.0698ZM69.3304 59.0009C69.5498 58.575 69.6992 58.1016 69.7915 57.5939L67.8237 57.2362C67.7598 57.5878 67.6651 57.8664 67.5524 58.085L69.3304 59.0009ZM69.7915 57.5939C69.8893 57.0559 69.9023 56.4703 69.8477 55.8482L67.8554 56.0229C67.8985 56.5141 67.8822 56.9148 67.8237 57.2362L69.7915 57.5939ZM68.6189 56.9081L73.0281 57.9628L73.4934 56.0177L69.0842 54.963L68.6189 56.9081ZM68.7054 52.1886C68.6606 51.6621 68.5628 51.1694 68.3974 50.7241L66.5225 51.4205C66.611 51.6587 66.6793 51.9668 66.7126 52.3582L68.7054 52.1886ZM68.3974 50.7241C68.2393 50.2986 68.0293 49.9086 67.7574 49.5687L66.1957 50.8181C66.3144 50.9664 66.4267 51.1624 66.5225 51.4205L68.3974 50.7241ZM67.7727 49.5883C67.5258 49.2634 67.2362 48.9839 66.9014 48.7607L65.792 50.4248C65.926 50.5141 66.0562 50.635 66.1804 50.7984L67.7727 49.5883ZM66.9411 48.7886C66.658 48.5794 66.3587 48.4058 66.0428 48.2742L65.2736 50.1203C65.4265 50.1841 65.5862 50.2742 65.7523 50.3969L66.9411 48.7886ZM66.0381 48.2722C65.3431 47.9868 64.5856 47.8672 63.7839 47.8901L63.8411 49.8892C64.4066 49.8731 64.8796 49.9585 65.2783 50.1223L66.0381 48.2722ZM63.6922 47.8969C62.9285 47.9895 62.2295 48.2186 61.6546 48.6393L62.8356 50.2533C63.0616 50.088 63.4074 49.9461 63.9328 49.8824L63.6922 47.8969ZM61.6677 48.6299C61.1393 49.0036 60.7203 49.4805 60.4214 50.0524L62.1938 50.9789C62.3441 50.6914 62.5501 50.4554 62.8226 50.2627L61.6677 48.6299ZM60.4174 50.0601C60.1483 50.5861 59.9718 51.1599 59.8794 51.7726L61.857 52.0711C61.9207 51.6487 62.0373 51.285 62.1979 50.9711L60.4174 50.0601ZM59.8794 51.7726C59.7936 52.3409 59.751 52.9181 59.751 53.5039H61.751C61.751 53.0155 61.7865 52.538 61.857 52.0711L59.8794 51.7726ZM60.9251 54.4886L67.8831 53.2582L67.5348 51.2887L60.5768 52.5192L60.9251 54.4886ZM91.6006 56.9902L92.5342 57.3486L92.9431 56.2832L91.8332 56.0177L91.6006 56.9902ZM90.0479 59.5098L89.3161 58.8282L89.3158 58.8285L90.0479 59.5098ZM87.8213 61.2676L88.3052 62.1427L88.313 62.1383L87.8213 61.2676ZM85.1846 62.293L84.9493 61.321L85.1846 62.293ZM76.6152 60.4619L75.9184 61.1792L76.6152 60.4619ZM75.0039 58.1328L74.0831 58.5231L74.0884 58.5352L75.0039 58.1328ZM74.3447 55.2764H73.3447V55.3055L73.3464 55.3345L74.3447 55.2764ZM75.1064 51.3506L74.2025 50.9228L74.2009 50.9264L75.1064 51.3506ZM77.2012 48.6846L76.5915 47.8919L76.5872 47.8952L77.2012 48.6846ZM80.3066 47.1904L80.5623 48.1572L80.5698 48.1552L80.3066 47.1904ZM85.5801 46.8096L85.4491 47.801L85.4515 47.8013L85.5801 46.8096ZM88.5391 47.9082L87.968 48.7291L87.9781 48.7362L87.9885 48.743L88.5391 47.9082ZM89.7695 49.0947L88.9657 49.6896L88.9724 49.6986L88.9793 49.7076L89.7695 49.0947ZM91.2344 53.2109L91.4106 54.1953L92.3273 54.0312L92.2288 53.1052L91.2344 53.2109ZM79.208 55.3643L79.0318 54.3799L78.1064 54.5456L78.2147 55.4794L79.208 55.3643ZM79.6182 57.3418L78.661 57.6318L78.6652 57.645L79.6182 57.3418ZM80.4385 59.0557L79.6139 59.6215L79.6192 59.6291L80.4385 59.0557ZM81.6982 60.2275L81.1912 61.0895L81.2011 61.0953L81.2112 61.1009L81.6982 60.2275ZM83.5 60.623L83.5282 61.6227L83.5723 61.6214L83.6161 61.6163L83.5 60.623ZM85.4922 59.9492L86.0235 60.7964L86.0312 60.7915L85.4922 59.9492ZM86.1953 59.3779L86.9024 60.085L86.9099 60.0775L86.9173 60.0698L86.1953 59.3779ZM87.1914 55.9355L87.424 54.963L86.0739 54.64L86.1952 56.0229L87.1914 55.9355ZM86.0488 52.2734L86.223 53.2582L87.1227 53.099L87.0452 52.1886L86.0488 52.2734ZM85.3164 50.1934L84.5202 50.7984L84.5278 50.8083L84.5355 50.8181L85.3164 50.1934ZM84.6865 49.5928L84.0921 50.3969L84.1116 50.4114L84.1318 50.4248L84.6865 49.5928ZM83.998 49.1973L84.3827 48.2742L84.378 48.2722L83.998 49.1973ZM82.1523 48.8896L82.1238 47.8901L82.0777 47.8914L82.032 47.8969L82.1523 48.8896ZM80.585 49.4463L81.1624 50.2627L81.169 50.2581L81.1755 50.2533L80.585 49.4463ZM79.6475 50.5156L78.7612 50.0524L78.7572 50.0601L79.6475 50.5156ZM79.0908 53.5039H78.0908V54.6963L79.265 54.4886L79.0908 53.5039ZM90.667 56.6319C90.3389 57.4866 89.8874 58.2149 89.3161 58.8282L90.7796 60.1914C91.5364 59.3789 92.1201 58.4275 92.5342 57.3486L90.667 56.6319ZM89.3158 58.8285C88.7309 59.4571 88.0696 59.9789 87.3296 60.3968L88.313 62.1383C89.2331 61.6187 90.0562 60.9687 90.7799 60.191L89.3158 58.8285ZM87.3374 60.3925C86.586 60.8079 85.7907 61.1173 84.9493 61.321L85.4199 63.2649C86.4339 63.0194 87.3964 62.6452 88.3052 62.1427L87.3374 60.3925ZM84.9493 61.321C84.0938 61.5282 83.2597 61.6299 82.4453 61.6299V63.6299C83.4278 63.6299 84.4199 63.507 85.4199 63.2649L84.9493 61.321ZM82.4453 61.6299C81.299 61.6299 80.3153 61.4508 79.4769 61.1155L78.7341 62.9724C79.8488 63.4183 81.0916 63.6299 82.4453 63.6299V61.6299ZM79.4769 61.1155C78.6089 60.7683 77.8927 60.3087 77.312 59.7446L75.9184 61.1792C76.7049 61.9432 77.6489 62.5383 78.7341 62.9724L79.4769 61.1155ZM77.312 59.7446C76.7227 59.1721 76.2591 58.5032 75.9194 57.7304L74.0884 58.5352C74.53 59.5397 75.1406 60.4236 75.9184 61.1792L77.312 59.7446ZM75.9246 57.7425C75.5899 56.953 75.3952 56.1135 75.343 55.2182L73.3464 55.3345C73.4115 56.451 73.6562 57.5158 74.0832 58.5231L75.9246 57.7425ZM75.3447 55.2764C75.3447 53.8501 75.5813 52.6942 76.012 51.7748L74.2009 50.9264C73.616 52.1749 73.3447 53.6363 73.3447 55.2764H75.3447ZM76.0103 51.7783C76.4669 50.8136 77.0703 50.0532 77.8151 49.4739L76.5872 47.8952C75.5742 48.6831 74.7812 49.7 74.2025 50.9228L76.0103 51.7783ZM77.8109 49.4772C78.5851 48.8816 79.4974 48.4388 80.5623 48.1572L80.051 46.2237C78.7526 46.567 77.5946 47.1203 76.5915 47.8919L77.8109 49.4772ZM80.5698 48.1552C81.6588 47.8582 82.8246 47.707 84.0713 47.707V45.707C82.6617 45.707 81.3178 45.8781 80.0435 46.2257L80.5698 48.1552ZM84.0713 47.707C84.5129 47.707 84.972 47.7379 85.4491 47.801L85.711 45.8182C85.153 45.7445 84.6062 45.707 84.0713 45.707V47.707ZM85.4515 47.8013C85.9097 47.8607 86.3539 47.9665 86.7853 48.1188L87.451 46.2328C86.8863 46.0335 86.3051 45.8952 85.7086 45.8179L85.4515 47.8013ZM86.7853 48.1188C87.1959 48.2637 87.5897 48.4659 87.968 48.7291L89.1101 47.0873C88.59 46.7255 88.0366 46.4395 87.451 46.2328L86.7853 48.1188ZM87.9885 48.743C88.3399 48.9748 88.6668 49.2856 88.9657 49.6896L90.5734 48.4999C90.1496 47.9272 89.6562 47.4471 89.0897 47.0734L87.9885 48.743ZM88.9793 49.7076C89.2789 50.0938 89.5461 50.5784 89.7713 51.1759L91.6428 50.4706C91.3601 49.7204 91.0024 49.0527 90.5598 48.4819L88.9793 49.7076ZM89.7713 51.1759C89.9882 51.7516 90.1489 52.4608 90.24 53.3167L92.2288 53.1052C92.1245 52.1252 91.9337 51.2426 91.6428 50.4706L89.7713 51.1759ZM91.0581 52.2266L79.0318 54.3799L79.3843 56.3486L91.4106 54.1953L91.0581 52.2266ZM78.2147 55.4794C78.2996 56.2121 78.4484 56.9298 78.6611 57.6318L80.5752 57.0518C80.3973 56.4648 80.2727 55.8641 80.2014 55.2491L78.2147 55.4794ZM78.6652 57.645C78.8965 58.3719 79.2105 59.0337 79.614 59.6215L81.263 58.4898C80.9828 58.0816 80.75 57.6008 80.5711 57.0386L78.6652 57.645ZM79.6192 59.6291C80.0406 60.231 80.5657 60.7215 81.1912 61.0895L82.2053 59.3656C81.8347 59.1476 81.52 58.8569 81.2577 58.4822L79.6192 59.6291ZM81.2112 61.1009C81.9042 61.4874 82.6897 61.6463 83.5282 61.6227L83.4718 59.6234C82.9235 59.6389 82.5079 59.5341 82.1853 59.3542L81.2112 61.1009ZM83.6161 61.6163C84.4987 61.5131 85.3079 61.2452 86.0235 60.7964L84.9609 59.102C84.5242 59.3759 84.0052 59.5572 83.3839 59.6298L83.6161 61.6163ZM86.0312 60.7915C86.3416 60.5929 86.6316 60.3558 86.9024 60.085L85.4882 58.6708C85.3098 58.8493 85.1311 58.9931 84.9531 59.1069L86.0312 60.7915ZM86.9173 60.0698C87.2158 59.7584 87.4652 59.399 87.6702 59.0009L85.8923 58.085C85.7653 58.3315 85.624 58.5288 85.4733 58.686L86.9173 60.0698ZM87.6702 59.0009C87.8896 58.575 88.039 58.1016 88.1313 57.5939L86.1636 57.2362C86.0996 57.5878 86.0049 57.8664 85.8923 58.085L87.6702 59.0009ZM88.1313 57.5939C88.2291 57.0559 88.2422 56.4703 88.1876 55.8482L86.1952 56.0229C86.2383 56.5141 86.222 56.9148 86.1636 57.2362L88.1313 57.5939ZM86.9588 56.9081L91.3679 57.9628L91.8332 56.0177L87.424 54.963L86.9588 56.9081ZM87.0452 52.1886C87.0004 51.6621 86.9026 51.1694 86.7372 50.7241L84.8624 51.4205C84.9509 51.6587 85.0191 51.9668 85.0524 52.3582L87.0452 52.1886ZM86.7372 50.7241C86.5792 50.2986 86.3692 49.9086 86.0973 49.5687L84.5355 50.8181C84.6542 50.9664 84.7665 51.1624 84.8624 51.4205L86.7372 50.7241ZM86.1126 49.5883C85.8657 49.2634 85.576 48.9839 85.2412 48.7607L84.1318 50.4248C84.2658 50.5141 84.396 50.635 84.5202 50.7984L86.1126 49.5883ZM85.2809 48.7886C84.9978 48.5794 84.6985 48.4058 84.3827 48.2742L83.6134 50.1203C83.7663 50.1841 83.926 50.2742 84.0921 50.3969L85.2809 48.7886ZM84.378 48.2722C83.6829 47.9868 82.9255 47.8672 82.1238 47.8901L82.1809 49.8892C82.7464 49.8731 83.2194 49.9585 83.6181 50.1223L84.378 48.2722ZM82.032 47.8969C81.2684 47.9895 80.5693 48.2186 79.9945 48.6393L81.1755 50.2533C81.4014 50.088 81.7472 49.9461 82.2727 49.8824L82.032 47.8969ZM80.0075 48.6299C79.4792 49.0036 79.0602 49.4805 78.7612 50.0524L80.5337 50.9789C80.684 50.6914 80.89 50.4554 81.1624 50.2627L80.0075 48.6299ZM78.7572 50.0601C78.4881 50.5861 78.3117 51.1599 78.2192 51.7726L80.1968 52.0711C80.2606 51.6487 80.3771 51.285 80.5377 50.9711L78.7572 50.0601ZM78.2192 51.7726C78.1334 52.3409 78.0908 52.9181 78.0908 53.5039H80.0908C80.0908 53.0155 80.1263 52.538 80.1968 52.0711L78.2192 51.7726ZM79.265 54.4886L86.223 53.2582L85.8747 51.2887L78.9167 52.5192L79.265 54.4886ZM100.038 40.0127L101.034 40.1051L101.145 38.9099L99.9491 39.0167L100.038 40.0127ZM98.6318 55.1592V56.1592H99.5433L99.6276 55.2516L98.6318 55.1592ZM95.9219 55.1592L94.9376 55.3356L95.0852 56.1592H95.9219V55.1592ZM93.3145 40.6133L93.2255 39.6172L92.1374 39.7144L92.3301 40.7897L93.3145 40.6133ZM99.8037 60.5645L98.9214 60.0939L98.9152 60.1055L98.9093 60.1172L99.8037 60.5645ZM99.1885 61.3408L99.8201 62.1161L99.8286 62.1092L99.8369 62.1021L99.1885 61.3408ZM98.2656 61.8682L98.6053 62.8087L98.6167 62.8046L98.6281 62.8002L98.2656 61.8682ZM95.9951 61.8682L95.6327 62.8002L95.644 62.8046L95.6555 62.8087L95.9951 61.8682ZM95.0723 61.3408L94.4238 62.1021L94.4321 62.1092L94.4406 62.1161L95.0723 61.3408ZM94.4424 60.5645L93.548 61.0117L93.5538 61.0234L93.56 61.035L94.4424 60.5645ZM94.4424 58.6748L93.5538 58.2162L93.5478 58.2276L93.5422 58.2392L94.4424 58.6748ZM95.0723 57.8984L95.7039 58.6737L95.7124 58.6668L95.7207 58.6597L95.0723 57.8984ZM95.9951 57.3711L96.3348 58.3116L96.3462 58.3075L96.3576 58.3031L95.9951 57.3711ZM98.2656 57.3711L97.9032 58.3031L97.9145 58.3075L97.926 58.3116L98.2656 57.3711ZM99.1885 57.8984L98.54 58.6597L98.5483 58.6668L98.5568 58.6737L99.1885 57.8984ZM99.8037 58.6748L98.9036 59.1104L98.9092 59.122L98.9151 59.1334L99.8037 58.6748ZM99.0424 39.9202L97.6361 55.0667L99.6276 55.2516L101.034 40.1051L99.0424 39.9202ZM98.6318 54.1592H95.9219V56.1592H98.6318V54.1592ZM96.9062 54.9827L94.2988 40.4368L92.3301 40.7897L94.9376 55.3356L96.9062 54.9827ZM93.4034 41.6093L100.127 41.0087L99.9491 39.0167L93.2255 39.6172L93.4034 41.6093ZM99.0381 59.627C99.0381 59.7948 99.0004 59.9457 98.9214 60.0939L100.686 61.035C100.92 60.5972 101.038 60.1231 101.038 59.627H99.0381ZM98.9093 60.1172C98.8263 60.2833 98.7074 60.437 98.54 60.5796L99.8369 62.1021C100.197 61.7954 100.488 61.4316 100.698 61.0117L98.9093 60.1172ZM98.5568 60.5656C98.3824 60.7077 98.1679 60.8332 97.9032 60.9362L98.6281 62.8002C99.0665 62.6297 99.4672 62.4037 99.8201 62.1161L98.5568 60.5656ZM97.926 60.9276C97.6934 61.0116 97.4286 61.0586 97.123 61.0586V63.0586C97.6378 63.0586 98.1347 62.9786 98.6053 62.8087L97.926 60.9276ZM97.123 61.0586C96.8302 61.0586 96.5699 61.0125 96.3348 60.9276L95.6555 62.8087C96.1235 62.9777 96.6151 63.0586 97.123 63.0586V61.0586ZM96.3576 60.9362C96.0929 60.8332 95.8783 60.7077 95.7039 60.5656L94.4406 62.1161C94.7936 62.4037 95.1943 62.6297 95.6327 62.8002L96.3576 60.9362ZM95.7207 60.5796C95.5484 60.4328 95.4194 60.2714 95.3247 60.0939L93.56 61.035C93.7779 61.4435 94.0688 61.7997 94.4238 62.1021L95.7207 60.5796ZM95.3368 60.1172C95.2607 59.9651 95.2227 59.8059 95.2227 59.627H93.2227C93.2227 60.112 93.3311 60.5779 93.548 61.0117L95.3368 60.1172ZM95.2227 59.627C95.2227 59.4478 95.2609 59.2791 95.3425 59.1104L93.5422 58.2392C93.3309 58.676 93.2227 59.1421 93.2227 59.627H95.2227ZM95.331 59.1334C95.4244 58.9526 95.5469 58.8016 95.7039 58.6737L94.4406 57.1232C94.0703 57.425 93.7729 57.7916 93.5538 58.2162L95.331 59.1334ZM95.7207 58.6597C95.8861 58.5188 96.0871 58.4011 96.3348 58.3116L95.6555 56.4305C95.2 56.595 94.7858 56.8288 94.4238 57.1372L95.7207 58.6597ZM96.3576 58.3031C96.5866 58.214 96.8389 58.166 97.123 58.166V56.166C96.6064 56.166 96.1068 56.2547 95.6327 56.4391L96.3576 58.3031ZM97.123 58.166C97.4201 58.166 97.6769 58.2151 97.9032 58.3031L98.6281 56.4391C98.1512 56.2537 97.6463 56.166 97.123 56.166V58.166ZM97.926 58.3116C98.1736 58.4011 98.3747 58.5188 98.54 58.6597L99.8369 57.1372C99.4749 56.8288 99.0607 56.595 98.6053 56.4305L97.926 58.3116ZM98.5568 58.6737C98.7086 58.7973 98.8214 58.9406 98.9036 59.1104L100.704 58.2392C100.493 57.8035 100.196 57.4292 99.8201 57.1232L98.5568 58.6737ZM98.9151 59.1334C99.0001 59.2982 99.0381 59.4588 99.0381 59.627H101.038C101.038 59.1311 100.92 58.6569 100.692 58.2162L98.9151 59.1334ZM109.94 40.0127L110.936 40.1051L111.047 38.9099L109.851 39.0167L109.94 40.0127ZM108.534 55.1592V56.1592H109.446L109.53 55.2516L108.534 55.1592ZM105.824 55.1592L104.84 55.3356L104.988 56.1592H105.824V55.1592ZM103.217 40.6133L103.128 39.6172L102.04 39.7144L102.232 40.7897L103.217 40.6133ZM109.706 60.5645L108.824 60.0939L108.818 60.1055L108.812 60.1172L109.706 60.5645ZM109.091 61.3408L109.722 62.1161L109.731 62.1092L109.739 62.1021L109.091 61.3408ZM108.168 61.8682L108.508 62.8087L108.519 62.8046L108.53 62.8002L108.168 61.8682ZM105.897 61.8682L105.535 62.8002L105.546 62.8046L105.558 62.8087L105.897 61.8682ZM104.975 61.3408L104.326 62.1021L104.334 62.1092L104.343 62.1161L104.975 61.3408ZM104.345 60.5645L103.45 61.0117L103.456 61.0234L103.462 61.035L104.345 60.5645ZM104.345 58.6748L103.456 58.2162L103.45 58.2276L103.445 58.2392L104.345 58.6748ZM104.975 57.8984L105.606 58.6737L105.615 58.6668L105.623 58.6597L104.975 57.8984ZM105.897 57.3711L106.237 58.3116L106.249 58.3075L106.26 58.3031L105.897 57.3711ZM108.168 57.3711L107.806 58.3031L107.817 58.3075L107.828 58.3116L108.168 57.3711ZM109.091 57.8984L108.442 58.6597L108.451 58.6668L108.459 58.6737L109.091 57.8984ZM109.706 58.6748L108.806 59.1104L108.812 59.122L108.817 59.1334L109.706 58.6748ZM108.945 39.9202L107.538 55.0667L109.53 55.2516L110.936 40.1051L108.945 39.9202ZM108.534 54.1592H105.824V56.1592H108.534V54.1592ZM106.809 54.9827L104.201 40.4368L102.232 40.7897L104.84 55.3356L106.809 54.9827ZM103.306 41.6093L110.029 41.0087L109.851 39.0167L103.128 39.6172L103.306 41.6093ZM108.94 59.627C108.94 59.7948 108.903 59.9457 108.824 60.0939L110.588 61.035C110.822 60.5972 110.94 60.1231 110.94 59.627H108.94ZM108.812 60.1172C108.729 60.2833 108.61 60.437 108.442 60.5796L109.739 62.1021C110.099 61.7954 110.391 61.4316 110.6 61.0117L108.812 60.1172ZM108.459 60.5656C108.285 60.7077 108.07 60.8332 107.806 60.9362L108.53 62.8002C108.969 62.6297 109.37 62.4037 109.722 62.1161L108.459 60.5656ZM107.828 60.9276C107.596 61.0116 107.331 61.0586 107.025 61.0586V63.0586C107.54 63.0586 108.037 62.9786 108.508 62.8087L107.828 60.9276ZM107.025 61.0586C106.733 61.0586 106.472 61.0125 106.237 60.9276L105.558 62.8087C106.026 62.9777 106.517 63.0586 107.025 63.0586V61.0586ZM106.26 60.9362C105.995 60.8332 105.781 60.7077 105.606 60.5656L104.343 62.1161C104.696 62.4037 105.097 62.6297 105.535 62.8002L106.26 60.9362ZM105.623 60.5796C105.451 60.4328 105.322 60.2714 105.227 60.0939L103.462 61.035C103.68 61.4435 103.971 61.7997 104.326 62.1021L105.623 60.5796ZM105.239 60.1172C105.163 59.9651 105.125 59.8059 105.125 59.627H103.125C103.125 60.112 103.233 60.5779 103.45 61.0117L105.239 60.1172ZM105.125 59.627C105.125 59.4478 105.163 59.2791 105.245 59.1104L103.445 58.2392C103.233 58.676 103.125 59.1421 103.125 59.627H105.125ZM105.233 59.1334C105.327 58.9526 105.449 58.8016 105.606 58.6737L104.343 57.1232C103.973 57.425 103.675 57.7916 103.456 58.2162L105.233 59.1334ZM105.623 58.6597C105.788 58.5188 105.989 58.4011 106.237 58.3116L105.558 56.4305C105.102 56.595 104.688 56.8288 104.326 57.1372L105.623 58.6597ZM106.26 58.3031C106.489 58.214 106.741 58.166 107.025 58.166V56.166C106.509 56.166 106.009 56.2547 105.535 56.4391L106.26 58.3031ZM107.025 58.166C107.322 58.166 107.579 58.2151 107.806 58.3031L108.53 56.4391C108.054 56.2537 107.549 56.166 107.025 56.166V58.166ZM107.828 58.3116C108.076 58.4011 108.277 58.5188 108.442 58.6597L109.739 57.1372C109.377 56.8288 108.963 56.595 108.508 56.4305L107.828 58.3116ZM108.459 58.6737C108.611 58.7973 108.724 58.9406 108.806 59.1104L110.606 58.2392C110.395 57.8035 110.098 57.4292 109.722 57.1232L108.459 58.6737ZM108.817 59.1334C108.902 59.2982 108.94 59.4588 108.94 59.627H110.94C110.94 59.1311 110.822 58.6569 110.595 58.2162L108.817 59.1334ZM119.843 40.0127L120.838 40.1051L120.949 38.9099L119.754 39.0167L119.843 40.0127ZM118.437 55.1592V56.1592H119.348L119.432 55.2516L118.437 55.1592ZM115.727 55.1592L114.742 55.3356L114.89 56.1592H115.727V55.1592ZM113.119 40.6133L113.03 39.6172L111.942 39.7144L112.135 40.7897L113.119 40.6133ZM119.608 60.5645L118.726 60.0939L118.72 60.1055L118.714 60.1172L119.608 60.5645ZM118.993 61.3408L119.625 62.1161L119.633 62.1092L119.642 62.1021L118.993 61.3408ZM118.07 61.8682L118.41 62.8087L118.421 62.8046L118.433 62.8002L118.07 61.8682ZM115.8 61.8682L115.437 62.8002L115.449 62.8046L115.46 62.8087L115.8 61.8682ZM114.877 61.3408L114.228 62.1021L114.237 62.1092L114.245 62.1161L114.877 61.3408ZM114.247 60.5645L113.353 61.0117L113.359 61.0234L113.365 61.035L114.247 60.5645ZM114.247 58.6748L113.358 58.2162L113.353 58.2276L113.347 58.2392L114.247 58.6748ZM114.877 57.8984L115.509 58.6737L115.517 58.6668L115.525 58.6597L114.877 57.8984ZM115.8 57.3711L116.139 58.3116L116.151 58.3075L116.162 58.3031L115.8 57.3711ZM118.07 57.3711L117.708 58.3031L117.719 58.3075L117.731 58.3116L118.07 57.3711ZM118.993 57.8984L118.345 58.6597L118.353 58.6668L118.361 58.6737L118.993 57.8984ZM119.608 58.6748L118.708 59.1104L118.714 59.122L118.72 59.1334L119.608 58.6748ZM118.847 39.9202L117.441 55.0667L119.432 55.2516L120.838 40.1051L118.847 39.9202ZM118.437 54.1592H115.727V56.1592H118.437V54.1592ZM116.711 54.9827L114.103 40.4368L112.135 40.7897L114.742 55.3356L116.711 54.9827ZM113.208 41.6093L119.932 41.0087L119.754 39.0167L113.03 39.6172L113.208 41.6093ZM118.843 59.627C118.843 59.7948 118.805 59.9457 118.726 60.0939L120.491 61.035C120.724 60.5972 120.843 60.1231 120.843 59.627H118.843ZM118.714 60.1172C118.631 60.2833 118.512 60.437 118.345 60.5796L119.642 62.1021C120.002 61.7954 120.293 61.4316 120.503 61.0117L118.714 60.1172ZM118.361 60.5656C118.187 60.7077 117.973 60.8332 117.708 60.9362L118.433 62.8002C118.871 62.6297 119.272 62.4037 119.625 62.1161L118.361 60.5656ZM117.731 60.9276C117.498 61.0116 117.233 61.0586 116.928 61.0586V63.0586C117.442 63.0586 117.939 62.9786 118.41 62.8087L117.731 60.9276ZM116.928 61.0586C116.635 61.0586 116.375 61.0125 116.139 60.9276L115.46 62.8087C115.928 62.9777 116.42 63.0586 116.928 63.0586V61.0586ZM116.162 60.9362C115.898 60.8332 115.683 60.7077 115.509 60.5656L114.245 62.1161C114.598 62.4037 114.999 62.6297 115.437 62.8002L116.162 60.9362ZM115.525 60.5796C115.353 60.4328 115.224 60.2714 115.129 60.0939L113.365 61.035C113.583 61.4435 113.874 61.7997 114.228 62.1021L115.525 60.5796ZM115.141 60.1172C115.065 59.9651 115.027 59.8059 115.027 59.627H113.027C113.027 60.112 113.136 60.5779 113.353 61.0117L115.141 60.1172ZM115.027 59.627C115.027 59.4478 115.066 59.2791 115.147 59.1104L113.347 58.2392C113.136 58.676 113.027 59.1421 113.027 59.627H115.027ZM115.136 59.1334C115.229 58.9526 115.352 58.8016 115.509 58.6737L114.245 57.1232C113.875 57.425 113.578 57.7916 113.358 58.2162L115.136 59.1334ZM115.525 58.6597C115.691 58.5188 115.892 58.4011 116.139 58.3116L115.46 56.4305C115.005 56.595 114.59 56.8288 114.228 57.1372L115.525 58.6597ZM116.162 58.3031C116.391 58.214 116.644 58.166 116.928 58.166V56.166C116.411 56.166 115.911 56.2547 115.437 56.4391L116.162 58.3031ZM116.928 58.166C117.225 58.166 117.482 58.2151 117.708 58.3031L118.433 56.4391C117.956 56.2537 117.451 56.166 116.928 56.166V58.166ZM117.731 58.3116C117.978 58.4011 118.179 58.5188 118.345 58.6597L119.642 57.1372C119.28 56.8288 118.865 56.595 118.41 56.4305L117.731 58.3116ZM118.361 58.6737C118.513 58.7973 118.626 58.9406 118.708 59.1104L120.509 58.2392C120.298 57.8035 120 57.4292 119.625 57.1232L118.361 58.6737ZM118.72 59.1334C118.805 59.2982 118.843 59.4588 118.843 59.627H120.843C120.843 59.1311 120.724 58.6569 120.497 58.2162L118.72 59.1334Z" fill="black"/>
</svg>
