<svg width="136" height="50" viewBox="0 0 136 50" fill="none" xmlns="http://www.w3.org/2000/svg">
<path d="M33.3984 9.16406L11.4609 28.2656L28.9453 27.9375V22.5234H33.8906L32.9297 35.8125H2.83594L1.73438 28.4062L27.6094 9.30469L6.67969 9.70312V15.0703H1.73438L2.69531 1.78125H32.25L33.3984 9.16406ZM70.5703 32.4844L68.9062 41.8125L44.9531 42.2344L44.6016 39.7031L60.3984 22.0312L50.0859 22.1719V27.8906H44.8125L45.2812 18.4219L68.8594 18.2812L69.9141 22.4062L53.625 38.4844L64.7812 38.0625L65.1094 32.4844H70.5703ZM99.3516 38.4844L97.6875 47.8125L73.7344 48.2344L73.3828 45.7031L89.1797 28.0312L78.8672 28.1719V33.8906H73.5938L74.0625 24.4219L97.6406 24.2812L98.6953 28.4062L82.4062 44.4844L93.5625 44.0625L93.8906 38.4844H99.3516ZM110.625 44.4375C110.625 44.9219 110.516 45.375 110.297 45.7969C110.078 46.2188 109.781 46.5938 109.406 46.9219C109.031 47.2344 108.586 47.4844 108.07 47.6719C107.57 47.8594 107.031 47.9531 106.453 47.9531C105.859 47.9531 105.305 47.8594 104.789 47.6719C104.289 47.4844 103.852 47.2344 103.477 46.9219C103.102 46.5938 102.805 46.2188 102.586 45.7969C102.383 45.375 102.281 44.9219 102.281 44.4375C102.281 43.9531 102.383 43.4922 102.586 43.0547C102.805 42.6172 103.102 42.2422 103.477 41.9297C103.852 41.6172 104.289 41.3672 104.789 41.1797C105.305 40.9922 105.859 40.8984 106.453 40.8984C107.031 40.8984 107.57 40.9922 108.07 41.1797C108.586 41.3672 109.031 41.6172 109.406 41.9297C109.781 42.2422 110.078 42.6172 110.297 43.0547C110.516 43.4922 110.625 43.9531 110.625 44.4375ZM122.438 44.4375C122.438 44.9219 122.328 45.375 122.109 45.7969C121.891 46.2188 121.594 46.5938 121.219 46.9219C120.844 47.2344 120.398 47.4844 119.883 47.6719C119.383 47.8594 118.844 47.9531 118.266 47.9531C117.672 47.9531 117.117 47.8594 116.602 47.6719C116.102 47.4844 115.664 47.2344 115.289 46.9219C114.914 46.5938 114.617 46.2188 114.398 45.7969C114.195 45.375 114.094 44.9219 114.094 44.4375C114.094 43.9531 114.195 43.4922 114.398 43.0547C114.617 42.6172 114.914 42.2422 115.289 41.9297C115.664 41.6172 116.102 41.3672 116.602 41.1797C117.117 40.9922 117.672 40.8984 118.266 40.8984C118.844 40.8984 119.383 40.9922 119.883 41.1797C120.398 41.3672 120.844 41.6172 121.219 41.9297C121.594 42.2422 121.891 42.6172 122.109 43.0547C122.328 43.4922 122.438 43.9531 122.438 44.4375ZM134.25 44.4375C134.25 44.9219 134.141 45.375 133.922 45.7969C133.703 46.2188 133.406 46.5938 133.031 46.9219C132.656 47.2344 132.211 47.4844 131.695 47.6719C131.195 47.8594 130.656 47.9531 130.078 47.9531C129.484 47.9531 128.93 47.8594 128.414 47.6719C127.914 47.4844 127.477 47.2344 127.102 46.9219C126.727 46.5938 126.43 46.2188 126.211 45.7969C126.008 45.375 125.906 44.9219 125.906 44.4375C125.906 43.9531 126.008 43.4922 126.211 43.0547C126.43 42.6172 126.727 42.2422 127.102 41.9297C127.477 41.6172 127.914 41.3672 128.414 41.1797C128.93 40.9922 129.484 40.8984 130.078 40.8984C130.656 40.8984 131.195 40.9922 131.695 41.1797C132.211 41.3672 132.656 41.6172 133.031 41.9297C133.406 42.2422 133.703 42.6172 133.922 43.0547C134.141 43.4922 134.25 43.9531 134.25 44.4375Z" fill="white"/>
<path d="M33.3984 9.16406L34.0551 9.91823L34.4714 9.55577L34.3866 9.01036L33.3984 9.16406ZM11.4609 28.2656L10.8043 27.5115L8.7306 29.317L11.4797 29.2654L11.4609 28.2656ZM28.9453 27.9375L28.9641 28.9373L29.9453 28.9189V27.9375H28.9453ZM28.9453 22.5234V21.5234H27.9453V22.5234H28.9453ZM33.8906 22.5234L34.888 22.5956L34.9655 21.5234H33.8906V22.5234ZM32.9297 35.8125V36.8125H33.86L33.9271 35.8846L32.9297 35.8125ZM2.83594 35.8125L1.84682 35.9596L1.97367 36.8125H2.83594V35.8125ZM1.73438 28.4062L1.14046 27.6017L0.656817 27.9588L0.745256 28.5534L1.73438 28.4062ZM27.6094 9.30469L28.2033 10.1092L30.7284 8.24513L27.5903 8.30487L27.6094 9.30469ZM6.67969 9.70312L6.66065 8.70331L5.67969 8.72198V9.70312H6.67969ZM6.67969 15.0703V16.0703H7.67969V15.0703H6.67969ZM1.73438 15.0703L0.736979 14.9982L0.659454 16.0703H1.73438V15.0703ZM2.69531 1.78125V0.78125H1.76501L1.69792 1.70913L2.69531 1.78125ZM32.25 1.78125L33.2381 1.62754L33.1065 0.78125H32.25V1.78125ZM32.7418 8.40989L10.8043 27.5115L12.1176 29.0198L34.0551 9.91823L32.7418 8.40989ZM11.4797 29.2654L28.9641 28.9373L28.9265 26.9377L11.4422 27.2658L11.4797 29.2654ZM29.9453 27.9375V22.5234H27.9453V27.9375H29.9453ZM28.9453 23.5234H33.8906V21.5234H28.9453V23.5234ZM32.8932 22.4513L31.9323 35.7404L33.9271 35.8846L34.888 22.5956L32.8932 22.4513ZM32.9297 34.8125H2.83594V36.8125H32.9297V34.8125ZM3.82506 35.6654L2.72349 28.2591L0.745256 28.5534L1.84682 35.9596L3.82506 35.6654ZM2.32829 29.2108L28.2033 10.1092L27.0155 8.50016L1.14046 27.6017L2.32829 29.2108ZM27.5903 8.30487L6.66065 8.70331L6.69872 10.7029L27.6284 10.3045L27.5903 8.30487ZM5.67969 9.70312V15.0703H7.67969V9.70312H5.67969ZM6.67969 14.0703H1.73438V16.0703H6.67969V14.0703ZM2.73177 15.1424L3.69271 1.85337L1.69792 1.70913L0.736979 14.9982L2.73177 15.1424ZM2.69531 2.78125H32.25V0.78125H2.69531V2.78125ZM31.2619 1.93496L32.4103 9.31777L34.3866 9.01036L33.2381 1.62754L31.2619 1.93496ZM70.5703 32.4844L71.5548 32.66L71.7645 31.4844H70.5703V32.4844ZM68.9062 41.8125L68.9239 42.8123L69.7463 42.7979L69.8907 41.9881L68.9062 41.8125ZM44.9531 42.2344L43.9626 42.3719L44.0846 43.2498L44.9707 43.2342L44.9531 42.2344ZM44.6016 39.7031L43.856 39.0367L43.5474 39.382L43.6111 39.8407L44.6016 39.7031ZM60.3984 22.0312L61.144 22.6977L62.6613 21.0003L60.3848 21.0313L60.3984 22.0312ZM50.0859 22.1719L50.0723 21.172L49.0859 21.1854V22.1719H50.0859ZM50.0859 27.8906V28.8906H51.0859V27.8906H50.0859ZM44.8125 27.8906L43.8137 27.8412L43.7618 28.8906H44.8125V27.8906ZM45.2812 18.4219L45.2753 17.4219L44.3293 17.4275L44.2825 18.3724L45.2812 18.4219ZM68.8594 18.2812L69.8282 18.0335L69.6347 17.2766L68.8534 17.2813L68.8594 18.2812ZM69.9141 22.4062L70.6165 23.1179L71.0251 22.7147L70.8829 22.1585L69.9141 22.4062ZM53.625 38.4844L52.9225 37.7727L51.0905 39.5809L53.6628 39.4837L53.625 38.4844ZM64.7812 38.0625L64.819 39.0618L65.7262 39.0275L65.7795 38.1212L64.7812 38.0625ZM65.1094 32.4844V31.4844H64.1665L64.1111 32.4257L65.1094 32.4844ZM69.5859 32.3088L67.9218 41.6369L69.8907 41.9881L71.5548 32.66L69.5859 32.3088ZM68.8886 40.8127L44.9355 41.2345L44.9707 43.2342L68.9239 42.8123L68.8886 40.8127ZM45.9436 42.0968L45.5921 39.5656L43.6111 39.8407L43.9626 42.3719L45.9436 42.0968ZM45.3471 40.3696L61.144 22.6977L59.6529 21.3648L43.856 39.0367L45.3471 40.3696ZM60.3848 21.0313L50.0723 21.172L50.0996 23.1718L60.4121 23.0312L60.3848 21.0313ZM49.0859 22.1719V27.8906H51.0859V22.1719H49.0859ZM50.0859 26.8906H44.8125V28.8906H50.0859V26.8906ZM45.8113 27.9401L46.28 18.4713L44.2825 18.3724L43.8137 27.8412L45.8113 27.9401ZM45.2872 19.4219L68.8653 19.2812L68.8534 17.2813L45.2753 17.4219L45.2872 19.4219ZM67.8905 18.529L68.9452 22.654L70.8829 22.1585L69.8282 18.0335L67.8905 18.529ZM69.2116 21.6946L52.9225 37.7727L54.3275 39.1961L70.6165 23.1179L69.2116 21.6946ZM53.6628 39.4837L64.819 39.0618L64.7435 37.0632L53.5872 37.4851L53.6628 39.4837ZM65.7795 38.1212L66.1076 32.5431L64.1111 32.4257L63.783 38.0038L65.7795 38.1212ZM65.1094 33.4844H70.5703V31.4844H65.1094V33.4844ZM99.3516 38.4844L100.336 38.66L100.546 37.4844H99.3516V38.4844ZM97.6875 47.8125L97.7051 48.8123L98.5275 48.7979L98.672 47.9881L97.6875 47.8125ZM73.7344 48.2344L72.7439 48.3719L72.8658 49.2498L73.752 49.2342L73.7344 48.2344ZM73.3828 45.7031L72.6373 45.0367L72.3286 45.382L72.3923 45.8407L73.3828 45.7031ZM89.1797 28.0312L89.9252 28.6977L91.4425 27.0003L89.1661 27.0313L89.1797 28.0312ZM78.8672 28.1719L78.8536 27.172L77.8672 27.1854V28.1719H78.8672ZM78.8672 33.8906V34.8906H79.8672V33.8906H78.8672ZM73.5938 33.8906L72.595 33.8412L72.543 34.8906H73.5938V33.8906ZM74.0625 24.4219L74.0565 23.4219L73.1105 23.4275L73.0637 24.3724L74.0625 24.4219ZM97.6406 24.2812L98.6095 24.0335L98.4159 23.2766L97.6347 23.2813L97.6406 24.2812ZM98.6953 28.4062L99.3978 29.1179L99.8063 28.7147L99.6641 28.1585L98.6953 28.4062ZM82.4062 44.4844L81.7038 43.7727L79.8718 45.5809L82.444 45.4837L82.4062 44.4844ZM93.5625 44.0625L93.6003 45.0618L94.5075 45.0275L94.5608 44.1212L93.5625 44.0625ZM93.8906 38.4844V37.4844H92.9477L92.8924 38.4257L93.8906 38.4844ZM98.3671 38.3088L96.703 47.6369L98.672 47.9881L100.336 38.66L98.3671 38.3088ZM97.6699 46.8127L73.7168 47.2345L73.752 49.2342L97.7051 48.8123L97.6699 46.8127ZM74.7249 48.0968L74.3733 45.5656L72.3923 45.8407L72.7439 48.3719L74.7249 48.0968ZM74.1284 46.3696L89.9252 28.6977L88.4341 27.3648L72.6373 45.0367L74.1284 46.3696ZM89.1661 27.0313L78.8536 27.172L78.8808 29.1718L89.1933 29.0312L89.1661 27.0313ZM77.8672 28.1719V33.8906H79.8672V28.1719H77.8672ZM78.8672 32.8906H73.5938V34.8906H78.8672V32.8906ZM74.5925 33.9401L75.0613 24.4713L73.0637 24.3724L72.595 33.8412L74.5925 33.9401ZM74.0685 25.4219L97.6466 25.2812L97.6347 23.2813L74.0565 23.4219L74.0685 25.4219ZM96.6718 24.529L97.7265 28.654L99.6641 28.1585L98.6095 24.0335L96.6718 24.529ZM97.9928 27.6946L81.7038 43.7727L83.1087 45.1961L99.3978 29.1179L97.9928 27.6946ZM82.444 45.4837L93.6003 45.0618L93.5247 43.0632L82.3685 43.4851L82.444 45.4837ZM94.5608 44.1212L94.8889 38.5431L92.8924 38.4257L92.5642 44.0038L94.5608 44.1212ZM93.8906 39.4844H99.3516V37.4844H93.8906V39.4844ZM109.406 46.9219L110.046 47.6901L110.056 47.6824L110.065 47.6745L109.406 46.9219ZM108.07 47.6719L107.729 46.732L107.719 46.7355L108.07 47.6719ZM104.789 47.6719L104.438 48.6083L104.447 48.6117L104.789 47.6719ZM103.477 46.9219L102.818 47.6745L102.827 47.6824L102.836 47.6901L103.477 46.9219ZM102.586 45.7969L101.685 46.2307L101.691 46.244L101.698 46.2572L102.586 45.7969ZM102.586 43.0547L101.692 42.6075L101.685 42.6204L101.679 42.6336L102.586 43.0547ZM104.789 41.1797L104.447 40.2398L104.438 40.2434L104.789 41.1797ZM108.07 41.1797L107.719 42.1161L107.729 42.1195L108.07 41.1797ZM109.625 44.4375C109.625 44.7649 109.553 45.0597 109.409 45.3366L111.185 46.2572C111.479 45.6903 111.625 45.0789 111.625 44.4375H109.625ZM109.409 45.3366C109.251 45.6422 109.033 45.9194 108.748 46.1693L110.065 47.6745C110.529 47.2681 110.906 46.7953 111.185 46.2572L109.409 45.3366ZM108.766 46.1537C108.49 46.3836 108.149 46.5792 107.729 46.7321L108.412 48.6117C109.023 48.3895 109.572 48.0852 110.046 47.6901L108.766 46.1537ZM107.719 46.7355C107.34 46.8776 106.921 46.9531 106.453 46.9531V48.9531C107.141 48.9531 107.8 48.8412 108.421 48.6082L107.719 46.7355ZM106.453 46.9531C105.966 46.9531 105.528 46.8766 105.131 46.7321L104.447 48.6117C105.081 48.8422 105.752 48.9531 106.453 48.9531V46.9531ZM105.14 46.7355C104.735 46.5838 104.398 46.3879 104.117 46.1537L102.836 47.6901C103.305 48.0809 103.843 48.385 104.438 48.6082L105.14 46.7355ZM104.135 46.1693C103.849 45.9194 103.632 45.6422 103.474 45.3366L101.698 46.2572C101.977 46.7953 102.354 47.2681 102.818 47.6745L104.135 46.1693ZM103.487 45.3631C103.351 45.0812 103.281 44.777 103.281 44.4375H101.281C101.281 45.0667 101.414 45.6688 101.685 46.2307L103.487 45.3631ZM103.281 44.4375C103.281 44.098 103.351 43.7808 103.493 43.4758L101.679 42.6336C101.414 43.2036 101.281 43.8083 101.281 44.4375H103.281ZM103.48 43.5019C103.638 43.1875 103.848 42.9219 104.117 42.6979L102.836 41.1615C102.355 41.5625 101.972 42.0468 101.692 42.6075L103.48 43.5019ZM104.117 42.6979C104.398 42.4637 104.735 42.2678 105.14 42.116L104.438 40.2434C103.843 40.4666 103.305 40.7707 102.836 41.1615L104.117 42.6979ZM105.131 42.1195C105.528 41.975 105.966 41.8984 106.453 41.8984V39.8984C105.752 39.8984 105.081 40.0094 104.447 40.2399L105.131 42.1195ZM106.453 41.8984C106.921 41.8984 107.34 41.974 107.719 42.116L108.421 40.2434C107.8 40.0104 107.141 39.8984 106.453 39.8984V41.8984ZM107.729 42.1195C108.149 42.2723 108.49 42.468 108.766 42.6979L110.046 41.1615C109.572 40.7664 109.023 40.462 108.412 40.2399L107.729 42.1195ZM108.766 42.6979C109.035 42.9219 109.245 43.1875 109.402 43.5019L111.191 42.6075C110.911 42.0468 110.528 41.5625 110.046 41.1615L108.766 42.6979ZM109.402 43.5019C109.552 43.802 109.625 44.1099 109.625 44.4375H111.625C111.625 43.7963 111.479 43.1824 111.191 42.6075L109.402 43.5019ZM121.219 46.9219L121.859 47.6901L121.868 47.6824L121.877 47.6745L121.219 46.9219ZM119.883 47.6719L119.541 46.732L119.532 46.7355L119.883 47.6719ZM116.602 47.6719L116.25 48.6083L116.26 48.6117L116.602 47.6719ZM115.289 46.9219L114.631 47.6745L114.64 47.6824L114.649 47.6901L115.289 46.9219ZM114.398 45.7969L113.497 46.2307L113.504 46.244L113.511 46.2572L114.398 45.7969ZM114.398 43.0547L113.504 42.6075L113.498 42.6204L113.491 42.6336L114.398 43.0547ZM116.602 41.1797L116.26 40.2398L116.25 40.2434L116.602 41.1797ZM119.883 41.1797L119.532 42.1161L119.541 42.1195L119.883 41.1797ZM121.438 44.4375C121.438 44.7649 121.365 45.0597 121.222 45.3366L122.997 46.2572C123.291 45.6903 123.438 45.0789 123.438 44.4375H121.438ZM121.222 45.3366C121.063 45.6422 120.846 45.9194 120.56 46.1693L121.877 47.6745C122.342 47.2681 122.718 46.7953 122.997 46.2572L121.222 45.3366ZM120.579 46.1537C120.303 46.3836 119.961 46.5792 119.541 46.7321L120.225 48.6117C120.835 48.3895 121.385 48.0852 121.859 47.6901L120.579 46.1537ZM119.532 46.7355C119.153 46.8776 118.734 46.9531 118.266 46.9531V48.9531C118.954 48.9531 119.613 48.8412 120.234 48.6082L119.532 46.7355ZM118.266 46.9531C117.779 46.9531 117.341 46.8766 116.943 46.7321L116.26 48.6117C116.894 48.8422 117.565 48.9531 118.266 48.9531V46.9531ZM116.953 46.7355C116.548 46.5838 116.21 46.3879 115.929 46.1537L114.649 47.6901C115.118 48.0809 115.655 48.385 116.25 48.6082L116.953 46.7355ZM115.948 46.1693C115.662 45.9194 115.445 45.6422 115.286 45.3366L113.511 46.2572C113.79 46.7953 114.166 47.2681 114.631 47.6745L115.948 46.1693ZM115.299 45.3631C115.164 45.0812 115.094 44.777 115.094 44.4375H113.094C113.094 45.0667 113.227 45.6688 113.497 46.2307L115.299 45.3631ZM115.094 44.4375C115.094 44.098 115.164 43.7808 115.305 43.4758L113.491 42.6336C113.227 43.2036 113.094 43.8083 113.094 44.4375H115.094ZM115.293 43.5019C115.45 43.1875 115.66 42.9219 115.929 42.6979L114.649 41.1615C114.168 41.5625 113.784 42.0468 113.504 42.6075L115.293 43.5019ZM115.929 42.6979C116.21 42.4637 116.548 42.2678 116.953 42.116L116.25 40.2434C115.655 40.4666 115.118 40.7707 114.649 41.1615L115.929 42.6979ZM116.943 42.1195C117.341 41.975 117.779 41.8984 118.266 41.8984V39.8984C117.565 39.8984 116.894 40.0094 116.26 40.2399L116.943 42.1195ZM118.266 41.8984C118.734 41.8984 119.153 41.974 119.532 42.116L120.234 40.2434C119.613 40.0104 118.954 39.8984 118.266 39.8984V41.8984ZM119.541 42.1195C119.961 42.2723 120.303 42.468 120.579 42.6979L121.859 41.1615C121.385 40.7664 120.835 40.462 120.225 40.2399L119.541 42.1195ZM120.579 42.6979C120.847 42.9219 121.058 43.1875 121.215 43.5019L123.004 42.6075C122.723 42.0468 122.34 41.5625 121.859 41.1615L120.579 42.6979ZM121.215 43.5019C121.365 43.802 121.438 44.1099 121.438 44.4375H123.438C123.438 43.7963 123.291 43.1824 123.004 42.6075L121.215 43.5019ZM133.031 46.9219L133.671 47.6901L133.681 47.6824L133.69 47.6745L133.031 46.9219ZM131.695 47.6719L131.354 46.732L131.344 46.7355L131.695 47.6719ZM128.414 47.6719L128.063 48.6083L128.072 48.6117L128.414 47.6719ZM127.102 46.9219L126.443 47.6745L126.452 47.6824L126.461 47.6901L127.102 46.9219ZM126.211 45.7969L125.31 46.2307L125.316 46.244L125.323 46.2572L126.211 45.7969ZM126.211 43.0547L125.317 42.6075L125.31 42.6204L125.304 42.6336L126.211 43.0547ZM128.414 41.1797L128.072 40.2398L128.063 40.2434L128.414 41.1797ZM131.695 41.1797L131.344 42.1161L131.354 42.1195L131.695 41.1797ZM133.25 44.4375C133.25 44.7649 133.178 45.0597 133.034 45.3366L134.81 46.2572C135.104 45.6903 135.25 45.0789 135.25 44.4375H133.25ZM133.034 45.3366C132.876 45.6422 132.658 45.9194 132.373 46.1693L133.69 47.6745C134.154 47.2681 134.531 46.7953 134.81 46.2572L133.034 45.3366ZM132.391 46.1537C132.115 46.3836 131.774 46.5792 131.354 46.7321L132.037 48.6117C132.648 48.3895 133.197 48.0852 133.671 47.6901L132.391 46.1537ZM131.344 46.7355C130.965 46.8776 130.546 46.9531 130.078 46.9531V48.9531C130.766 48.9531 131.425 48.8412 132.046 48.6082L131.344 46.7355ZM130.078 46.9531C129.591 46.9531 129.153 46.8766 128.756 46.7321L128.072 48.6117C128.706 48.8422 129.377 48.9531 130.078 48.9531V46.9531ZM128.765 46.7355C128.36 46.5838 128.023 46.3879 127.742 46.1537L126.461 47.6901C126.93 48.0809 127.468 48.385 128.063 48.6082L128.765 46.7355ZM127.76 46.1693C127.474 45.9194 127.257 45.6422 127.099 45.3366L125.323 46.2572C125.602 46.7953 125.979 47.2681 126.443 47.6745L127.76 46.1693ZM127.112 45.3631C126.976 45.0812 126.906 44.777 126.906 44.4375H124.906C124.906 45.0667 125.039 45.6688 125.31 46.2307L127.112 45.3631ZM126.906 44.4375C126.906 44.098 126.976 43.7808 127.118 43.4758L125.304 42.6336C125.039 43.2036 124.906 43.8083 124.906 44.4375H126.906ZM127.105 43.5019C127.263 43.1875 127.473 42.9219 127.742 42.6979L126.461 41.1615C125.98 41.5625 125.597 42.0468 125.317 42.6075L127.105 43.5019ZM127.742 42.6979C128.023 42.4637 128.36 42.2678 128.765 42.116L128.063 40.2434C127.468 40.4666 126.93 40.7707 126.461 41.1615L127.742 42.6979ZM128.756 42.1195C129.153 41.975 129.591 41.8984 130.078 41.8984V39.8984C129.377 39.8984 128.706 40.0094 128.072 40.2399L128.756 42.1195ZM130.078 41.8984C130.546 41.8984 130.965 41.974 131.344 42.116L132.046 40.2434C131.425 40.0104 130.766 39.8984 130.078 39.8984V41.8984ZM131.354 42.1195C131.774 42.2723 132.115 42.468 132.391 42.6979L133.671 41.1615C133.197 40.7664 132.648 40.462 132.037 40.2399L131.354 42.1195ZM132.391 42.6979C132.66 42.9219 132.87 43.1875 133.027 43.5019L134.816 42.6075C134.536 42.0468 134.153 41.5625 133.671 41.1615L132.391 42.6979ZM133.027 43.5019C133.177 43.802 133.25 44.1099 133.25 44.4375H135.25C135.25 43.7963 135.104 43.1824 134.816 42.6075L133.027 43.5019Z" fill="black"/>
</svg>
